<svg xmlns="http://www.w3.org/2000/svg" xmlns:xlink="http://www.w3.org/1999/xlink" width="118" height="118" viewBox="0 0 118 118">
  <defs>
    <filter id="Rectangle_411831" x="0" y="0" width="118" height="118" filterUnits="userSpaceOnUse">
      <feOffset dy="3" input="SourceAlpha"/>
      <feGaussianBlur stdDeviation="3" result="blur"/>
      <feFlood flood-opacity="0.161"/>
      <feComposite operator="in" in2="blur"/>
      <feComposite in="SourceGraphic"/>
    </filter>
  </defs>
  <g id="Group_1205740" data-name="Group 1205740" transform="translate(-740.147 -14184.834)">
    <g id="Group_1204467" data-name="Group 1204467" transform="translate(-51.634 12228.834)">
      <g id="Group_1203409" data-name="Group 1203409" transform="translate(465 -1896)">
        <g transform="matrix(1, 0, 0, 1, 326.78, 3852)" filter="url(#Rectangle_411831)">
          <g id="Rectangle_411831-2" data-name="Rectangle 411831" transform="translate(9 6)" fill="#fecb20" stroke="#fff" stroke-width="2">
            <path d="M5,0H68a32,32,0,0,1,32,32V95a5,5,0,0,1-5,5H32A32,32,0,0,1,0,68V5A5,5,0,0,1,5,0Z" stroke="none"/>
            <path d="M5,1H68A31,31,0,0,1,99,32V95a4,4,0,0,1-4,4H32A31,31,0,0,1,1,68V5A4,4,0,0,1,5,1Z" fill="none"/>
          </g>
        </g>
      </g>
    </g>
    <g id="beneficio-financiero" transform="translate(769 14209)">
      <path id="Path_1263319" data-name="Path 1263319" d="M50,56V25a1,1,0,0,1,1-1h6a1,1,0,0,1,1,1V56Z" fill="#247fd1"/>
      <path id="Path_1263320" data-name="Path 1263320" d="M38,56V32a1,1,0,0,1,1-1h6a1,1,0,0,1,1,1V56Z" fill="#f4bb3b"/>
      <path id="Path_1263321" data-name="Path 1263321" d="M26,56V35a1,1,0,0,1,1-1h6a1,1,0,0,1,1,1V56Z" fill="#d82751"/>
      <path id="Path_1263322" data-name="Path 1263322" d="M14,56V40a1,1,0,0,1,1-1h6a1,1,0,0,1,1,1V56Z" fill="#36c46f"/>
      <path id="Path_1263323" data-name="Path 1263323" d="M10,56V47a1,1,0,0,0-1-1H3a1,1,0,0,0-1,1v9Z" fill="#247fd1"/>
      <rect id="Rectangle_426021" data-name="Rectangle 426021" width="58" height="4" rx="1" transform="translate(59 59) rotate(180)" fill="#c0daf0"/>
      <path id="Path_1263324" data-name="Path 1263324" d="M37.22,16.47l-1.71,6.66a2.091,2.091,0,0,1-2.13,1.61,2.01,2.01,0,0,1-1.78-2.49l.55-2.11L4.01,36.72a2,2,0,0,1-2.03-3.44L30.12,16.7l-1.99-.51a2.081,2.081,0,0,1-1.61-2.13,1.99,1.99,0,0,1,2.49-1.77l6.78,1.74a2.006,2.006,0,0,1,1.43,2.44Z" fill="#36c46f"/>
      <circle id="Ellipse_13701" data-name="Ellipse 13701" cx="9" cy="9" r="9" transform="translate(41 1)" fill="#f4bb3b"/>
      <g id="Group_1205739" data-name="Group 1205739">
        <path id="Path_1263325" data-name="Path 1263325" d="M59,54.278V25a2,2,0,0,0-2-2H51a2,2,0,0,0-2,2V54H47V32a2,2,0,0,0-2-2H39a2,2,0,0,0-2,2V54H35V35a2,2,0,0,0-2-2H27a2,2,0,0,0-2,2V54H23V40a2,2,0,0,0-2-2H15a2,2,0,0,0-2,2V54H11V47a2,2,0,0,0-2-2H3a2,2,0,0,0-2,2v7.278A1.993,1.993,0,0,0,0,56v2a2,2,0,0,0,2,2H58a2,2,0,0,0,2-2V56a1.993,1.993,0,0,0-1-1.722ZM51,25h6V54H51ZM39,32h6V54H39ZM27,35h6V54H27ZM15,40h6V54H15ZM9,47v7H3V47ZM58,58H2V56H58Z" fill="#262626"/>
        <path id="Path_1263326" data-name="Path 1263326" d="M50,0a9.96,9.96,0,0,0-5.557,1.685,1,1,0,0,0,1.114,1.662,7.991,7.991,0,1,1-2.668,2.985,1,1,0,1,0-1.778-.918A10,10,0,1,0,50,0Z" fill="#262626"/>
        <path id="Path_1263327" data-name="Path 1263327" d="M.419,36.527a2.988,2.988,0,0,0,4.1,1.054L30.583,22.224a3.011,3.011,0,0,0,2.706,3.512,3.079,3.079,0,0,0,3.19-2.357l1.709-6.659a3.006,3.006,0,0,0-2.149-3.658l-6.775-1.739a2.991,2.991,0,0,0-3.741,2.646,3.072,3.072,0,0,0,2.027,3.085L1.475,32.418A3,3,0,0,0,.419,36.527Zm2.069-2.385,28.14-16.58a1,1,0,0,0-.26-1.831l-1.988-.509a1.094,1.094,0,0,1-.863-1.083.976.976,0,0,1,.411-.73.993.993,0,0,1,.576-.183.98.98,0,0,1,.257.033L35.535,15a1,1,0,0,1,.717,1.219l-1.709,6.657a1.089,1.089,0,0,1-1.075.866,1,1,0,0,1-.741-.424.989.989,0,0,1-.159-.817l.551-2.11a1,1,0,0,0-1.475-1.115L3.5,35.858a1,1,0,0,1-1.014-1.716Z" fill="#262626"/>
        <path id="Path_1263328" data-name="Path 1263328" d="M50,4a1,1,0,0,0-1,1v.184A2.993,2.993,0,0,0,50,11a1,1,0,1,1-.867,1.5,1,1,0,0,0-1.731,1A2.993,2.993,0,0,0,49,14.8V15a1,1,0,0,0,2,0v-.184A2.993,2.993,0,0,0,50,9a1,1,0,1,1,.867-1.5,1,1,0,0,0,1.731-1A2.993,2.993,0,0,0,51,5.2V5A1,1,0,0,0,50,4Z" fill="#262626"/>
      </g>
    </g>
  </g>
</svg>
