<svg xmlns="http://www.w3.org/2000/svg" xmlns:xlink="http://www.w3.org/1999/xlink" width="118" height="118" viewBox="0 0 118 118">
  <defs>
    <filter id="Rectangle_411831" x="0" y="0" width="118" height="118" filterUnits="userSpaceOnUse">
      <feOffset dy="3" input="SourceAlpha"/>
      <feGaussianBlur stdDeviation="3" result="blur"/>
      <feFlood flood-opacity="0.161"/>
      <feComposite operator="in" in2="blur"/>
      <feComposite in="SourceGraphic"/>
    </filter>
  </defs>
  <g id="Group_1205735" data-name="Group 1205735" transform="translate(-6275.282 4125)">
    <g id="Group_1205207" data-name="Group 1205207" transform="translate(5483.501 -6081)">
      <g id="Group_1203409" data-name="Group 1203409" transform="translate(465 -1896)">
        <g transform="matrix(1, 0, 0, 1, 326.78, 3852)" filter="url(#Rectangle_411831)">
          <g id="Rectangle_411831-2" data-name="Rectangle 411831" transform="translate(9 6)" fill="#fecb20" stroke="#fff" stroke-width="2">
            <path d="M5,0H68a32,32,0,0,1,32,32V95a5,5,0,0,1-5,5H32A32,32,0,0,1,0,68V5A5,5,0,0,1,5,0Z" stroke="none"/>
            <path d="M5,1H68A31,31,0,0,1,99,32V95a4,4,0,0,1-4,4H32A31,31,0,0,1,1,68V5A4,4,0,0,1,5,1Z" fill="none"/>
          </g>
        </g>
      </g>
    </g>
    <g id="big-data" transform="translate(6302 -4101)">
      <g id="Group_1205733" data-name="Group 1205733">
        <circle id="Ellipse_13696" data-name="Ellipse 13696" cx="12" cy="12" r="12" transform="translate(20 20)" fill="#69d6f4"/>
        <g id="Group_1205732" data-name="Group 1205732">
          <path id="Path_1263296" data-name="Path 1263296" d="M60,38H52a2,2,0,0,1-2-2V28a2,2,0,0,1,2-2h8a2,2,0,0,1,2,2v8A2,2,0,0,1,60,38Z" fill="#fcd770"/>
          <path id="Path_1263297" data-name="Path 1263297" d="M36,62H28a2,2,0,0,1-2-2V52a2,2,0,0,1,2-2h8a2,2,0,0,1,2,2v8A2,2,0,0,1,36,62Z" fill="#fcd770"/>
          <path id="Path_1263298" data-name="Path 1263298" d="M12,38H4a2,2,0,0,1-2-2V28a2,2,0,0,1,2-2h8a2,2,0,0,1,2,2v8A2,2,0,0,1,12,38Z" fill="#fcd770"/>
          <path id="Path_1263299" data-name="Path 1263299" d="M36,14H28a2,2,0,0,1-2-2V4a2,2,0,0,1,2-2h8a2,2,0,0,1,2,2v8A2,2,0,0,1,36,14Z" fill="#fcd770"/>
        </g>
        <circle id="Ellipse_13697" data-name="Ellipse 13697" cx="2" cy="2" r="2" transform="translate(7 58)" fill="#ff826e"/>
        <path id="Path_1263300" data-name="Path 1263300" d="M59,7a3,3,0,0,1,0,6H49a3,3,0,0,1,0-6A5,5,0,0,1,59,7Z" fill="#e6e9ed"/>
        <circle id="Ellipse_13698" data-name="Ellipse 13698" cx="9" cy="9" r="9" transform="translate(2 2)" fill="#e6e9ed"/>
        <path id="Path_1263301" data-name="Path 1263301" d="M11,12a6.984,6.984,0,0,1,6.7,4.99l.01.01c-.12.12-.23.24-.35.36A8.993,8.993,0,0,1,4.29,17l.01-.01A6.984,6.984,0,0,1,11,12Z" fill="#ff826e"/>
        <circle id="Ellipse_13699" data-name="Ellipse 13699" cx="3" cy="3" r="3" transform="translate(8 6)" fill="#f0d0b4"/>
        <path id="Path_1263302" data-name="Path 1263302" d="M62,50V60a2.006,2.006,0,0,1-2,2H46a2.006,2.006,0,0,1-2-2V50a2.006,2.006,0,0,1,2-2H60A2.006,2.006,0,0,1,62,50Z" fill="#f0d0b4"/>
      </g>
      <g id="Group_1205734" data-name="Group 1205734">
        <path id="Path_1263303" data-name="Path 1263303" d="M9,57a3,3,0,1,0,3,3A3,3,0,0,0,9,57Zm0,4a1,1,0,1,1,1-1A1,1,0,0,1,9,61Z"/>
        <path id="Path_1263304" data-name="Path 1263304" d="M4.051,55.05l1.414,1.414a5,5,0,0,1,7.07,0l1.414-1.414a7,7,0,0,0-9.9,0Z"/>
        <path id="Path_1263305" data-name="Path 1263305" d="M1.222,52.222l1.414,1.414a9.012,9.012,0,0,1,12.729,0l1.414-1.414a11.013,11.013,0,0,0-15.557,0Z"/>
        <path id="Path_1263306" data-name="Path 1263306" d="M59,57H57V53H55v4H53V55H51v2H49V51H47v8H59Z"/>
        <path id="Path_1263307" data-name="Path 1263307" d="M60,25H52a3,3,0,0,0-3,3v3H44.949a12.926,12.926,0,0,0-3.088-7.447L51.414,14H59a4,4,0,0,0,.935-7.89,6,6,0,0,0-11.87,0,3.989,3.989,0,0,0,.559,7.852l-8.177,8.177A12.929,12.929,0,0,0,33,19.051V15h3a3,3,0,0,0,3-3V4a3,3,0,0,0-3-3H28a3,3,0,0,0-3,3v8a3,3,0,0,0,3,3h3v4.051a12.926,12.926,0,0,0-7.447,3.088l-4.814-4.815a10.025,10.025,0,1,0-1.415,1.414l4.814,4.815A12.929,12.929,0,0,0,19.05,31H15V28a3,3,0,0,0-3-3H4a3,3,0,0,0-3,3v8a3,3,0,0,0,3,3h8a3,3,0,0,0,3-3V33h4.051a12.926,12.926,0,0,0,3.088,7.447l-6.846,6.846,1.414,1.414,6.846-6.846A12.929,12.929,0,0,0,31,44.949V49H28a3,3,0,0,0-3,3v8a3,3,0,0,0,3,3h8a3,3,0,0,0,3-3V52a3,3,0,0,0-3-3H33V44.949a12.926,12.926,0,0,0,7.447-3.088l5.177,5.177A2.994,2.994,0,0,0,43,50V60a3,3,0,0,0,3,3H60a3,3,0,0,0,3-3V50a3,3,0,0,0-3-3H48.414l-6.553-6.553A12.929,12.929,0,0,0,44.949,33H49v3a3,3,0,0,0,3,3h8a3,3,0,0,0,3-3V28a3,3,0,0,0-3-3ZM37,9H27V7H37ZM28,3h8a1,1,0,0,1,1,1V5H27V4A1,1,0,0,1,28,3Zm-1,9V11H37v1a1,1,0,0,1-1,1H28A1,1,0,0,1,27,12ZM4,27h8a1,1,0,0,1,1,1v1H3V28A1,1,0,0,1,4,27Zm9,4v2H3V31Zm-1,6H4a1,1,0,0,1-1-1V35H13v1A1,1,0,0,1,12,37ZM27,55H37v2H27Zm9,6H28a1,1,0,0,1-1-1V59H37v1A1,1,0,0,1,36,61Zm1-9v1H27V52a1,1,0,0,1,1-1h8A1,1,0,0,1,37,52Zm-5-9c-1.075,0-2.22-1.527-3.009-4H35.01c-.79,2.473-1.935,4-3.01,4Zm-3.519-6a24.8,24.8,0,0,1-.46-4h7.958a24.91,24.91,0,0,1-.46,4Zm-7.43-4h4.971a27.425,27.425,0,0,0,.409,4H22.215a10.881,10.881,0,0,1-1.164-4ZM32,21c1.075,0,2.22,1.527,3.009,4H28.99c.79-2.473,1.935-4,3.01-4Zm3.519,6a24.8,24.8,0,0,1,.46,4H28.021a24.91,24.91,0,0,1,.46-4Zm-9.5,4H21.051a10.9,10.9,0,0,1,1.164-4h4.216a27.288,27.288,0,0,0-.409,4Zm11.956,2h4.971a10.9,10.9,0,0,1-1.164,4H37.569A27.288,27.288,0,0,0,37.978,33Zm0-2a27.425,27.425,0,0,0-.409-4h4.216a10.919,10.919,0,0,1,1.164,4ZM47,10a2,2,0,0,1,2-2h1V7a4,4,0,0,1,7.909-.849A4.007,4.007,0,0,0,55,10h2a2,2,0,1,1,2,2H49A2,2,0,0,1,47,10ZM40.479,25H37.106a13.82,13.82,0,0,0-1.391-3.341A11.049,11.049,0,0,1,40.479,25ZM28.286,21.659A13.86,13.86,0,0,0,26.895,25H23.522A11.037,11.037,0,0,1,28.286,21.659ZM11,3a7.984,7.984,0,0,1,6.905,12.02A8.057,8.057,0,0,0,14,11.619a4,4,0,1,0-6,0,8.062,8.062,0,0,0-3.906,3.4A7.985,7.985,0,0,1,11,3ZM9,9a2,2,0,1,1,2,2A2,2,0,0,1,9,9ZM5.458,16.756a5.967,5.967,0,0,1,11.084,0,7.966,7.966,0,0,1-11.084,0ZM23.521,39h3.373a13.82,13.82,0,0,0,1.391,3.341A11.049,11.049,0,0,1,23.521,39Zm12.193,3.341A13.86,13.86,0,0,0,37.1,39h3.373A11.037,11.037,0,0,1,35.714,42.341ZM61,50V60a1,1,0,0,1-1,1H46a1,1,0,0,1-1-1V50a1,1,0,0,1,1-1H60A1,1,0,0,1,61,50ZM52,27h8a1,1,0,0,1,1,1v1H51V28A1,1,0,0,1,52,27Zm9,4v2H51V31Zm-1,6H52a1,1,0,0,1-1-1V35H61v1A1,1,0,0,1,60,37Z"/>
      </g>
    </g>
  </g>
</svg>
