<svg xmlns="http://www.w3.org/2000/svg" width="89.444" height="89.444" viewBox="0 0 89.444 89.444">
  <g id="Group_1205694" data-name="Group 1205694" transform="translate(-1071 -4902)">
    <g id="Group_1205693" data-name="Group 1205693" transform="translate(316)">
      <g id="Group_1205193" data-name="Group 1205193" transform="translate(-266.967 1809.345)">
        <g id="Group_1200255" data-name="Group 1200255" transform="translate(1021.967 3092.655)">
          <g id="Group_1187152" data-name="Group 1187152" transform="translate(0 0)">
            <g id="Group_1185946" data-name="Group 1185946">
              <g id="Group_1184280" data-name="Group 1184280">
                <g id="Group_1182168" data-name="Group 1182168">
                  <g id="Group_1178877" data-name="Group 1178877">
                    <g id="Group_1111311" data-name="Group 1111311">
                      <g id="Group_1098742" data-name="Group 1098742" transform="translate(0 0)">
                        <g id="Rectangle_400898" data-name="Rectangle 400898" transform="translate(0.001 0)" fill="#fecb20" stroke="#7f75a8" stroke-width="1" opacity="0.859">
                          <rect width="89.444" height="89.444" rx="44.722" stroke="none"/>
                          <rect x="0.5" y="0.5" width="88.444" height="88.444" rx="44.222" fill="none"/>
                        </g>
                        <g id="Rectangle_400907" data-name="Rectangle 400907" transform="translate(0 0)" fill="none" stroke="#7f75a8" stroke-width="1">
                          <rect width="89.444" height="89.444" rx="44.722" stroke="none"/>
                          <rect x="0.5" y="0.5" width="88.444" height="88.444" rx="44.222" fill="none"/>
                        </g>
                      </g>
                    </g>
                  </g>
                </g>
              </g>
            </g>
          </g>
        </g>
      </g>
    </g>
    <g id="Fill_out_line" data-name="Fill out line" transform="translate(1071.778 4906.556)">
      <path id="Path_1263200" data-name="Path 1263200" d="M108.355,264l-2.042,1.848L88.95,281.557v8.317H83.406v-8.317L66.042,265.848,64,264Z" transform="translate(-42.456 -219.354)" fill="#f5e3a1"/>
      <rect id="Rectangle_426004" data-name="Rectangle 426004" width="53.451" height="3.563" rx="1.782" transform="translate(16.806 41.156)" fill="#f5e3a1"/>
      <path id="Path_1263201" data-name="Path 1263201" d="M40.633,42.481h-3.7v2.772l-2.772-2.772H24V24H40.633Z" transform="translate(-7.076 -7.076)" fill="#a9ca2a"/>
      <path id="Path_1263202" data-name="Path 1263202" d="M344,42.481h4.62v2.772l2.772-2.772h9.241V24H344Z" transform="translate(-290.113 -7.076)" fill="#91d3ee"/>
      <path id="Path_1263203" data-name="Path 1263203" d="M84.62,55.393l.924-3.7.924-.924L85.544,48h-3.7L80,54.469Z" transform="translate(-56.607 -28.304)" fill="#fcd6b7"/>
      <path id="Path_1263204" data-name="Path 1263204" d="M65.139,97l-.822,2.057H56V95.607a4.184,4.184,0,0,1,1.675-3.349l.427-.321a4.189,4.189,0,0,1,3.528-.713l.638.159A4.188,4.188,0,0,1,65.139,97Z" transform="translate(-35.38 -66.425)" fill="#91d3ee"/>
      <path id="Path_1263205" data-name="Path 1263205" d="M380.62,48A4.621,4.621,0,0,0,376,52.62c0,2.552,4.62,8.317,4.62,8.317s4.62-5.765,4.62-8.317a4.621,4.621,0,0,0-4.62-4.62Zm0,6.469a1.848,1.848,0,1,1,1.848-1.848A1.848,1.848,0,0,1,380.62,54.469Z" transform="translate(-318.417 -28.304)" fill="#eb4042"/>
      <path id="Path_1263206" data-name="Path 1263206" d="M206.785,42.481h-6.469l-2.772,2.772V42.481H192V24h14.785Z" transform="translate(-155.67 -7.076)" fill="#e1ddef"/>
      <path id="Path_1263207" data-name="Path 1263207" d="M16.924,36.33h9.782l2.5,2.5a.924.924,0,0,0,1.578-.653V36.33h2.772a.924.924,0,0,0,.924-.924V16.924A.924.924,0,0,0,33.557,16H16.924a.924.924,0,0,0-.924.924V35.406a.924.924,0,0,0,.924.924Zm.924-18.481H32.633V34.481H29.861a.924.924,0,0,0-.924.924v.541l-1.195-1.195a.924.924,0,0,0-.653-.271H17.848Z"/>
      <path id="Path_1263208" data-name="Path 1263208" d="M353.557,16H336.924a.924.924,0,0,0-.924.924V35.406a.924.924,0,0,0,.924.924h3.7v1.848a.924.924,0,0,0,1.578.653l2.5-2.5h8.858a.924.924,0,0,0,.924-.924V16.924A.924.924,0,0,0,353.557,16Zm-.924,18.481h-8.317a.924.924,0,0,0-.653.271l-1.195,1.195v-.541a.924.924,0,0,0-.924-.924h-3.7V17.848h14.785Z" transform="translate(-283.037)"/>
      <path id="Path_1263209" data-name="Path 1263209" d="M58.1,54.2l.823-2.057a5.105,5.105,0,0,0-1.131-5.512c-.026-.026-.054-.05-.081-.076l.366-1.466.743-.743a.924.924,0,0,0,.223-.946l-.519-1.556h.566V40H53.544a.924.924,0,0,0-.889.67l-1.382,4.838a5.147,5.147,0,0,0-.8.492l-.427.32A5.135,5.135,0,0,0,48,50.41v3.451a.924.924,0,0,0,.924.924h8.317A.924.924,0,0,0,58.1,54.2ZM54.241,41.848h2.333l.533,1.6-.52.52a.924.924,0,0,0-.243.429L56.068,45.5a5.11,5.11,0,0,0-.652-.211l-.638-.159a5.129,5.129,0,0,0-1.431-.15Zm2.374,11.089H53.748l.7-3.515-1.812-.362-.776,3.878H49.848V50.41a3.278,3.278,0,0,1,1.305-2.61l.427-.32a3.249,3.249,0,0,1,2.749-.555l.638.159a3.263,3.263,0,0,1,2.238,4.377Z" transform="translate(-28.304 -21.228)"/>
      <path id="Path_1263210" data-name="Path 1263210" d="M373.544,54.785a.924.924,0,0,0,.721-.346c.494-.616,4.823-6.1,4.823-8.894a5.544,5.544,0,0,0-11.089,0c0,2.8,4.33,8.279,4.823,8.895a.924.924,0,0,0,.721.346Zm0-12.937a3.7,3.7,0,0,1,3.7,3.7c0,1.406-2.041,4.595-3.7,6.806-1.656-2.211-3.7-5.4-3.7-6.806A3.7,3.7,0,0,1,373.544,41.848Z" transform="translate(-311.341 -21.228)"/>
      <path id="Path_1263211" data-name="Path 1263211" d="M397.544,66.772a2.772,2.772,0,1,0-2.772,2.772A2.772,2.772,0,0,0,397.544,66.772Zm-3.7,0a.924.924,0,1,1,.924.924A.924.924,0,0,1,393.848,66.772Z" transform="translate(-332.569 -42.456)"/>
      <path id="Path_1263212" data-name="Path 1263212" d="M184.924,36.33h4.62v1.848a.924.924,0,0,0,1.578.653l2.5-2.5h6.086a.924.924,0,0,0,.924-.924V16.924a.924.924,0,0,0-.924-.924H184.924a.924.924,0,0,0-.924.924V35.406a.924.924,0,0,0,.924.924Zm.924-18.481h12.937V34.481h-5.544a.924.924,0,0,0-.653.271l-1.195,1.195v-.541a.924.924,0,0,0-.924-.924h-4.62Z" transform="translate(-148.594)"/>
      <path id="Path_1263213" data-name="Path 1263213" d="M216,144h9.241v1.848H216Z" transform="translate(-176.898 -113.215)"/>
      <path id="Path_1263214" data-name="Path 1263214" d="M216,104h1.848v3.7H216Z" transform="translate(-176.898 -77.835)"/>
      <path id="Path_1263215" data-name="Path 1263215" d="M248,80h1.848v6.469H248Z" transform="translate(-205.202 -56.607)"/>
      <path id="Path_1263216" data-name="Path 1263216" d="M280,64h1.848v8.317H280Z" transform="translate(-233.506 -42.456)"/>
      <path id="Path_1263217" data-name="Path 1263217" d="M68.672,224h-49.9a2.772,2.772,0,0,0,0,5.544h2.416l18.837,17.043v7.907a.924.924,0,0,0,.924.924h5.544a.924.924,0,0,0,.924-.924v-7.907l18.837-17.043h2.416a2.772,2.772,0,1,0,0-5.544Zm0,3.7H43.722v1.848H63.5L46.138,245.254H43.722V247.1H45.57v6.468h-3.7v-7.393a.924.924,0,0,0-.3-.685L23.943,229.544h1.3V227.7H18.772a.924.924,0,0,1,0-1.848h49.9a.924.924,0,1,1,0,1.848Z" transform="translate(0 -183.974)"/>
    </g>
  </g>
</svg>
