<svg xmlns="http://www.w3.org/2000/svg" xmlns:xlink="http://www.w3.org/1999/xlink" width="118" height="118" viewBox="0 0 118 118">
  <defs>
    <filter id="Rectangle_411831" x="0" y="0" width="118" height="118" filterUnits="userSpaceOnUse">
      <feOffset dy="3" input="SourceAlpha"/>
      <feGaussianBlur stdDeviation="3" result="blur"/>
      <feFlood flood-opacity="0.161"/>
      <feComposite operator="in" in2="blur"/>
      <feComposite in="SourceGraphic"/>
    </filter>
  </defs>
  <g id="Group_1205721" data-name="Group 1205721" transform="translate(-787 -7472)">
    <g id="Group_1205201" data-name="Group 1205201" transform="translate(-4.781 5516)">
      <g id="Group_1203409" data-name="Group 1203409" transform="translate(465 -1896)">
        <g transform="matrix(1, 0, 0, 1, 326.78, 3852)" filter="url(#Rectangle_411831)">
          <g id="Rectangle_411831-2" data-name="Rectangle 411831" transform="translate(9 6)" fill="#fecb20" stroke="#fff" stroke-width="2">
            <path d="M5,0H68a32,32,0,0,1,32,32V95a5,5,0,0,1-5,5H32A32,32,0,0,1,0,68V5A5,5,0,0,1,5,0Z" stroke="none"/>
            <path d="M5,1H68A31,31,0,0,1,99,32V95a4,4,0,0,1-4,4H32A31,31,0,0,1,1,68V5A4,4,0,0,1,5,1Z" fill="none"/>
          </g>
        </g>
      </g>
    </g>
    <g id="datos" transform="translate(815.841 7486.001)">
      <g id="Group_1205720" data-name="Group 1205720" transform="translate(-3.841 9.083)">
        <g id="Group_1205714" data-name="Group 1205714" transform="translate(21.095 38.79)">
          <path id="Path_1263241" data-name="Path 1263241" d="M179.023,306.557v17.6c0,2.392-6.091,4.33-13.605,4.33s-13.605-1.939-13.605-4.33v-17.6c0-2.392,6.091-4.33,13.605-4.33S179.023,304.166,179.023,306.557Z" transform="translate(-151.813 -302.227)" fill="#ffe177" fill-rule="evenodd"/>
          <path id="Path_1263242" data-name="Path 1263242" d="M259.149,306.557v17.6c0,2.392-6.091,4.33-13.605,4.33q-.527,0-1.044-.013c7.026-.17,12.561-2.038,12.561-4.318v-17.6c0-2.28-5.535-4.148-12.561-4.318q.517-.012,1.044-.013C253.058,302.227,259.149,304.166,259.149,306.557Z" transform="translate(-231.939 -302.227)" fill="#ffd064" fill-rule="evenodd"/>
          <path id="Path_1263243" data-name="Path 1263243" d="M151.813,342.978c0,2.392,6.091,4.33,13.605,4.33s13.605-1.939,13.605-4.33v-8.8c0,2.392-6.091,4.33-13.605,4.33s-13.605-1.939-13.605-4.33Z" transform="translate(-151.813 -329.848)" fill="#ffd064" fill-rule="evenodd"/>
          <path id="Path_1263244" data-name="Path 1263244" d="M337.188,345.284c1.322-.668,2.087-1.458,2.087-2.306v-8.8c0,.847-.766,1.638-2.087,2.306Z" transform="translate(-312.065 -329.848)" fill="#ffc338" fill-rule="evenodd"/>
        </g>
        <g id="Group_1205715" data-name="Group 1205715" transform="translate(0 2.566)">
          <circle id="Ellipse_13693" data-name="Ellipse 13693" cx="10.032" cy="10.032" r="10.032" transform="translate(0 5.538) rotate(-16.024)" fill="#8ac9fe"/>
        </g>
        <g id="Group_1205719" data-name="Group 1205719" transform="translate(25.528 0)">
          <g id="Group_1205717" data-name="Group 1205717">
            <path id="Path_1263245" data-name="Path 1263245" d="M185.472,16h12.419a.917.917,0,0,1,.671.278l4.027,4.027a.917.917,0,0,1,.278.671v20.08a.951.951,0,0,1-.949.949H185.472a.951.951,0,0,1-.949-.949V16.949a.951.951,0,0,1,.949-.949Z" transform="translate(-184.523 -16)" fill="#eceff1" fill-rule="evenodd"/>
            <g id="Group_1205716" data-name="Group 1205716">
              <path id="Path_1263246" data-name="Path 1263246" d="M185.472,16h.809V42.005h-.809a.951.951,0,0,1-.949-.949V16.949a.951.951,0,0,1,.949-.949Z" transform="translate(-184.523 -16)" fill="#d1d1d6" fill-rule="evenodd"/>
              <path id="Path_1263247" data-name="Path 1263247" d="M286.608,21.107h3.958a.954.954,0,0,0-.2-.278L286.344,16.8a.95.95,0,0,0-.278-.2v3.958A.543.543,0,0,0,286.608,21.107Z" transform="translate(-272.305 -16.525)" fill="#d1d1d6" fill-rule="evenodd"/>
            </g>
          </g>
          <g id="Group_1205718" data-name="Group 1205718" transform="translate(22.489 3.343)">
            <path id="Path_1263248" data-name="Path 1263248" d="M352.178,40.669h16.3a1.715,1.715,0,0,1,1.71,1.71V67.566a1.715,1.715,0,0,1-1.71,1.71h-16.3a1.715,1.715,0,0,1-1.71-1.71V42.379a1.715,1.715,0,0,1,1.71-1.71Z" transform="translate(-350.468 -40.669)" fill="#837683" fill-rule="evenodd"/>
            <path id="Path_1263249" data-name="Path 1263249" d="M369,40.9a1.716,1.716,0,0,1,1.386,1.679V67.764a1.715,1.715,0,0,1-1.71,1.71h-16.3a1.716,1.716,0,0,1-1.679-1.386,1.7,1.7,0,0,0,.323.031h16.3a1.715,1.715,0,0,0,1.71-1.71V41.221A1.7,1.7,0,0,0,369,40.9Z" transform="translate(-350.666 -40.867)" fill="#685e68" fill-rule="evenodd"/>
            <path id="Path_1263250" data-name="Path 1263250" d="M392.1,107.89a4.9,4.9,0,0,1,4.879,4.5.368.368,0,0,1-.367.4h-9.024a.368.368,0,0,1-.367-.4A4.9,4.9,0,0,1,392.1,107.89Z" transform="translate(-382.242 -98.78)" fill="#60b7ff" fill-rule="evenodd"/>
            <path id="Path_1263251" data-name="Path 1263251" d="M420.885,107.89a4.9,4.9,0,0,1,4.879,4.5.368.368,0,0,1-.367.4h-.737a.368.368,0,0,0,.367-.4,4.9,4.9,0,0,0-4.511-4.483Q420.7,107.89,420.885,107.89Z" transform="translate(-411.024 -98.78)" fill="#41a8fc" fill-rule="evenodd"/>
            <circle id="Ellipse_13694" data-name="Ellipse 13694" cx="2.475" cy="2.475" r="2.475" transform="translate(7.349 3.853) rotate(-1.203)" fill="#f6dccd"/>
            <path id="Path_1263252" data-name="Path 1263252" d="M421.734,68.772a2.475,2.475,0,0,1,0,4.95c-.079,0-.158,0-.235-.011a2.475,2.475,0,0,0,0-4.927Q421.615,68.772,421.734,68.772Z" transform="translate(-411.873 -64.963)" fill="#f1cbbc" fill-rule="evenodd"/>
          </g>
        </g>
      </g>
      <path id="Path_1263253" data-name="Path 1263253" d="M64.276,22.418a3.816,3.816,0,0,1,3.653,2.725H60.623A3.815,3.815,0,0,1,64.276,22.418Zm0-4.949a1.39,1.39,0,1,1-1.391,1.39A1.391,1.391,0,0,1,64.276,17.468Zm-4.894,9.843H69.17a1.084,1.084,0,0,0,1.084-1.084,5.983,5.983,0,0,0-3.121-5.25,3.56,3.56,0,1,0-5.715,0,5.983,5.983,0,0,0-3.121,5.25A1.084,1.084,0,0,0,59.382,27.311ZM70.841,31.8a1.084,1.084,0,0,1-1.084,1.084H58.795a1.084,1.084,0,1,1,0-2.168H69.757A1.085,1.085,0,0,1,70.841,31.8Zm0,3.982a1.084,1.084,0,0,1-1.084,1.084H58.795a1.084,1.084,0,1,1,0-2.168H69.757A1.084,1.084,0,0,1,70.841,35.786Zm2.212,3.539V14.137a.633.633,0,0,0-.624-.626H56.123a.633.633,0,0,0-.624.626V39.324a.633.633,0,0,0,.624.625H72.428A.633.633,0,0,0,73.053,39.324Zm-.624-27.981H56.123a2.8,2.8,0,0,0-2.793,2.794V39.324a2.8,2.8,0,0,0,2.793,2.793H72.428a2.8,2.8,0,0,0,2.793-2.793V14.137a2.8,2.8,0,0,0-2.793-2.794ZM24.209,59.517a1.085,1.085,0,0,1-.475.9l-3.832,2.6a1.085,1.085,0,0,1-1.218-1.8L19.6,60.6H13.912a1.084,1.084,0,0,1-1.084-1.084V39.678a1.084,1.084,0,1,1,2.168,0V58.433h4.6l-.912-.619A1.084,1.084,0,0,1,19.9,56.019l3.832,2.6A1.085,1.085,0,0,1,24.209,59.517ZM69.365,45.275V59.517A1.084,1.084,0,0,1,68.281,60.6H62.6l.912.618a1.085,1.085,0,1,1-1.217,1.8l-3.832-2.6a1.084,1.084,0,0,1,0-1.794l3.832-2.6a1.084,1.084,0,1,1,1.217,1.794l-.912.619h4.6V45.275a1.084,1.084,0,0,1,2.168,0ZM42.181,37.729v3.926l.619-.912a1.084,1.084,0,1,1,1.794,1.217l-2.6,3.833a1.084,1.084,0,0,1-1.794,0L37.6,41.96a1.084,1.084,0,1,1,1.794-1.217l.619.912V37.729a1.084,1.084,0,1,1,2.168,0Zm4.939-10.973a1.085,1.085,0,0,1-1.084,1.084H36.159a1.084,1.084,0,1,1,0-2.168h9.876A1.085,1.085,0,0,1,47.119,26.756Zm0-8.749a1.085,1.085,0,0,1-1.084,1.084H36.159a1.084,1.084,0,1,1,0-2.168h9.876A1.084,1.084,0,0,1,47.119,18.006ZM35.075,13.632a1.084,1.084,0,0,1,1.084-1.084h6.108a1.084,1.084,0,1,1,0,2.169H36.159A1.084,1.084,0,0,1,35.075,13.632Zm12.045,8.749a1.085,1.085,0,0,1-1.084,1.084H36.159a1.084,1.084,0,1,1,0-2.169h9.876A1.085,1.085,0,0,1,47.119,22.381Zm0,8.749a1.086,1.086,0,0,1-1.084,1.084H36.159a1.084,1.084,0,1,1,0-2.169h9.876A1.085,1.085,0,0,1,47.119,31.13ZM33.009,10.168V34H49.185V14.751h-3.5A1.084,1.084,0,0,1,44.6,13.667v-3.5ZM46.77,11.7l.882.882H46.77ZM31.925,36.173H50.269a1.085,1.085,0,0,0,1.084-1.084V13.667a1.085,1.085,0,0,0-.317-.767L46.453,8.317A1.084,1.084,0,0,0,45.686,8H31.925A1.084,1.084,0,0,0,30.84,9.083V35.089a1.085,1.085,0,0,0,1.084,1.084ZM25.5,29.359c-.312-.158-.639-.3-.977-.439a12.4,12.4,0,0,0,.949-3.807h1.818A8.554,8.554,0,0,1,25.5,29.359ZM10.241,25.113h1.817a12.441,12.441,0,0,0,.949,3.807c-.338.134-.665.281-.977.439A8.553,8.553,0,0,1,10.241,25.113ZM12.03,18.7c.311.159.635.3.972.438a12.336,12.336,0,0,0-.946,3.81H10.241A8.564,8.564,0,0,1,12.03,18.7Zm7.82,4.247V20.133a16.41,16.41,0,0,0,2.591-.358,10.145,10.145,0,0,1,.858,3.17Zm0,4.981V25.113H23.3a10.248,10.248,0,0,1-.861,3.169A16.361,16.361,0,0,0,19.85,27.925Zm3.641,2.922c.112.041.222.083.33.127a8.219,8.219,0,0,1-.775.5C23.2,31.273,23.35,31.061,23.491,30.847Zm-3.641.9V30.1c.47.032.936.086,1.393.161A10.159,10.159,0,0,1,19.85,31.743Zm-5.365-.266a8.4,8.4,0,0,1-.775-.5c.109-.045.219-.087.331-.127C14.182,31.061,14.33,31.273,14.485,31.477Zm3.2-1.374v1.64a10.153,10.153,0,0,1-1.393-1.479C16.746,30.19,17.211,30.136,17.682,30.1Zm0-4.99v2.812a16.386,16.386,0,0,0-2.585.356,10.251,10.251,0,0,1-.861-3.169Zm0-4.98v2.812H14.233a10.16,10.16,0,0,1,.859-3.17A16.446,16.446,0,0,0,17.682,20.133Zm-3.645-2.923q-.165-.061-.327-.126a8.507,8.507,0,0,1,.767-.5C14.324,16.788,14.177,17,14.037,17.209Zm3.645-.9v1.643c-.471-.032-.939-.087-1.4-.163A10.263,10.263,0,0,1,17.682,16.312Zm5.373.273a8.515,8.515,0,0,1,.767.5q-.161.065-.327.126c-.14-.213-.287-.422-.44-.625Zm-3.2-.273a10.28,10.28,0,0,1,1.4,1.48c-.457.076-.925.13-1.4.163Zm7.441,6.633H25.476a12.318,12.318,0,0,0-.945-3.81c.336-.133.661-.279.972-.438a8.565,8.565,0,0,1,1.789,4.247Zm-8.525-9.68A10.765,10.765,0,1,0,29.53,24.029,10.777,10.777,0,0,0,18.766,13.264Zm24.777,56.47a1.084,1.084,0,0,1-1.084,1.084H39.735a1.084,1.084,0,1,1,0-2.168H42.46A1.085,1.085,0,0,1,43.543,69.734Zm0-8.8a1.084,1.084,0,0,1-1.084,1.084H39.735a1.084,1.084,0,1,1,0-2.168H42.46A1.084,1.084,0,0,1,43.543,60.935Zm6.845-6.7A31.952,31.952,0,0,1,41.1,55.45a31.947,31.947,0,0,1-9.291-1.217c-2.369-.755-3.23-1.626-3.23-2.029s.861-1.275,3.23-2.029A31.953,31.953,0,0,1,41.1,48.958a31.947,31.947,0,0,1,9.291,1.217c2.37.754,3.23,1.626,3.23,2.029S52.758,53.478,50.388,54.233Zm0,8.8c2.37-.754,3.23-1.626,3.23-2.029V55.2a12.622,12.622,0,0,1-2.572,1.1A34.173,34.173,0,0,1,41.1,57.619,34.177,34.177,0,0,1,31.148,56.3a12.645,12.645,0,0,1-2.572-1.1V61c0,.4.861,1.275,3.23,2.029A31.913,31.913,0,0,0,41.1,64.251,31.911,31.911,0,0,0,50.388,63.033Zm0,8.8c2.37-.755,3.23-1.626,3.23-2.029V64a12.474,12.474,0,0,1-2.572,1.1A34.114,34.114,0,0,1,41.1,66.42a34.118,34.118,0,0,1-9.949-1.32A12.5,12.5,0,0,1,28.576,64V69.8c0,.4.861,1.274,3.23,2.029A31.958,31.958,0,0,0,41.1,73.051,31.957,31.957,0,0,0,50.388,71.834Zm.658-23.725A34.127,34.127,0,0,0,41.1,46.79a34.131,34.131,0,0,0-9.949,1.319c-3.918,1.247-4.74,2.915-4.74,4.1V69.8c0,1.179.822,2.847,4.74,4.1A34.173,34.173,0,0,0,41.1,75.219,34.173,34.173,0,0,0,51.046,73.9c3.918-1.248,4.74-2.916,4.74-4.1V52.2C55.786,51.024,54.964,49.356,51.046,48.109Z" transform="translate(-10.238)" fill-rule="evenodd"/>
    </g>
  </g>
</svg>
