<svg xmlns="http://www.w3.org/2000/svg" xmlns:xlink="http://www.w3.org/1999/xlink" width="118" height="118" viewBox="0 0 118 118">
  <defs>
    <filter id="Rectangle_411831" x="0" y="0" width="118" height="118" filterUnits="userSpaceOnUse">
      <feOffset dy="3" input="SourceAlpha"/>
      <feGaussianBlur stdDeviation="3" result="blur"/>
      <feFlood flood-opacity="0.161"/>
      <feComposite operator="in" in2="blur"/>
      <feComposite in="SourceGraphic"/>
    </filter>
  </defs>
  <g id="Group_1205579" data-name="Group 1205579" transform="translate(6469.153 1709)">
    <g id="Group_1204663" data-name="Group 1204663" transform="translate(-7260.935 -3665)">
      <g id="Group_1203409" data-name="Group 1203409" transform="translate(465 -1896)">
        <g transform="matrix(1, 0, 0, 1, 326.78, 3852)" filter="url(#Rectangle_411831)">
          <g id="Rectangle_411831-2" data-name="Rectangle 411831" transform="translate(9 6)" fill="#fecb20" stroke="#fff" stroke-width="2">
            <path d="M5,0H68a32,32,0,0,1,32,32V95a5,5,0,0,1-5,5H32A32,32,0,0,1,0,68V5A5,5,0,0,1,5,0Z" stroke="none"/>
            <path d="M5,1H68A31,31,0,0,1,99,32V95a4,4,0,0,1-4,4H32A31,31,0,0,1,1,68V5A4,4,0,0,1,5,1Z" fill="none"/>
          </g>
        </g>
      </g>
    </g>
    <g id="hoja-de-calculo" transform="translate(-6441.729 -1703.852)">
      <path id="Path_1261772" data-name="Path 1261772" d="M64.879,160.286v38.258h45.809V160.286" transform="translate(-57.104 -119.904)" fill="#fb9138"/>
      <g id="Group_1205576" data-name="Group 1205576" transform="translate(7.775 40.382)">
        <path id="Path_1261773" data-name="Path 1261773" d="M84.889,399.728v6.8H64.879v2.769h22.9v-9.564Z" transform="translate(-64.879 -371.035)" fill="#fdb275"/>
        <path id="Path_1261774" data-name="Path 1261774" d="M84.889,319.914v6.67H64.879v2.894h22.9v-9.564Z" transform="translate(-64.879 -300.785)" fill="#fdb275"/>
        <path id="Path_1261775" data-name="Path 1261775" d="M84.889,240.1v6.67H64.879v2.895h22.9V240.1Z" transform="translate(-64.879 -230.536)" fill="#fdb275"/>
        <path id="Path_1261776" data-name="Path 1261776" d="M84.889,160.286v6.8H64.879v2.769h22.9v-9.564Z" transform="translate(-64.879 -160.286)" fill="#fdb275"/>
        <path id="Path_1261777" data-name="Path 1261777" d="M276.149,399.728v6.8H256.013v2.769h22.9v-9.564Z" transform="translate(-233.109 -371.035)" fill="#fdb275"/>
        <path id="Path_1261778" data-name="Path 1261778" d="M276.149,319.914v6.67H256.013v2.894h22.9v-9.564Z" transform="translate(-233.109 -300.785)" fill="#fdb275"/>
        <path id="Path_1261779" data-name="Path 1261779" d="M276.149,240.1v6.67H256.013v2.895h22.9V240.1Z" transform="translate(-233.109 -230.536)" fill="#fdb275"/>
        <path id="Path_1261780" data-name="Path 1261780" d="M276.149,160.286v6.8H256.013v2.769h22.9v-9.564Z" transform="translate(-233.109 -160.286)" fill="#fdb275"/>
      </g>
      <rect id="Rectangle_425979" data-name="Rectangle 425979" width="59.467" height="15.346" transform="translate(0.944 25.001)" fill="#02e7e7"/>
      <g id="Group_1205577" data-name="Group 1205577" transform="translate(4.78 28.837)">
        <rect id="Rectangle_425980" data-name="Rectangle 425980" width="25.897" height="11.51" transform="translate(0 0)" fill="#acf0f2"/>
        <rect id="Rectangle_425981" data-name="Rectangle 425981" width="25.897" height="11.51" transform="translate(29.733 0)" fill="#acf0f2"/>
      </g>
      <path id="Path_1261781" data-name="Path 1261781" d="M102.412,176.038v6.67H81.27v-6.67H79.382v6.67H58.366v-6.67H56.478v37.377H104.3V176.038Zm0,8.558v7.8H81.27v-7.8Zm-21.142,9.69h21.142v7.677H81.27v-7.677Zm-1.888,7.677H58.366v-7.677H79.382Zm0-17.367v7.8H58.366v-7.8ZM58.366,203.85H79.382v7.677H58.366Zm22.9,7.677V203.85h21.142v7.677Z" transform="translate(-49.71 -133.769)"/>
      <g id="Group_1205578" data-name="Group 1205578" transform="translate(3.873 27.923)">
        <path id="Path_1261782" data-name="Path 1261782" d="M34.212,60.218H32.324v-3.9H36.98V58.2H34.212Z" transform="translate(-32.324 -56.317)" fill="#fff"/>
        <rect id="Rectangle_425982" data-name="Rectangle 425982" width="7.677" height="1.888" transform="translate(6.67)" fill="#fff"/>
        <rect id="Rectangle_425983" data-name="Rectangle 425983" width="2.014" height="1.888" transform="translate(16.234)" fill="#fff"/>
        <path id="Path_1261783" data-name="Path 1261783" d="M282.055,60.218h-1.888v-3.9h4.656V58.2h-2.769Z" transform="translate(-250.467 -56.317)" fill="#fff"/>
        <rect id="Rectangle_425984" data-name="Rectangle 425984" width="7.677" height="1.888" transform="translate(36.37)" fill="#fff"/>
        <rect id="Rectangle_425985" data-name="Rectangle 425985" width="1.888" height="1.888" transform="translate(46.06)" fill="#fff"/>
        <path id="Path_1261784" data-name="Path 1261784" d="M218.875,443.579h-2.769v-1.888h.881v-1.007h1.888Z" transform="translate(-194.083 -394.625)" fill="#fff"/>
        <path id="Path_1261785" data-name="Path 1261785" d="M411.184,443.579H408.29v-1.888H409.3v-1.007h1.888Z" transform="translate(-363.237 -394.625)" fill="#fff"/>
        <path id="Path_1261786" data-name="Path 1261786" d="M218.875,362.715h-2.769v-1.888h.881v-1.007h1.888Z" transform="translate(-194.083 -323.451)" fill="#fff"/>
        <path id="Path_1261787" data-name="Path 1261787" d="M411.184,362.715H408.29v-1.888H409.3v-1.007h1.888Z" transform="translate(-363.237 -323.451)" fill="#fff"/>
        <path id="Path_1261788" data-name="Path 1261788" d="M218.875,282.9h-2.769v-1.888h.881v-1.007h1.888Z" transform="translate(-194.083 -253.201)" fill="#fff"/>
        <path id="Path_1261789" data-name="Path 1261789" d="M411.184,282.9H408.29v-1.888H409.3v-1.007h1.888Z" transform="translate(-363.237 -253.201)" fill="#fff"/>
        <path id="Path_1261790" data-name="Path 1261790" d="M218.875,203.087h-2.769V201.2h.881v-1.007h1.888Z" transform="translate(-194.083 -182.952)" fill="#fff"/>
        <path id="Path_1261791" data-name="Path 1261791" d="M411.184,203.087H408.29V201.2H409.3v-1.007h1.888Z" transform="translate(-363.237 -182.952)" fill="#fff"/>
      </g>
      <path id="Path_1261792" data-name="Path 1261792" d="M0,24.057V41.291H61.355V24.057ZM59.467,39.4H1.888V25.945H29.672V38.368H31.56V25.945H59.467V39.4Z"/>
    </g>
  </g>
</svg>
