<svg xmlns="http://www.w3.org/2000/svg" xmlns:xlink="http://www.w3.org/1999/xlink" width="118" height="118" viewBox="0 0 118 118">
  <defs>
    <filter id="Rectangle_411831" x="0" y="0" width="118" height="118" filterUnits="userSpaceOnUse">
      <feOffset dy="3" input="SourceAlpha"/>
      <feGaussianBlur stdDeviation="3" result="blur"/>
      <feFlood flood-opacity="0.161"/>
      <feComposite operator="in" in2="blur"/>
      <feComposite in="SourceGraphic"/>
    </filter>
  </defs>
  <g id="Group_1205582" data-name="Group 1205582" transform="translate(6135.153 1709)">
    <g id="Group_1204664" data-name="Group 1204664" transform="translate(-6926.935 -3665)">
      <g id="Group_1203409" data-name="Group 1203409" transform="translate(465 -1896)">
        <g transform="matrix(1, 0, 0, 1, 326.78, 3852)" filter="url(#Rectangle_411831)">
          <g id="Rectangle_411831-2" data-name="Rectangle 411831" transform="translate(9 6)" fill="#fecb20" stroke="#fff" stroke-width="2">
            <path d="M5,0H68a32,32,0,0,1,32,32V95a5,5,0,0,1-5,5H32A32,32,0,0,1,0,68V5A5,5,0,0,1,5,0Z" stroke="none"/>
            <path d="M5,1H68A31,31,0,0,1,99,32V95a4,4,0,0,1-4,4H32A31,31,0,0,1,1,68V5A4,4,0,0,1,5,1Z" fill="none"/>
          </g>
        </g>
      </g>
    </g>
    <g id="celulas" transform="translate(-6108.426 -1693.744)">
      <g id="Group_1205580" data-name="Group 1205580" transform="translate(5.224 15.456)">
        <rect id="Rectangle_425986" data-name="Rectangle 425986" width="33.356" height="33.473" transform="translate(0 0)" fill="#fff"/>
        <rect id="Rectangle_425987" data-name="Rectangle 425987" width="33.356" height="33.473" transform="translate(20.907 16.736)" fill="#fff"/>
      </g>
      <path id="Path_1261793" data-name="Path 1261793" d="M46.362,17.443H11.177a3.314,3.314,0,0,0-3.315,3.315V57.365a3.314,3.314,0,0,0,3.315,3.315H46.362a3.315,3.315,0,0,0,3.315-3.315V20.758A3.315,3.315,0,0,0,46.362,17.443ZM14.491,36.77H25.455v4.583H14.491Zm28.556-6.629H32.084V24.072H43.048ZM25.455,24.072v6.068H14.491V24.072ZM14.491,47.982H25.455V54.05H14.491Z" transform="translate(-6.868 -6.869)" fill="#b4bbcc"/>
      <path id="Path_1261794" data-name="Path 1261794" d="M212,152.68H176.816a3.314,3.314,0,0,0-3.315,3.315V192.6a3.314,3.314,0,0,0,3.315,3.315H212a3.315,3.315,0,0,0,3.315-3.315V155.995A3.315,3.315,0,0,0,212,152.68Zm-14.278,19.327h10.964v4.583H197.723Zm10.964-6.629H197.723v-6.068h10.964ZM180.13,183.219h10.964v6.068H180.13Zm17.593,6.068v-6.068h10.964v6.068Z" transform="translate(-151.559 -125.003)" fill="#c7cfe2"/>
      <g id="Group_1205581" data-name="Group 1205581" transform="translate(28.571 34.307)">
        <rect id="Rectangle_425988" data-name="Rectangle 425988" width="10.963" height="4.583" transform="translate(0 12.697)" fill="#7dd2f0"/>
        <rect id="Rectangle_425989" data-name="Rectangle 425989" width="10.963" height="6.068" transform="translate(0 0)" fill="#7dd2f0"/>
      </g>
      <path id="Path_1261795" data-name="Path 1261795" d="M203.485,70.055a.994.994,0,0,0,.994-.994V62.992a.994.994,0,0,0-.994-.994H192.521a.994.994,0,0,0-.994.994v6.068a.994.994,0,0,0,.994.994h10.964Zm-9.969-6.068h8.975v4.08h-8.975Z" transform="translate(-167.305 -45.789)"/>
      <path id="Path_1261796" data-name="Path 1261796" d="M65.37,62.992A.994.994,0,0,0,64.375,62H53.411a.994.994,0,0,0-.994.994v6.068a.994.994,0,0,0,.994.994H64.375a.994.994,0,0,0,.994-.994Zm-1.989,5.074H54.406v-4.08h8.975v4.08Z" transform="translate(-45.788 -45.789)"/>
      <path id="Path_1261797" data-name="Path 1261797" d="M65.37,163.392a.994.994,0,0,0-.994-.994H53.411a.994.994,0,0,0-.994.994v4.583a.994.994,0,0,0,.994.994H64.375a.994.994,0,0,0,.994-.994Zm-1.989,3.589H54.406v-2.594h8.975v2.594Z" transform="translate(-45.788 -133.492)"/>
      <path id="Path_1261798" data-name="Path 1261798" d="M64.375,251.056H53.411a.994.994,0,0,0-.994.994v6.068a.994.994,0,0,0,.994.994H64.375a.994.994,0,0,0,.994-.994V252.05A.994.994,0,0,0,64.375,251.056Zm-.994,6.068H54.406v-4.08h8.975v4.08Z" transform="translate(-45.788 -210.937)"/>
      <path id="Path_1261799" data-name="Path 1261799" d="M230.014,386.293H219.05a.994.994,0,0,0-.994.994v6.068a.994.994,0,0,0,.994.994h10.964a.994.994,0,0,0,.994-.994v-6.068A.994.994,0,0,0,230.014,386.293Zm-.994,6.068h-8.975v-4.08h8.975Z" transform="translate(-190.479 -329.071)"/>
      <path id="Path_1261800" data-name="Path 1261800" d="M20.948,67.6a4.314,4.314,0,0,0,4.309,4.309H52.28a.994.994,0,1,0,0-1.989H25.257a2.323,2.323,0,0,1-2.32-2.32V30.992a2.323,2.323,0,0,1,2.32-2.32H60.442a2.323,2.323,0,0,1,2.32,2.32V67.6a2.323,2.323,0,0,1-2.32,2.32H56.258a.994.994,0,1,0,0,1.989h4.185A4.314,4.314,0,0,0,64.751,67.6V30.992a4.314,4.314,0,0,0-4.309-4.309H43.8V13.889A4.314,4.314,0,0,0,39.494,9.58H14.3a.994.994,0,1,0,0,1.989h25.2a2.323,2.323,0,0,1,2.32,2.32V26.683H25.257a4.314,4.314,0,0,0-4.309,4.309V52.816H4.309a2.323,2.323,0,0,1-2.32-2.32V13.889a2.323,2.323,0,0,1,2.32-2.32H10.32a.994.994,0,0,0,0-1.989H4.309A4.314,4.314,0,0,0,0,13.889V50.5A4.314,4.314,0,0,0,4.309,54.8H20.948V67.6Z"/>
      <path id="Path_1261801" data-name="Path 1261801" d="M357.165,393.355a.994.994,0,0,0,.994.994h10.964a.994.994,0,0,0,.994-.994v-6.068a.994.994,0,0,0-.994-.994H358.159a.994.994,0,0,0-.994.994Zm1.989-5.074h8.975v4.08h-8.975Z" transform="translate(-311.995 -329.07)"/>
      <path id="Path_1261802" data-name="Path 1261802" d="M231.007,298.629a.994.994,0,0,0-.994-.994H219.049a.994.994,0,0,0-.994.994v4.583a.994.994,0,0,0,.994.994h10.964a.994.994,0,0,0,.994-.994Zm-1.989,3.589h-8.975v-2.594h8.975Z" transform="translate(-190.478 -251.625)"/>
      <path id="Path_1261803" data-name="Path 1261803" d="M358.159,205.29h10.964a.994.994,0,0,0,.994-.994v-6.068a.994.994,0,0,0-.994-.994H358.159a.994.994,0,0,0-.994.994V204.3A.994.994,0,0,0,358.159,205.29Zm.994-6.068h8.975v4.08h-8.975Z" transform="translate(-311.995 -163.921)"/>
      <path id="Path_1261804" data-name="Path 1261804" d="M231.007,198.229a.994.994,0,0,0-.994-.994H219.049a.994.994,0,0,0-.994.994V204.3a.994.994,0,0,0,.994.994h10.964a.994.994,0,0,0,.994-.994Zm-1.989,5.074h-8.975v-4.08h8.975Z" transform="translate(-190.478 -163.923)"/>
      <path id="Path_1261805" data-name="Path 1261805" d="M357.165,303.213a.994.994,0,0,0,.994.994h10.964a.994.994,0,0,0,.994-.994V298.63a.994.994,0,0,0-.994-.994H358.159a.994.994,0,0,0-.994.994Zm1.989-3.589h8.975v2.594h-8.975Z" transform="translate(-311.995 -251.626)"/>
    </g>
  </g>
</svg>
