<svg xmlns="http://www.w3.org/2000/svg" xmlns:xlink="http://www.w3.org/1999/xlink" width="118" height="118" viewBox="0 0 118 118">
  <defs>
    <filter id="Rectangle_411831" x="0" y="0" width="118" height="118" filterUnits="userSpaceOnUse">
      <feOffset dy="3" input="SourceAlpha"/>
      <feGaussianBlur stdDeviation="3" result="blur"/>
      <feFlood flood-opacity="0.161"/>
      <feComposite operator="in" in2="blur"/>
      <feComposite in="SourceGraphic"/>
    </filter>
  </defs>
  <g id="Group_1205583" data-name="Group 1205583" transform="translate(5811.153 1709)">
    <g id="Group_1204665" data-name="Group 1204665" transform="translate(-6602.935 -3665)">
      <g id="Group_1203409" data-name="Group 1203409" transform="translate(465 -1896)">
        <g transform="matrix(1, 0, 0, 1, 326.78, 3852)" filter="url(#Rectangle_411831)">
          <g id="Rectangle_411831-2" data-name="Rectangle 411831" transform="translate(9 6)" fill="#fecb20" stroke="#fff" stroke-width="2">
            <path d="M5,0H68a32,32,0,0,1,32,32V95a5,5,0,0,1-5,5H32A32,32,0,0,1,0,68V5A5,5,0,0,1,5,0Z" stroke="none"/>
            <path d="M5,1H68A31,31,0,0,1,99,32V95a4,4,0,0,1-4,4H32A31,31,0,0,1,1,68V5A4,4,0,0,1,5,1Z" fill="none"/>
          </g>
        </g>
      </g>
    </g>
    <g id="simbolo" transform="translate(-5783.189 -1682.063)">
      <path id="Path_1261806" data-name="Path 1261806" d="M61.471,55.243H12.687a4.152,4.152,0,0,1-4.152-4.152v-38.4a4.152,4.152,0,0,1,4.152-4.152H59.395a4.152,4.152,0,0,1,4.152,4.152V35.7Zm0,0" transform="translate(-7.497 -7.497)" fill="#607d8b"/>
      <path id="Path_1261807" data-name="Path 1261807" d="M58.462,55.243H12.44a4.039,4.039,0,0,1-3.917-4.152v-38.4A4.038,4.038,0,0,1,12.44,8.535H56.5a4.038,4.038,0,0,1,3.917,4.152V35.7Zm0,0" transform="translate(-7.485 -7.497)" fill="#cfd8dc"/>
      <path id="Path_1261808" data-name="Path 1261808" d="M82.338,125h-30.1a1,1,0,0,1-1.038-.945V94.805a1,1,0,0,1,1.038-.945H94.794a1,1,0,0,1,1.038.945V106.6Zm0,0" transform="translate(-44.972 -82.443)" fill="#02a9f4"/>
      <path id="Path_1261809" data-name="Path 1261809" d="M215.408,179.2h31.139a2.076,2.076,0,0,1,2.076,2.076v31.139a2.076,2.076,0,0,1-2.076,2.076H215.408a2.076,2.076,0,0,1-2.076-2.076V181.275A2.076,2.076,0,0,1,215.408,179.2Zm0,0" transform="translate(-187.383 -157.402)" fill="#2e7d32"/>
      <path id="Path_1261810" data-name="Path 1261810" d="M215.408,179.2h28.025a2.076,2.076,0,0,1,2.076,2.076v31.139a2.076,2.076,0,0,1-2.076,2.076H215.408a2.076,2.076,0,0,1-2.076-2.076V181.275A2.076,2.076,0,0,1,215.408,179.2Zm0,0" transform="translate(-187.383 -157.402)" fill="#4caf50"/>
      <path id="Path_1261811" data-name="Path 1261811" d="M52.237,44.744h2.076a1.038,1.038,0,0,0,0-2.076H52.237a1.038,1.038,0,1,0,0,2.076Zm0,0" transform="translate(-44.972 -37.478)"/>
      <path id="Path_1261812" data-name="Path 1261812" d="M103.437,44.744h2.076a1.038,1.038,0,1,0,0-2.076h-2.076a1.038,1.038,0,1,0,0,2.076Zm0,0" transform="translate(-89.943 -37.478)"/>
      <path id="Path_1261813" data-name="Path 1261813" d="M154.639,44.744h4.152a1.038,1.038,0,1,0,0-2.076h-4.152a1.038,1.038,0,0,0,0,2.076Zm0,0" transform="translate(-134.918 -37.478)"/>
      <path id="Path_1261814" data-name="Path 1261814" d="M222.9,44.744H245.74a1.038,1.038,0,1,0,0-2.076H222.9a1.038,1.038,0,0,0,0,2.076Zm0,0" transform="translate(-194.88 -37.478)"/>
      <path id="Path_1261815" data-name="Path 1261815" d="M59.163,20.759H57.087V5.19A5.2,5.2,0,0,0,51.9,0H5.19A5.2,5.2,0,0,0,0,5.19v38.4a5.2,5.2,0,0,0,5.19,5.19H24.911v6.228a3.114,3.114,0,0,0,3.114,3.114H59.163a3.114,3.114,0,0,0,3.114-3.114V23.873A3.114,3.114,0,0,0,59.163,20.759ZM5.19,46.708a3.114,3.114,0,0,1-3.114-3.114V5.19A3.114,3.114,0,0,1,5.19,2.076H51.9A3.114,3.114,0,0,1,55.012,5.19V20.759H51.9v-8.3a2.076,2.076,0,0,0-2.076-2.076H7.266A2.033,2.033,0,0,0,5.19,12.362v29.25a2.033,2.033,0,0,0,2.076,1.982H24.911v3.114ZM28.025,20.759A3.113,3.113,0,0,0,25.1,22.835H16.608V18.683H49.822v2.076ZM7.266,41.51V37.366h7.265v4.152ZM49.822,12.455v4.152H16.608V12.455ZM14.531,16.608H7.266V12.455h7.265ZM7.266,31.139h7.265V35.29H7.266Zm9.342,0h8.3V35.29h-8.3Zm8.3-2.076h-8.3V24.911h8.3Zm-10.38,0H7.266V24.911h7.265ZM7.266,22.835V18.683h7.265v4.152Zm9.342,14.531h8.3v4.152h-8.3ZM60.2,55.012a1.038,1.038,0,0,1-1.038,1.038H28.025a1.038,1.038,0,0,1-1.038-1.038V23.873a1.038,1.038,0,0,1,1.038-1.038H59.163A1.038,1.038,0,0,1,60.2,23.873Zm0,0"/>
      <path id="Path_1261816" data-name="Path 1261816" d="M290.888,221.867H274.936a1.868,1.868,0,0,0-1.7,1.081,1.921,1.921,0,0,0,.245,2.057,1.021,1.021,0,0,0,.115.12l9.471,8.421a1.038,1.038,0,0,1,0,1.551l-9.471,8.421a1.026,1.026,0,0,0-.115.121,1.92,1.92,0,0,0-.245,2.057,1.868,1.868,0,0,0,1.7,1.082h15.951a1.9,1.9,0,0,0,1.884-1.916v-2.636a1.038,1.038,0,0,0-2.076,0V244.7h-15.3l9.056-8.053a3.114,3.114,0,0,0,0-4.654l-9.056-8.053h15.3v2.475a1.038,1.038,0,1,0,2.076,0v-2.635A1.9,1.9,0,0,0,290.888,221.867Zm0,0" transform="translate(-239.836 -194.88)"/>
    </g>
  </g>
</svg>
