<svg xmlns="http://www.w3.org/2000/svg" width="89.445" height="89.444" viewBox="0 0 89.445 89.444">
  <g id="Group_1205611" data-name="Group 1205611" transform="translate(-290.051 -12687)">
    <g id="Group_1204755" data-name="Group 1204755" transform="translate(-731.916 9594.345)">
      <g id="Group_1200255" data-name="Group 1200255" transform="translate(1021.967 3092.655)">
        <g id="Group_1187152" data-name="Group 1187152" transform="translate(0 0)">
          <g id="Group_1185946" data-name="Group 1185946">
            <g id="Group_1184280" data-name="Group 1184280">
              <g id="Group_1182168" data-name="Group 1182168">
                <g id="Group_1178877" data-name="Group 1178877">
                  <g id="Group_1111311" data-name="Group 1111311">
                    <g id="Group_1098742" data-name="Group 1098742" transform="translate(0 0)">
                      <g id="Rectangle_400898" data-name="Rectangle 400898" transform="translate(0.001 0)" fill="#b8a9f1" stroke="#7f75a8" stroke-width="1" opacity="0.859">
                        <rect width="89.444" height="89.444" rx="44.722" stroke="none"/>
                        <rect x="0.5" y="0.5" width="88.444" height="88.444" rx="44.222" fill="none"/>
                      </g>
                      <g id="Rectangle_400907" data-name="Rectangle 400907" transform="translate(0 0)" fill="none" stroke="#7f75a8" stroke-width="1">
                        <rect width="89.444" height="89.444" rx="44.722" stroke="none"/>
                        <rect x="0.5" y="0.5" width="88.444" height="88.444" rx="44.222" fill="none"/>
                      </g>
                    </g>
                  </g>
                </g>
              </g>
            </g>
          </g>
        </g>
      </g>
    </g>
    <g id="hoja-de-calculo_1_" data-name="hoja-de-calculo (1)" transform="translate(309.051 12706)">
      <g id="Group_1205593" data-name="Group 1205593" transform="translate(0.752 0.752)">
        <path id="Path_1261867" data-name="Path 1261867" d="M7.5,7.5h6.482v6.482H7.5Z" transform="translate(-7.5 -7.5)" fill="#e279b3"/>
      </g>
      <g id="Group_1205594" data-name="Group 1205594" transform="translate(7.234 0.752)">
        <path id="Path_1261868" data-name="Path 1261868" d="M72.15,7.5H86.6v6.482H72.15Z" transform="translate(-72.15 -7.5)" fill="#a2f5c3"/>
      </g>
      <g id="Group_1205595" data-name="Group 1205595" transform="translate(21.684 0.752)">
        <path id="Path_1261869" data-name="Path 1261869" d="M216.267,7.5h14.45v6.482h-14.45Z" transform="translate(-216.267 -7.5)" fill="#88f2a9"/>
      </g>
      <g id="Group_1205596" data-name="Group 1205596" transform="translate(36.133 0.752)">
        <path id="Path_1261870" data-name="Path 1261870" d="M360.383,7.5h14.45v6.482h-14.45Z" transform="translate(-360.383 -7.5)" fill="#a2f5c3"/>
      </g>
      <g id="Group_1205597" data-name="Group 1205597" transform="translate(0.752 7.234)">
        <path id="Path_1261871" data-name="Path 1261871" d="M7.5,72.15h6.482v6.482H7.5Z" transform="translate(-7.5 -72.15)" fill="#b2e5fb"/>
      </g>
      <g id="Group_1205598" data-name="Group 1205598" transform="translate(0.752 13.716)">
        <path id="Path_1261872" data-name="Path 1261872" d="M7.5,136.8h6.482v6.482H7.5Z" transform="translate(-7.5 -136.801)" fill="#91dafa"/>
      </g>
      <g id="Group_1205599" data-name="Group 1205599" transform="translate(0.752 20.198)">
        <path id="Path_1261873" data-name="Path 1261873" d="M7.5,201.451h6.482v6.482H7.5Z" transform="translate(-7.5 -201.451)" fill="#b2e5fb"/>
      </g>
      <g id="Group_1205600" data-name="Group 1205600" transform="translate(0.752 26.68)">
        <path id="Path_1261874" data-name="Path 1261874" d="M7.5,266.1h6.482v6.482H7.5Z" transform="translate(-7.5 -266.102)" fill="#91dafa"/>
      </g>
      <g id="Group_1205601" data-name="Group 1205601" transform="translate(0.752 33.163)">
        <path id="Path_1261875" data-name="Path 1261875" d="M7.5,330.752h6.482v6.482H7.5Z" transform="translate(-7.5 -330.752)" fill="#b2e5fb"/>
      </g>
      <g id="Group_1205602" data-name="Group 1205602" transform="translate(0.752 39.645)">
        <path id="Path_1261876" data-name="Path 1261876" d="M7.5,395.4h6.482v6.482H7.5Z" transform="translate(-7.5 -395.402)" fill="#91dafa"/>
      </g>
      <g id="Group_1205603" data-name="Group 1205603" transform="translate(7.234 7.234)">
        <path id="Path_1261877" data-name="Path 1261877" d="M72.15,72.15H115.5v38.893H72.15Z" transform="translate(-72.15 -72.15)" fill="#e6fdef"/>
      </g>
      <g id="Group_1205609" data-name="Group 1205609" transform="translate(27.611 24.25)">
        <g id="Group_1205604" data-name="Group 1205604" transform="translate(0 13.167)">
          <path id="Path_1261878" data-name="Path 1261878" d="M298.358,381.863c0,2.476-5.142,4.482-11.486,4.482s-11.486-2.007-11.486-4.482v-8.684h22.972Z" transform="translate(-275.386 -373.179)" fill="#b6c4cf"/>
        </g>
        <g id="Group_1205605" data-name="Group 1205605" transform="translate(0 13.167)">
          <path id="Path_1261879" data-name="Path 1261879" d="M286.872,386.346c6.344,0,11.486-2.007,11.486-4.482v-8.684h-2.8v7.588a1.4,1.4,0,0,1-.919,1.316,23.714,23.714,0,0,1-7.765,1.181c-6.343,0-11.486-2.007-11.486-4.482v3.082C275.386,384.339,280.528,386.346,286.872,386.346Z" transform="translate(-275.386 -373.179)" fill="#9facba"/>
        </g>
        <g id="Group_1205606" data-name="Group 1205606" transform="translate(0 4.482)">
          <path id="Path_1261880" data-name="Path 1261880" d="M298.358,295.247c0,2.476-5.142,4.482-11.486,4.482s-11.486-2.007-11.486-4.482v-8.684h22.972Z" transform="translate(-275.386 -286.563)" fill="#b6c4cf"/>
        </g>
        <g id="Group_1205607" data-name="Group 1205607" transform="translate(0 4.482)">
          <path id="Path_1261881" data-name="Path 1261881" d="M286.872,299.73c6.344,0,11.486-2.007,11.486-4.482v-8.684h-2.8v7.588a1.4,1.4,0,0,1-.919,1.316,23.714,23.714,0,0,1-7.765,1.181c-6.343,0-11.486-2.007-11.486-4.482v3.082C275.386,297.723,280.528,299.73,286.872,299.73Z" transform="translate(-275.386 -286.563)" fill="#9facba"/>
        </g>
        <g id="Group_1205608" data-name="Group 1205608">
          <ellipse id="Ellipse_13678" data-name="Ellipse 13678" cx="11.486" cy="4.482" rx="11.486" ry="4.482" fill="#d9e7ec"/>
        </g>
      </g>
      <g id="Group_1205610" data-name="Group 1205610" transform="translate(0 0)">
        <path id="Path_1261882" data-name="Path 1261882" d="M50.583,0H12.618a.752.752,0,0,0,0,1.5h8.314V6.482H7.986V1.5H9.109a.752.752,0,1,0,0-1.5H.752A.752.752,0,0,0,0,.752V46.126a.752.752,0,0,0,.752.752h9.274a.752.752,0,0,0,0-1.5H7.986V40.4H20.932v4.978h-7.4a.752.752,0,0,0,0,1.5H26.981c.384,1.214,1.671,2.293,3.721,3.092a23.878,23.878,0,0,0,8.4,1.364,23.878,23.878,0,0,0,8.4-1.364c2.478-.967,3.843-2.341,3.843-3.87V25.25a.752.752,0,1,0-1.5,0v.885a9.3,9.3,0,0,0-2.339-1.273A23.878,23.878,0,0,0,39.1,23.5c-.75,0-1.489.028-2.212.082V20.95H49.831v.791a.752.752,0,0,0,1.5,0V.752A.752.752,0,0,0,50.583,0Zm-.752,37.416c0,.841-1.079,1.764-2.885,2.469A22.364,22.364,0,0,1,39.1,41.147a22.364,22.364,0,0,1-7.848-1.261c-1.807-.705-2.885-1.628-2.885-2.469V31.328A9.3,9.3,0,0,0,30.7,32.6a23.88,23.88,0,0,0,8.4,1.364,23.88,23.88,0,0,0,8.4-1.364,9.3,9.3,0,0,0,2.339-1.273ZM26.859,38.893H22.436V33.914h4.424Zm0-10.161V32.41H22.436V27.432h4.771A2.67,2.67,0,0,0,26.859,28.732Zm-5.928,3.679H7.986V27.432H20.932v4.978ZM1.5,19.446V14.468H6.482v4.978Zm4.978,1.5v4.978H1.5V20.95ZM1.5,12.964V7.986H6.482v4.978H1.5Zm0,20.95H6.482v4.978H1.5Zm0-1.5V27.432H6.482v4.978Zm6.482-6.482V20.95H20.932v4.978Zm0-6.482V14.468H20.932v4.978Zm14.45-4.978H35.382v4.978H22.436Zm0-1.5V7.986H35.382v4.978H22.436Zm14.45-4.978H49.831v4.978H36.886Zm12.946-1.5H36.886V1.5H49.831ZM35.382,1.5V6.482H22.436V1.5ZM20.932,7.986v4.978H7.986V7.986ZM6.482,1.5V6.482H1.5V1.5Zm0,43.871H1.5V40.4H6.482Zm1.5-6.482V33.914H20.932v4.978Zm14.45,1.5h4.424v4.978H22.436Zm24.51,8.173A22.362,22.362,0,0,1,39.1,49.831a22.361,22.361,0,0,1-7.848-1.261c-1.807-.705-2.885-1.628-2.885-2.469V40.013A9.3,9.3,0,0,0,30.7,41.286a23.88,23.88,0,0,0,8.4,1.364,23.88,23.88,0,0,0,8.4-1.364,9.3,9.3,0,0,0,2.339-1.273V46.1C49.831,46.942,48.752,47.865,46.946,48.57Zm0-22.307c1.807.705,2.885,1.628,2.885,2.469S48.752,30.5,46.946,31.2A22.364,22.364,0,0,1,39.1,32.462,22.364,22.364,0,0,1,31.249,31.2c-1.807-.705-2.885-1.628-2.885-2.469s1.079-1.764,2.885-2.469A22.362,22.362,0,0,1,39.1,25,22.362,22.362,0,0,1,46.946,26.263ZM35.382,23.732a20.154,20.154,0,0,0-4.679,1.13,9.856,9.856,0,0,0-2.058,1.067H22.436V20.95H35.382Zm1.5-4.285V14.468H49.831v4.978Z" transform="translate(0 0)"/>
        <path id="Path_1261883" data-name="Path 1261883" d="M432.515,362.084a.76.76,0,1,0,.76.76A.76.76,0,0,0,432.515,362.084Z" transform="translate(-388.465 -325.78)"/>
        <path id="Path_1261884" data-name="Path 1261884" d="M462.06,352.743a.76.76,0,1,0,.76-.76A.76.76,0,0,0,462.06,352.743Z" transform="translate(-415.732 -316.692)"/>
        <path id="Path_1261885" data-name="Path 1261885" d="M432.515,447.1a.76.76,0,1,0,.76.76A.76.76,0,0,0,432.515,447.1Z" transform="translate(-388.465 -402.272)"/>
        <path id="Path_1261886" data-name="Path 1261886" d="M462.82,437a.76.76,0,1,0,.76.76A.76.76,0,0,0,462.82,437Z" transform="translate(-415.732 -393.184)"/>
      </g>
    </g>
  </g>
</svg>
