<svg xmlns="http://www.w3.org/2000/svg" width="89.444" height="89.444" viewBox="0 0 89.444 89.444">
  <g id="Group_1205592" data-name="Group 1205592" transform="translate(-1230.051 -12687)">
    <g id="Group_1204758" data-name="Group 1204758" transform="translate(208.084 9594.345)">
      <g id="Group_1200255" data-name="Group 1200255" transform="translate(1021.967 3092.655)">
        <g id="Group_1187152" data-name="Group 1187152" transform="translate(0 0)">
          <g id="Group_1185946" data-name="Group 1185946">
            <g id="Group_1184280" data-name="Group 1184280">
              <g id="Group_1182168" data-name="Group 1182168">
                <g id="Group_1178877" data-name="Group 1178877">
                  <g id="Group_1111311" data-name="Group 1111311">
                    <g id="Group_1098742" data-name="Group 1098742" transform="translate(0 0)">
                      <g id="Rectangle_400898" data-name="Rectangle 400898" transform="translate(0.001 0)" fill="#b8a9f1" stroke="#7f75a8" stroke-width="1" opacity="0.859">
                        <rect width="89.444" height="89.444" rx="44.722" stroke="none"/>
                        <rect x="0.5" y="0.5" width="88.444" height="88.444" rx="44.222" fill="none"/>
                      </g>
                      <g id="Rectangle_400907" data-name="Rectangle 400907" transform="translate(0 0)" fill="none" stroke="#7f75a8" stroke-width="1">
                        <rect width="89.444" height="89.444" rx="44.722" stroke="none"/>
                        <rect x="0.5" y="0.5" width="88.444" height="88.444" rx="44.222" fill="none"/>
                      </g>
                    </g>
                  </g>
                </g>
              </g>
            </g>
          </g>
        </g>
      </g>
    </g>
    <g id="Layer_x0020_1" transform="translate(1238.761 12696.52)">
      <path id="Path_1261853" data-name="Path 1261853" d="M52.511,47.143H50.141v2.951h3.744a.591.591,0,1,1,0,1.181H49.549a.591.591,0,0,1-.59-.59V42.42a.59.59,0,0,1,.59-.59h4.335a.591.591,0,1,1,0,1.181H50.141v2.951h2.371a.591.591,0,1,1,0,1.181Zm-1.2,13.728H12.6a2.316,2.316,0,0,1-2.313-2.314V12.793A2.315,2.315,0,0,1,12.6,10.48H42.9l.031,0h0l.017,0h.01a.579.579,0,0,1,.281.133l10.159,8.358h0l.008.006,0,0,.006.006.005,0,0,0,.006.006,0,0,.008.008.008.008v0l.006.006,0,0,0,0,.005.006,0,0,.007.008.007.009h0l.006.008,0,0,0,.006,0,.005,0,0,.006.008h0l.006.009h0l.005.008.006.01,0,.006v0l.006.009h0a.579.579,0,0,1,.07.256v.01h0V39.143h4.495a2.606,2.606,0,0,1,2.6,2.6V51.36a2.6,2.6,0,0,1-2.6,2.6H53.623v4.6a2.316,2.316,0,0,1-2.313,2.314ZM43.453,12.322v6.526h7.932Zm9.587,28H45.317A1.422,1.422,0,0,0,43.9,41.745V51.36a1.422,1.422,0,0,0,1.421,1.42h12.8a1.422,1.422,0,0,0,1.421-1.42V41.745a1.423,1.423,0,0,0-1.421-1.421Zm-.6-1.181V20.029H42.8l-.014,0-.015,0-.014,0-.014,0-.014,0-.014,0-.014,0-.013,0-.014,0-.013-.005-.013-.005-.013-.005-.013-.006-.013-.006-.012-.006-.012-.006-.013-.007-.011-.007h0l-.011-.008-.012-.007-.011-.008-.011-.008h0L42.5,19.9l-.011-.008-.011-.009-.01-.01-.01-.009-.01-.01-.01-.009-.009-.011-.009-.01-.009-.01L42.4,19.8l-.008-.011-.008-.011-.008-.012-.008-.011-.007-.012-.007-.012-.007-.012-.007-.012-.006-.013-.006-.013-.005-.013-.006-.013-.005-.013,0-.013-.005-.013,0-.014,0-.014h0l0-.014,0-.013,0-.015,0-.014,0-.014,0-.015V11.661H12.6a1.133,1.133,0,0,0-1.132,1.132V58.558A1.133,1.133,0,0,0,12.6,59.69H51.309a1.134,1.134,0,0,0,1.132-1.133v-4.6H51.074V55.7a.591.591,0,0,1-.59.591H29.5A.591.591,0,0,1,28.9,55.7V51.529a.59.59,0,0,1,.591-.59h13.22v-3.8H29.5a.59.59,0,0,1-.591-.59V42.376a.591.591,0,0,1,.591-.59h13.22v-.041a2.605,2.605,0,0,1,2.6-2.6h7.124ZM24.248,19.687H15.394a.59.59,0,0,1-.59-.591V14.92a.59.59,0,0,1,.59-.591h8.854a.591.591,0,0,1,.591.591V19.1A.591.591,0,0,1,24.248,19.687Zm-8.263-1.181h7.673v-3H15.985ZM38.35,19.687H29.5A.591.591,0,0,1,28.9,19.1V14.92a.591.591,0,0,1,.591-.591H38.35a.591.591,0,0,1,.59.591V19.1A.591.591,0,0,1,38.35,19.687Zm-8.264-1.181h7.673v-3H30.085Zm20.4,10.333H29.5a.591.591,0,0,1-.591-.59V24.072a.591.591,0,0,1,.591-.59H50.484a.591.591,0,0,1,.59.59v4.177A.589.589,0,0,1,50.484,28.839Zm-20.4-1.181H49.893V24.663H30.085Zm20.4,10.334H29.5A.591.591,0,0,1,28.9,37.4V33.225a.591.591,0,0,1,.591-.591H50.484a.591.591,0,0,1,.59.591V37.4A.59.59,0,0,1,50.484,37.992Zm-20.4-1.181H49.893v-3H30.085Zm12.629,6.157H30.085v2.994H42.715ZM24.248,28.839H15.394a.59.59,0,0,1-.59-.59V24.072a.59.59,0,0,1,.59-.59h8.854a.591.591,0,0,1,.591.59v4.177A.59.59,0,0,1,24.248,28.839Zm-8.263-1.181h7.673V24.663H15.985Zm8.263,10.334H15.394a.59.59,0,0,1-.59-.591V33.225a.59.59,0,0,1,.59-.591h8.854a.591.591,0,0,1,.591.591V37.4A.591.591,0,0,1,24.248,37.992ZM15.985,36.81h7.673v-3H15.985Zm8.263,10.333H15.394a.589.589,0,0,1-.59-.59V42.376a.59.59,0,0,1,.59-.59h8.854a.591.591,0,0,1,.591.59v4.177A.59.59,0,0,1,24.248,47.143Zm-8.263-1.18h7.673v-3H15.985ZM24.248,56.3H15.394a.59.59,0,0,1-.59-.59V51.529a.589.589,0,0,1,.59-.59h8.854a.59.59,0,0,1,.591.59v4.177A.591.591,0,0,1,24.248,56.3Zm-8.263-1.181h7.673V52.12H15.985ZM42.828,52.12H30.085v2.994H49.893V53.961H45.317A2.608,2.608,0,0,1,42.828,52.12Z" transform="translate(0 0)" fill-rule="evenodd"/>
      <path id="Path_1261854" data-name="Path 1261854" d="M39.233,47.729V43.554a.591.591,0,0,1,.591-.591H60.813a.591.591,0,0,1,.59.591v4.176a.59.59,0,0,1-.59.591H39.824A.591.591,0,0,1,39.233,47.729Zm.591,4.386h13.22a2.6,2.6,0,0,1,2.6-2.644H62.77V30.358H53.176a.6.6,0,0,1-.4-.173l-.02-.021-.009-.01-.018-.022-.008-.011-.008-.011L52.7,30.1l-.03-.048-.007-.012-.012-.027L52.648,30l-.006-.013-.005-.013,0-.013-.005-.013,0-.014,0-.014,0-.014,0-.013,0-.015,0-.014,0-.014,0-.015V21.99H22.932A1.133,1.133,0,0,0,21.8,23.122V68.886a1.133,1.133,0,0,0,1.132,1.132H61.638a1.134,1.134,0,0,0,1.132-1.133v-4.6H61.4v1.744a.591.591,0,0,1-.59.591H39.824a.591.591,0,0,1-.591-.591V61.858a.59.59,0,0,1,.591-.59h13.22v-3.8H39.824a.59.59,0,0,1-.591-.59V52.705a.591.591,0,0,1,.591-.59ZM35.168,38.578a.59.59,0,0,1-.591.59H25.723a.59.59,0,0,1-.59-.59V34.4a.59.59,0,0,1,.59-.59h8.854a.591.591,0,0,1,.591.59Zm-.591-8.562H25.723a.59.59,0,0,1-.59-.591V25.249a.59.59,0,0,1,.59-.591h8.854a.591.591,0,0,1,.591.591v4.176A.591.591,0,0,1,34.577,30.016Zm4.656,8.562V34.4a.591.591,0,0,1,.591-.59H60.813a.591.591,0,0,1,.59.59v4.177a.589.589,0,0,1-.59.59H39.824A.591.591,0,0,1,39.233,38.578Zm9.445-8.562H39.824a.591.591,0,0,1-.591-.591V25.249a.591.591,0,0,1,.591-.591h8.854a.591.591,0,0,1,.59.591v4.176A.591.591,0,0,1,48.678,30.016ZM35.168,43.554v4.176a.591.591,0,0,1-.591.591H25.723a.59.59,0,0,1-.59-.591V43.554a.59.59,0,0,1,.59-.591h8.854A.591.591,0,0,1,35.168,43.554Zm-9.445,8.562h8.854a.591.591,0,0,1,.591.59v4.177a.59.59,0,0,1-.591.59H25.723a.589.589,0,0,1-.59-.59V52.705A.59.59,0,0,1,25.723,52.115Zm0,9.153h8.854a.59.59,0,0,1,.591.59v4.177a.591.591,0,0,1-.591.59H25.723a.59.59,0,0,1-.59-.59V61.858A.589.589,0,0,1,25.723,61.268Z" transform="translate(-10.329 -10.329)" fill="#d8dfe3" fill-rule="evenodd"/>
      <g id="Group_1205591" data-name="Group 1205591" transform="translate(15.985 15.51)">
        <path id="Path_1261855" data-name="Path 1261855" d="M73.463,240.865v-3H65.79v3Z" transform="translate(-65.79 -219.566)" fill="#767a75" fill-rule="evenodd"/>
        <path id="Path_1261856" data-name="Path 1261856" d="M65.79,151.684h7.673V148.69H65.79Z" transform="translate(-65.79 -139.537)" fill="#767a75" stroke="#767a75" stroke-miterlimit="2.613" stroke-width="0.9" fill-rule="evenodd"/>
        <path id="Path_1261857" data-name="Path 1261857" d="M65.79,62.5h7.673v-3H65.79Z" transform="translate(-65.79 -59.5)" fill="#767a75" fill-rule="evenodd"/>
        <path id="Path_1261858" data-name="Path 1261858" d="M203.19,59.5v3h7.673v-3Z" transform="translate(-189.09 -59.5)" fill="#767a75" fill-rule="evenodd"/>
        <path id="Path_1261859" data-name="Path 1261859" d="M223,148.69H203.19v2.994H223Z" transform="translate(-189.09 -139.537)" fill="#767a75" fill-rule="evenodd"/>
      </g>
      <path id="Path_1261860" data-name="Path 1261860" d="M333.45,34.956h7.932L333.45,28.43Z" transform="translate(-289.997 -16.108)" fill="#afbdc7" fill-rule="evenodd"/>
      <path id="Path_1261861" data-name="Path 1261861" d="M223,237.87H203.19v3H223Z" transform="translate(-173.105 -204.055)" fill="#767a75" fill-rule="evenodd"/>
      <path id="Path_1261862" data-name="Path 1261862" d="M215.82,327.06H203.19v2.994h12.63Z" transform="translate(-173.105 -284.092)" fill="#767a75" fill-rule="evenodd"/>
      <path id="Path_1261863" data-name="Path 1261863" d="M215.932,416.25H203.19v2.994H223v-1.153h-4.576A2.608,2.608,0,0,1,215.932,416.25Z" transform="translate(-173.105 -364.13)" fill="#767a75" fill-rule="evenodd"/>
      <path id="Path_1261864" data-name="Path 1261864" d="M73.463,419.244V416.25H65.79v2.994Z" transform="translate(-49.805 -364.13)" fill="#767a75" fill-rule="evenodd"/>
      <path id="Path_1261865" data-name="Path 1261865" d="M65.79,330.055h7.673v-3H65.79Z" transform="translate(-49.805 -284.092)" fill="#767a75" fill-rule="evenodd"/>
      <path id="Path_1261866" data-name="Path 1261866" d="M344.014,303.987v2.951h2.371a.591.591,0,0,1,0,1.181h-2.371v2.951h3.744a.591.591,0,0,1,0,1.181h-4.335a.591.591,0,0,1-.59-.59V303.4a.59.59,0,0,1,.59-.59h4.335a.591.591,0,0,1,0,1.181Zm-6.244-1.265v9.615a1.422,1.422,0,0,0,1.421,1.42h12.8a1.422,1.422,0,0,0,1.421-1.42v-9.615a1.423,1.423,0,0,0-1.421-1.421h-12.8A1.422,1.422,0,0,0,337.77,302.721Z" transform="translate(-293.874 -260.976)" fill="#55d47b" fill-rule="evenodd"/>
    </g>
  </g>
</svg>
