<svg xmlns="http://www.w3.org/2000/svg" width="72" height="72" viewBox="0 0 72 72">
  <g id="Group_1205612" data-name="Group 1205612" transform="translate(-215 -14745.688)">
    <g id="Group_1204760" data-name="Group 1204760" transform="translate(-204 13624.688)">
      <path id="Path_824488" data-name="Path 824488" d="M36,0A36,36,0,1,1,0,36,36,36,0,0,1,36,0Z" transform="translate(419 1121)" fill="#e2dcf9"/>
    </g>
    <g id="XMLID_1400_" transform="translate(228.031 14743.401)">
      <path id="XMLID_1700_" d="M418,255.432l5.618-3.307a1.494,1.494,0,0,1,2.252,1.287v18.01a1.494,1.494,0,0,1-2.252,1.287L418,269.4Z" transform="translate(-378.838 -215.627)" fill="#9bc6ff"/>
      <path id="XMLID_1699_" d="M0,0H3.748V12.742H0Z" transform="translate(39.162 53.161) rotate(180)" fill="#98a1b3"/>
      <path id="XMLID_1698_" d="M12.249,240h29.98a2.249,2.249,0,0,1,2.249,2.249v18.738a2.248,2.248,0,0,1-2.249,2.249H12.249A2.248,2.248,0,0,1,10,260.986V242.249A2.249,2.249,0,0,1,12.249,240Z" transform="translate(-9.063 -204.827)" fill="#8690a6"/>
      <circle id="XMLID_1697_" cx="2.149" cy="2.149" r="2.149" transform="translate(26.51 39.793)" fill="#f5737f"/>
      <g id="XMLID_759_" transform="translate(0.716 14.936)">
        <circle id="XMLID_1696_" cx="7.523" cy="7.523" r="7.523" transform="translate(0 5.512)" fill="#98a1b3"/>
        <g id="XMLID_1203_" transform="translate(15.018)">
          <circle id="XMLID_1188_" cx="10.118" cy="10.118" r="10.118" fill="#8690a6"/>
          <circle id="XMLID_1695_" cx="6.371" cy="6.371" r="6.371" transform="translate(3.748 3.748)" fill="#d3d7df"/>
        </g>
        <ellipse id="XMLID_757_" cx="3.224" cy="3.582" rx="3.224" ry="3.582" transform="translate(4.299 9.094)" fill="#d3d7df"/>
      </g>
      <path id="XMLID_1308_" d="M64,344H80.3v8.994H64Z" transform="translate(-58.004 -299.084)" fill="#e1e3e9"/>
      <path id="XMLID_1341_" d="M282,384h4.5v4.5H282Z" transform="translate(-255.58 -335.336)" fill="#ffcb7c"/>
      <g id="XMLID_190_" transform="translate(0 13.999)">
        <path id="XMLID_217_" d="M46.745,35.675a2.4,2.4,0,0,0-2.44.015L38.687,39a.936.936,0,0,0-.4.485H36.351V37.421a3.189,3.189,0,0,0-3.185-3.185H32A11.054,11.054,0,1,0,15.093,22.513,8.429,8.429,0,1,0,3.14,34.237,3.189,3.189,0,0,0,0,37.421V56.159a3.189,3.189,0,0,0,3.185,3.185H13.96a.937.937,0,1,0,0-1.874H3.185a1.313,1.313,0,0,1-1.312-1.312V37.421A1.313,1.313,0,0,1,3.185,36.11h29.98a1.313,1.313,0,0,1,1.312,1.312V56.159a1.313,1.313,0,0,1-1.312,1.312H22.392a.937.937,0,0,0,0,1.874H33.166a3.189,3.189,0,0,0,3.185-3.185V54.1h1.933a.935.935,0,0,0,.4.485l5.618,3.306a2.431,2.431,0,0,0,3.664-2.095V37.785a2.4,2.4,0,0,0-1.224-2.11Zm-20.892-19.8a9.182,9.182,0,1,1-9.182,9.182A9.192,9.192,0,0,1,25.853,15.873ZM1.874,27.678a6.558,6.558,0,1,1,6.558,6.558A6.566,6.566,0,0,1,1.874,27.678Zm11.852,6.558a8.469,8.469,0,0,0,2.6-3.585A11.14,11.14,0,0,0,19.7,34.236Zm22.626,7.12h1.874V52.224H36.351Zm9.744,14.439a.557.557,0,0,1-.84.48L40.1,53.24V40.34l5.157-3.035a.557.557,0,0,1,.84.48Z" transform="translate(0 -13.999)"/>
        <path id="XMLID_1198_" d="M275.185,284.371A3.185,3.185,0,1,0,272,281.185,3.189,3.189,0,0,0,275.185,284.371Zm0-4.5a1.312,1.312,0,1,1-1.312,1.312A1.313,1.313,0,0,1,275.185,279.874Z" transform="translate(-246.517 -253.266)"/>
        <path id="XMLID_1201_" d="M184.937,478a.937.937,0,1,0,.662.275A.944.944,0,0,0,184.937,478Z" transform="translate(-166.761 -434.528)"/>
        <path id="XMLID_1508_" d="M205.25,68.615a7.308,7.308,0,1,0-7.308-7.308A7.316,7.316,0,0,0,205.25,68.615Zm0-12.742a5.434,5.434,0,1,1-5.434,5.434A5.44,5.44,0,0,1,205.25,55.874Z" transform="translate(-179.397 -50.252)"/>
        <path id="XMLID_1509_" d="M266.876,96.544a.937.937,0,1,0-.662-.275A.944.944,0,0,0,266.876,96.544Z" transform="translate(-241.023 -87.112)"/>
        <path id="XMLID_1511_" d="M266.876,151.2a.937.937,0,1,0-.662-.275A.94.94,0,0,0,266.876,151.2Z" transform="translate(-241.023 -136.651)"/>
        <path id="XMLID_1513_" d="M294.216,123.874a.937.937,0,1,0-.662-.275A.945.945,0,0,0,294.216,123.874Z" transform="translate(-265.802 -111.881)"/>
        <path id="XMLID_1514_" d="M239.546,123.874a.937.937,0,1,0-.662-.275.944.944,0,0,0,.662.275Z" transform="translate(-216.254 -111.881)"/>
        <path id="XMLID_1517_" d="M48.31,122.619A4.31,4.31,0,1,0,44,118.31,4.315,4.315,0,0,0,48.31,122.619Zm0-6.746a2.436,2.436,0,1,1-2.436,2.436A2.439,2.439,0,0,1,48.31,115.874Z" transform="translate(-39.878 -104.631)"/>
        <path id="XMLID_1993_" d="M72.176,343.931v-8.994a.937.937,0,0,0-.937-.937h-16.3a.937.937,0,0,0-.937.937v8.994a.937.937,0,0,0,.937.937h16.3A.937.937,0,0,0,72.176,343.931Zm-1.874-.937H55.874v-7.12H70.3Z" transform="translate(-48.941 -304.019)"/>
        <path id="XMLID_1996_" d="M272,379.434a.937.937,0,0,0,.937.937h4.5a.937.937,0,0,0,.937-.937v-4.5a.937.937,0,0,0-.937-.937h-4.5a.937.937,0,0,0-.937.937Zm1.874-3.56H276.5V378.5h-2.623Z" transform="translate(-246.517 -340.272)"/>
      </g>
    </g>
  </g>
</svg>
