<svg xmlns="http://www.w3.org/2000/svg" xmlns:xlink="http://www.w3.org/1999/xlink" width="118" height="118" viewBox="0 0 118 118">
  <defs>
    <filter id="Rectangle_411831" x="0" y="0" width="118" height="118" filterUnits="userSpaceOnUse">
      <feOffset dy="3" input="SourceAlpha"/>
      <feGaussianBlur stdDeviation="3" result="blur"/>
      <feFlood flood-opacity="0.161"/>
      <feComposite operator="in" in2="blur"/>
      <feComposite in="SourceGraphic"/>
    </filter>
  </defs>
  <g id="Group_1205624" data-name="Group 1205624" transform="translate(2906 6712)">
    <g id="Group_1204801" data-name="Group 1204801" transform="translate(-3697.781 -8668)">
      <g id="Group_1203409" data-name="Group 1203409" transform="translate(465 -1896)">
        <g transform="matrix(1, 0, 0, 1, 326.78, 3852)" filter="url(#Rectangle_411831)">
          <g id="Rectangle_411831-2" data-name="Rectangle 411831" transform="translate(9 6)" fill="#fecb20" stroke="#fff" stroke-width="2">
            <path d="M5,0H68a32,32,0,0,1,32,32V95a5,5,0,0,1-5,5H32A32,32,0,0,1,0,68V5A5,5,0,0,1,5,0Z" stroke="none"/>
            <path d="M5,1H68A31,31,0,0,1,99,32V95a4,4,0,0,1-4,4H32A31,31,0,0,1,1,68V5A4,4,0,0,1,5,1Z" fill="none"/>
          </g>
        </g>
      </g>
    </g>
    <g id="filtrar_1_" data-name="filtrar (1)" transform="translate(-2892.85 -6688)">
      <path id="Path_1261953" data-name="Path 1261953" d="M230.95,19.913c.148-.283.323-.565.484-.834l-1.83-2.61,3.014-3.014,2.61,1.843a13,13,0,0,1,4.279-1.749l.525-3.148h4.252l.525,3.148a12.65,12.65,0,0,1,4.279,1.749l2.61-1.884,3.014,3.027-1.843,2.61a13.266,13.266,0,0,1,1.763,4.292l3.135.525v4.238l-3.175.538a12.928,12.928,0,0,1-1.749,4.279l1.87,2.651L251.738,38.6l-2.61-1.843a13.29,13.29,0,0,1-4.279,1.749l-.525,3.148h-4.252l-.525-3.148a13.693,13.693,0,0,1-2.112-.632,13.158,13.158,0,0,1-2.166-1.117L232.632,38.6l-3.014-3.027,1.83-2.61a13.239,13.239,0,0,1-1.749-4.292l-3.148-.525V23.909l3.148-.525A12.568,12.568,0,0,1,230.95,19.913Zm16.738,6.068a5.51,5.51,0,1,0-5.517,5.517A5.515,5.515,0,0,0,247.688,25.981Z" transform="translate(-183.216 -9.001)" fill="#fdc75b"/>
      <g id="Group_1205623" data-name="Group 1205623" transform="translate(16.182 10.912)">
        <path id="Path_1261954" data-name="Path 1261954" d="M62.774,138.96l-.135.35-7.8,7.952v21.165l-10.8,5.4v-26.56L24.75,127.644V127.2H51.9v2.032l3.148.525a13.239,13.239,0,0,0,1.749,4.292l-1.83,2.61,3.014,3.027,2.61-1.843A12.774,12.774,0,0,0,62.774,138.96Z" transform="translate(-24.75 -120.997)" fill="#ed664c"/>
        <path id="Path_1261955" data-name="Path 1261955" d="M24.75,81.1H56.3a12.663,12.663,0,0,0-1.265,3.458l-3.148.525v2.207H24.75Z" transform="translate(-24.75 -81.1)" fill="#ed664c"/>
      </g>
      <path id="Path_1261956" data-name="Path 1261956" d="M71.294,10.1l1.991-2.826L68.67,2.651,65.845,4.682A14.078,14.078,0,0,0,62.8,3.418L62.225,0H55.7l-.579,3.418A14.54,14.54,0,0,0,52.08,4.682L49.255,2.7,44.64,7.32l1.588,2.234H16.182a1.35,1.35,0,0,0-1.332,1.359v6.647a1.311,1.311,0,0,0,.377.942L34.091,37.728V63.737a1.358,1.358,0,0,0,1.359,1.346,1.222,1.222,0,0,0,.605-.148l10.778-5.4a1.32,1.32,0,0,0,.713-1.2V37.728l7.145-7.239c.135.04.3.108.431.148l.592,3.418h6.526l.579-3.418a14.417,14.417,0,0,0,3.041-1.265L68.67,31.35l4.615-4.629-2.018-2.866A14.572,14.572,0,0,0,72.5,20.815l3.431-.579V13.724l-3.391-.579A14.788,14.788,0,0,0,71.294,10.1ZM45.676,12.244a8.654,8.654,0,0,0-.269.942l-3.377.579v1.978H17.541v-3.5Zm-.4,23.99a1.411,1.411,0,0,0-.417.942V57.507l-8.073,4.05V37.176a1.4,1.4,0,0,0-.377-.955L18.954,18.433H42.029V20.29l3.377.579a14.733,14.733,0,0,0,1.238,3.041l-1.991,2.826,4.615,4.629,2.664-1.884ZM73.245,17.963l-2.96.5-.188.9A11.525,11.525,0,0,1,68.536,23.2l-.484.767L69.8,26.426l-1.44,1.426-2.422-1.7-.753.471A11.935,11.935,0,0,1,61.337,28.2l-.9.2-.5,2.947H57.96l-.5-2.947-.888-.2a11.073,11.073,0,0,1-1.9-.579,12.494,12.494,0,0,1-1.938-1l-.767-.484-2.408,1.709-1.426-1.426,1.7-2.408-.471-.753A11.882,11.882,0,0,1,47.788,19.4l-.161-.9L44.72,18V16.038l2.906-.5.175-.9a11.262,11.262,0,0,1,1.13-3.095v-.013c.108-.215.256-.457.431-.74l.471-.753-1.7-2.422L49.564,6.2l2.422,1.709.753-.484a11.634,11.634,0,0,1,3.848-1.574l.9-.215.5-2.947h1.978l.5,2.947.9.2A11.324,11.324,0,0,1,65.2,7.414l.767.5L68.4,6.162l1.413,1.413L68.119,10l.471.753a12.154,12.154,0,0,1,1.588,3.862l.188.888,2.92.5v1.964Z"/>
      <path id="Path_1261957" data-name="Path 1261957" d="M298.7,75.2a6.862,6.862,0,1,0,6.862,6.862A6.862,6.862,0,0,0,298.7,75.2Zm0,11.033a4.171,4.171,0,1,1,4.171-4.171A4.163,4.163,0,0,1,298.7,86.233Z" transform="translate(-239.729 -65.082)"/>
    </g>
  </g>
</svg>
