<svg xmlns="http://www.w3.org/2000/svg" xmlns:xlink="http://www.w3.org/1999/xlink" width="89.445" height="89.444" viewBox="0 0 89.445 89.444">
  <defs>
    <clipPath id="clip-path">
      <path id="path5103" d="M0-682.665H52.665V-630H0Z" transform="translate(0 682.665)"/>
    </clipPath>
  </defs>
  <g id="Group_1205551" data-name="Group 1205551" transform="translate(-600 -3140.285)">
    <g id="Group_1204637" data-name="Group 1204637" transform="translate(-421.967 47.63)">
      <g id="Group_1200255" data-name="Group 1200255" transform="translate(1021.967 3092.655)">
        <g id="Group_1187152" data-name="Group 1187152" transform="translate(0 0)">
          <g id="Group_1185946" data-name="Group 1185946">
            <g id="Group_1184280" data-name="Group 1184280">
              <g id="Group_1182168" data-name="Group 1182168">
                <g id="Group_1178877" data-name="Group 1178877">
                  <g id="Group_1111311" data-name="Group 1111311">
                    <g id="Group_1098742" data-name="Group 1098742" transform="translate(0 0)">
                      <g id="Rectangle_400898" data-name="Rectangle 400898" transform="translate(0.001 0)" fill="#b8a9f1" stroke="#7f75a8" stroke-width="1" opacity="0.859">
                        <rect width="89.444" height="89.444" rx="44.722" stroke="none"/>
                        <rect x="0.5" y="0.5" width="88.444" height="88.444" rx="44.222" fill="none"/>
                      </g>
                      <g id="Rectangle_400907" data-name="Rectangle 400907" transform="translate(0 0)" fill="none" stroke="#7f75a8" stroke-width="1">
                        <rect width="89.444" height="89.444" rx="44.722" stroke="none"/>
                        <rect x="0.5" y="0.5" width="88.444" height="88.444" rx="44.222" fill="none"/>
                      </g>
                    </g>
                  </g>
                </g>
              </g>
            </g>
          </g>
        </g>
      </g>
    </g>
    <g id="g5097" transform="translate(618.39 3841.34)">
      <g id="g5099" transform="translate(0 -682.665)">
        <g id="g5101" transform="translate(0 0)" clip-path="url(#clip-path)">
          <g id="g5107" transform="translate(0.771 11.52)">
            <path id="path5109" d="M-592.359-393.75h-47.915a1.6,1.6,0,0,1-1.6-1.6v-29.708a1.6,1.6,0,0,1,1.6-1.6h47.915a1.6,1.6,0,0,1,1.6,1.6v29.708a1.6,1.6,0,0,1-1.6,1.6" transform="translate(641.877 426.666)" fill="#5793c9"/>
          </g>
          <g id="g5111" transform="translate(47.204 11.52)">
            <path id="path5113" d="M-36.914,0H-40a1.6,1.6,0,0,1,1.6,1.6V31.312a1.6,1.6,0,0,1-1.6,1.6h3.086a1.6,1.6,0,0,0,1.6-1.6V1.6a1.6,1.6,0,0,0-1.6-1.6" transform="translate(40)" fill="#4c87bd"/>
          </g>
          <path id="path5115" d="M50-493.332H94.95v26.744H50Z" transform="translate(-46.143 507.938)" fill="#b5fcff"/>
          <path id="path5117" d="M592.665-466.588h3.086v-26.744h-3.086Z" transform="translate(-546.943 507.938)" fill="#8cf2ff"/>
          <g id="g5119" transform="translate(11.52 48.808)">
            <path id="path5121" d="M-335.918-36.914h-26.538A1.543,1.543,0,0,1-364-38.457,1.543,1.543,0,0,1-362.456-40h26.538a1.543,1.543,0,0,1,1.543,1.543,1.543,1.543,0,0,1-1.543,1.543" transform="translate(363.999 40)" fill="#5793c9"/>
          </g>
          <g id="g5123" transform="translate(36.503 48.808)">
            <path id="path5125" d="M-37.069,0h-3.1a1.543,1.543,0,0,1,1.543,1.543,1.543,1.543,0,0,1-1.543,1.543h3.1a1.543,1.543,0,0,0,1.543-1.543A1.543,1.543,0,0,0-37.069,0" transform="translate(40.168)" fill="#4c87bd"/>
          </g>
          <path id="path5127" d="M290.59-102.295h-9.258v-4.372h9.258Z" transform="translate(-259.629 151.102)" fill="#b5fcff"/>
          <path id="path5129" d="M290.59-102.295h-9.258v-4.372h9.258Z" transform="translate(-259.629 151.102)" fill="#dcdfe8"/>
          <path id="path5131" d="M364.418-102.295h-3.086v-4.372h3.086Z" transform="translate(-333.457 151.102)" fill="#cbcdd9"/>
          <g id="g5133" transform="translate(17.538 19.595)">
            <path id="path5135" d="M-86.256-27.39a.018.018,0,0,0,.012-.017c0-.1.112-.65.227-1.185a1.376,1.376,0,0,1,1.346-1.088,1.376,1.376,0,0,1,1.346,1.088c.114.535.227,1.086.227,1.185a.018.018,0,0,0,.011.017l1.9.786a.018.018,0,0,0,.02,0c.07-.07.539-.38,1-.678a1.376,1.376,0,0,1,1.721.182,1.376,1.376,0,0,1,.182,1.721c-.3.459-.607.928-.678,1a.018.018,0,0,0,0,.02l.786,1.9a.018.018,0,0,0,.017.011c.1,0,.65.112,1.185.227a1.376,1.376,0,0,1,1.088,1.346,1.376,1.376,0,0,1-1.088,1.346c-.535.115-1.085.227-1.185.227a.018.018,0,0,0-.017.012l-.785,1.9a.019.019,0,0,0,0,.02c.07.07.38.539.678,1a1.376,1.376,0,0,1-.182,1.721,1.376,1.376,0,0,1-1.721.182c-.459-.3-.928-.607-1-.678a.018.018,0,0,0-.02,0l-1.9.785a.019.019,0,0,0-.012.017c0,.1-.112.65-.227,1.185a1.376,1.376,0,0,1-1.346,1.088,1.376,1.376,0,0,1-1.346-1.088c-.114-.535-.227-1.086-.227-1.185a.019.019,0,0,0-.012-.017l-1.9-.785a.018.018,0,0,0-.02,0c-.07.07-.539.38-1,.678a1.376,1.376,0,0,1-1.721-.182,1.376,1.376,0,0,1-.182-1.721c.3-.459.607-.928.678-1a.019.019,0,0,0,0-.02l-.785-1.9a.019.019,0,0,0-.017-.012c-.1,0-.65-.112-1.185-.227a1.376,1.376,0,0,1-1.088-1.346,1.376,1.376,0,0,1,1.088-1.346c.535-.114,1.085-.227,1.185-.227a.019.019,0,0,0,.017-.012l.785-1.9a.019.019,0,0,0,0-.02c-.07-.07-.38-.539-.678-1a1.376,1.376,0,0,1,.182-1.721,1.376,1.376,0,0,1,1.721-.182c.459.3.928.607,1,.678a.019.019,0,0,0,.02,0Z" transform="translate(93.466 29.68)" fill="#ff4b26"/>
          </g>
          <g id="g5137" transform="translate(23.465 25.522)">
            <path id="path5139" d="M-68.612-34.307a2.868,2.868,0,0,1-2.868,2.868,2.868,2.868,0,0,1-2.868-2.868,2.868,2.868,0,0,1,2.868-2.868,2.868,2.868,0,0,1,2.868,2.868" transform="translate(74.348 37.175)" fill="#5793c9"/>
          </g>
          <g id="g5141" transform="translate(6.275 2.314)">
            <path id="path5143" d="M-201.8-175.957h-15.018a1.852,1.852,0,0,1-1.852-1.852v-11.006a1.852,1.852,0,0,1,1.852-1.852H-201.8a1.852,1.852,0,0,1,1.852,1.852v11.006a1.852,1.852,0,0,1-1.852,1.852" transform="translate(218.666 190.666)" fill="#47d5e6"/>
          </g>
          <g id="g5145" transform="translate(20.058 2.314)">
            <path id="path5147" d="M-36.914,0H-40a1.852,1.852,0,0,1,1.852,1.852V12.858A1.852,1.852,0,0,1-40,14.709h3.086a1.852,1.852,0,0,0,1.852-1.852V1.852A1.852,1.852,0,0,0-36.914,0" transform="translate(40)" fill="#22c0d4"/>
          </g>
          <g id="g5149" transform="translate(31.373 0.771)">
            <path id="path5151" d="M-155.039-177.187h-11.109A1.852,1.852,0,0,1-168-179.039v-11.109A1.852,1.852,0,0,1-166.148-192h11.109a1.852,1.852,0,0,1,1.852,1.852v11.109a1.852,1.852,0,0,1-1.852,1.852" transform="translate(168 192)" fill="#47d5e6"/>
          </g>
          <g id="g5153" transform="translate(41.247 0.771)">
            <path id="path5155" d="M-36.914,0H-40a1.852,1.852,0,0,1,1.852,1.852V12.961A1.852,1.852,0,0,1-40,14.812h3.086a1.852,1.852,0,0,0,1.852-1.852V1.852A1.852,1.852,0,0,0-36.914,0" transform="translate(40)" fill="#22c0d4"/>
          </g>
          <g id="g5157" transform="translate(33.738 3.086)">
            <path id="path5159" d="M-123.047-62.45a5.182,5.182,0,0,0-5.143-5.221,5.182,5.182,0,0,0-5.143,5.221,5.237,5.237,0,0,0,2.183,4.269,2.244,2.244,0,0,1,.922,1.828h4.077a2.244,2.244,0,0,1,.922-1.828,5.237,5.237,0,0,0,2.183-4.269" transform="translate(133.333 67.67)" fill="#ffd659"/>
          </g>
          <g id="g5161" transform="translate(37.339 3.086)">
            <path id="path5163" d="M-18.457,0A5.067,5.067,0,0,0-20,.239a5.214,5.214,0,0,1,3.6,4.981A5.237,5.237,0,0,1-18.582,9.49a2.244,2.244,0,0,0-.922,1.828h3.086A2.244,2.244,0,0,1-15.5,9.49a5.237,5.237,0,0,0,2.183-4.269A5.182,5.182,0,0,0-18.457,0" transform="translate(20)" fill="#ffbd54"/>
          </g>
          <g id="g5165" transform="translate(36.422 14.403)">
            <path id="path5167" d="M-54.56,0h-4.2a.358.358,0,0,0-.358.358V.964A2.12,2.12,0,0,0-57,3.083h.68A2.12,2.12,0,0,0-54.2.964V.358A.358.358,0,0,0-54.56,0" transform="translate(59.121)" fill="#5793c9"/>
          </g>
          <g id="g5169" transform="translate(24.224 10.749)">
            <path id="path5171" d="M-85.518-8.457h-6.377a.771.771,0,0,1-.771-.771A.771.771,0,0,1-91.895-10h6.377a.771.771,0,0,1,.771.771A.771.771,0,0,1-85.518-8.457Z" transform="translate(92.666 10)"/>
          </g>
          <g id="g5173" transform="translate(0 10.749)">
            <path id="path5175" d="M-9.229-67.212A.771.771,0,0,1-10-67.983v-3.308a2.378,2.378,0,0,1,2.375-2.375h3.9a.771.771,0,0,1,.771.771.771.771,0,0,1-.771.771h-3.9a.833.833,0,0,0-.832.832v3.308A.771.771,0,0,1-9.229-67.212Z" transform="translate(10 73.666)"/>
          </g>
          <g id="g5177" transform="translate(0 10.749)">
            <path id="path5179" d="M-548.375,24.459H-596.29a2.378,2.378,0,0,1-2.375-2.375V-1.025a.772.772,0,0,1,.771-.771.771.771,0,0,1,.771.771V22.083a.833.833,0,0,0,.832.832h47.915a.833.833,0,0,0,.832-.832V-7.625a.833.833,0,0,0-.832-.832h-4.105a.771.771,0,0,1-.771-.771.771.771,0,0,1,.771-.771h4.105A2.378,2.378,0,0,1-546-7.625V22.083A2.378,2.378,0,0,1-548.375,24.459Z" transform="translate(598.665 10)"/>
          </g>
          <g id="g5181" transform="translate(3.086 13.835)">
            <path id="path5183" d="M-474.961-328.379h-38.933a.771.771,0,0,1-.771-.771v-26.744a.771.771,0,0,1,.771-.771h2.417a.771.771,0,0,1,.771.771.771.771,0,0,1-.771.771h-1.646v25.2h38.162a.771.771,0,0,1,.771.771A.771.771,0,0,1-474.961-328.379Z" transform="translate(514.665 356.666)"/>
          </g>
          <g id="g5185" transform="translate(45.194 13.835)">
            <path id="path5187" d="M-6.386,18.287h-2.7a.771.771,0,0,1-.771-.771.771.771,0,0,1,.771-.771h1.929v-25.2H-9.229A.771.771,0,0,1-10-9.229.771.771,0,0,1-9.229-10h2.842a.771.771,0,0,1,.771.771V17.515A.771.771,0,0,1-6.386,18.287Z" transform="translate(10 10)"/>
          </g>
          <g id="g5189" transform="translate(24.224 13.835)">
            <path id="path5191" d="M-88.138-8.457h-6.6a.771.771,0,0,1-.771-.771A.771.771,0,0,1-94.735-10h6.6a.771.771,0,0,1,.771.771A.771.771,0,0,1-88.138-8.457Z" transform="translate(95.506 10)"/>
          </g>
          <g id="g5193" transform="translate(10.749 48.036)">
            <path id="path5195" d="M-345.146-45.371h-26.538A2.317,2.317,0,0,1-374-47.685,2.317,2.317,0,0,1-371.685-50h26.538a2.317,2.317,0,0,1,2.314,2.314A2.317,2.317,0,0,1-345.146-45.371Zm-26.538-3.086a.772.772,0,0,0-.771.771.772.772,0,0,0,.771.771h26.538a.772.772,0,0,0,.771-.771.772.772,0,0,0-.771-.771Z" transform="translate(373.999 50)"/>
          </g>
          <path id="path5197" d="M281.362-110.752H272.1a.771.771,0,0,1-.771-.771v-4.372a.771.771,0,0,1,.771-.771h9.258a.771.771,0,0,1,.771.771v4.372A.771.771,0,0,1,281.362-110.752Zm-8.486-1.543h7.715v-2.829h-7.715Z" transform="translate(-250.4 160.331)"/>
          <g id="g5199" transform="translate(16.766 18.824)">
            <path id="path5201" d="M-93.9-39.68a2.158,2.158,0,0,1,2.1,1.7c.078.365.131.624.167.811l1.12.464c.158-.107.379-.253.692-.455a2.142,2.142,0,0,1,1.167-.345,2.134,2.134,0,0,1,1.519.629,2.158,2.158,0,0,1,.284,2.686c-.2.313-.348.534-.455.692l.464,1.12c.187.036.446.089.811.167a2.159,2.159,0,0,1,1.7,2.1,2.158,2.158,0,0,1-1.7,2.1c-.365.078-.624.131-.811.167l-.464,1.119c.107.158.253.379.455.692a2.158,2.158,0,0,1-.284,2.686,2.134,2.134,0,0,1-1.519.629,2.142,2.142,0,0,1-1.166-.345c-.313-.2-.534-.349-.692-.455l-1.12.464c-.036.187-.089.446-.167.811a2.158,2.158,0,0,1-2.1,1.7,2.159,2.159,0,0,1-2.1-1.7c-.078-.365-.131-.624-.167-.811l-1.12-.464c-.158.107-.379.253-.691.455a2.143,2.143,0,0,1-1.167.345,2.134,2.134,0,0,1-1.519-.629,2.159,2.159,0,0,1-.284-2.686c.2-.313.348-.534.455-.692l-.464-1.12c-.187-.036-.446-.089-.811-.167a2.158,2.158,0,0,1-1.7-2.1,2.159,2.159,0,0,1,1.7-2.1c.365-.078.624-.131.811-.167l.464-1.12c-.107-.158-.253-.379-.455-.692a2.159,2.159,0,0,1,.284-2.686,2.134,2.134,0,0,1,1.519-.629,2.142,2.142,0,0,1,1.167.345c.313.2.534.348.692.455l1.119-.464c.036-.187.089-.446.167-.811A2.159,2.159,0,0,1-93.9-39.68Zm.8,3.046s-.033-.2-.209-1.025a.608.608,0,0,0-.591-.478.608.608,0,0,0-.591.478c-.185.865-.208,1.042-.211,1.069a.74.74,0,0,1-.493.687l-1.889.782a.811.811,0,0,1-.3.06.806.806,0,0,1-.558-.231c.013.014-.13-.1-.872-.575a.6.6,0,0,0-.328-.1.6.6,0,0,0-.428.177.608.608,0,0,0-.08.756c.48.742.59.884.607.905a.74.74,0,0,1,.137.833l-.783,1.89a.806.806,0,0,1-.73.488c.019,0-.159.024-1.023.21a.608.608,0,0,0-.478.591.608.608,0,0,0,.478.591c.863.185,1.042.209,1.069.211a.742.742,0,0,1,.683.484l.786,1.9a.806.806,0,0,1-.166.856c.009-.007-.1.135-.581.877a.608.608,0,0,0,.08.756.6.6,0,0,0,.428.177.6.6,0,0,0,.328-.1c.742-.481.885-.59.905-.607a.7.7,0,0,1,.524-.2.811.811,0,0,1,.305.061l1.893.784a.806.806,0,0,1,.488.73c0-.019.024.158.209,1.023a.608.608,0,0,0,.591.478.608.608,0,0,0,.591-.478c.185-.864.209-1.042.211-1.069a.74.74,0,0,1,.484-.683l1.9-.786a.812.812,0,0,1,.3-.06.806.806,0,0,1,.564.237c-.018-.02.124.089.866.57a.6.6,0,0,0,.328.1.6.6,0,0,0,.428-.177.608.608,0,0,0,.08-.756c-.48-.742-.589-.884-.606-.905a.739.739,0,0,1-.143-.821l.788-1.9a.806.806,0,0,1,.73-.488c-.019,0,.16-.025,1.023-.209a.608.608,0,0,0,.478-.591.608.608,0,0,0-.478-.591c-.864-.185-1.042-.209-1.069-.211a.741.741,0,0,1-.685-.489l-.784-1.893a.805.805,0,0,1,.166-.855c-.008.007.1-.136.581-.877a.608.608,0,0,0-.08-.756.6.6,0,0,0-.428-.177.6.6,0,0,0-.328.1c-.742.48-.884.589-.905.606a.7.7,0,0,1-.525.2.81.81,0,0,1-.3-.057l-1.9-.788a.805.805,0,0,1-.488-.729Z" transform="translate(103.466 39.68)"/>
          </g>
          <g id="g5203" transform="translate(22.693 24.75)">
            <path id="path5205" d="M-80.708-47.175a3.643,3.643,0,0,1,3.639,3.639A3.643,3.643,0,0,1-80.708-39.9a3.643,3.643,0,0,1-3.639-3.639A3.643,3.643,0,0,1-80.708-47.175Zm0,5.736a2.1,2.1,0,0,0,2.1-2.1,2.1,2.1,0,0,0-2.1-2.1,2.1,2.1,0,0,0-2.1,2.1A2.1,2.1,0,0,0-80.708-41.439Z" transform="translate(84.348 47.175)"/>
          </g>
          <g id="g5207" transform="translate(30.601)">
            <path id="path5209" d="M-125.334-185.645h-3a.771.771,0,0,1-.771-.771.771.771,0,0,1,.771-.771h3a1.081,1.081,0,0,0,1.08-1.08v-11.109a1.081,1.081,0,0,0-1.08-1.08h-11.109a1.081,1.081,0,0,0-1.08,1.08v11.109a1.081,1.081,0,0,0,1.08,1.08h3.209a.771.771,0,0,1,.771.771.771.771,0,0,1-.771.771h-3.209a2.626,2.626,0,0,1-2.623-2.623v-11.109A2.626,2.626,0,0,1-136.443-202h11.109a2.626,2.626,0,0,1,2.623,2.623v11.109A2.626,2.626,0,0,1-125.334-185.645Z" transform="translate(139.066 202)"/>
          </g>
          <g id="g5211" transform="translate(5.503 1.543)">
            <path id="path5213" d="M-211.025-184.414h-15.018a2.626,2.626,0,0,1-2.623-2.623v-11.006a2.626,2.626,0,0,1,2.623-2.623h15.018a2.626,2.626,0,0,1,2.623,2.623v11.006A2.626,2.626,0,0,1-211.025-184.414Zm-15.018-14.709a1.081,1.081,0,0,0-1.08,1.08v11.006a1.081,1.081,0,0,0,1.08,1.08h15.018a1.081,1.081,0,0,0,1.08-1.08v-11.006a1.081,1.081,0,0,0-1.08-1.08Z" transform="translate(228.666 200.666)"/>
          </g>
          <g id="g5215" transform="translate(14.353 16.252)">
            <path id="path5217" d="M-6.815,8.434H-9.228A.771.771,0,0,1-10,7.662V-9.229A.771.771,0,0,1-9.228-10a.771.771,0,0,1,.771.771V6.891h1.642a.771.771,0,0,1,.771.771A.771.771,0,0,1-6.815,8.434Z" transform="translate(10 10)"/>
          </g>
          <g id="g5219" transform="translate(8.692 5.574)">
            <path id="path5221" d="M-9.228-8.463A.771.771,0,0,1-10-9.235a.771.771,0,0,1,.771-.772H-3.2a.771.771,0,0,1,.772.771.771.771,0,0,1-.771.772Z" transform="translate(10 10.007)"/>
          </g>
          <g id="g5223" transform="translate(8.692 8.66)">
            <path id="path5225" d="M-9.229-8.461A.771.771,0,0,1-10-9.232.771.771,0,0,1-9.229-10H3.115a.771.771,0,0,1,.771.771.771.771,0,0,1-.771.771Z" transform="translate(10 10.004)"/>
          </g>
          <g id="g5227" transform="translate(8.692 11.746)">
            <path id="path5229" d="M-9.229-8.461A.771.771,0,0,1-10-9.232.771.771,0,0,1-9.229-10H3.115a.771.771,0,0,1,.771.771.771.771,0,0,1-.771.771Z" transform="translate(10 10.004)"/>
          </g>
          <g id="g5231" transform="translate(32.967 2.314)">
            <path id="path5233" d="M-93.533-1.985h-4.077a.771.771,0,0,1-.771-.771,1.471,1.471,0,0,0-.6-1.2,6.028,6.028,0,0,1-2.5-4.9,5.96,5.96,0,0,1,5.915-5.992,5.818,5.818,0,0,1,2.206.431.771.771,0,0,1,.423,1.006.771.771,0,0,1-1.006.423,4.282,4.282,0,0,0-1.624-.317,4.416,4.416,0,0,0-4.372,4.449,4.482,4.482,0,0,0,1.86,3.642,2.988,2.988,0,0,1,1.146,1.684h2.73A2.988,2.988,0,0,1-93.06-5.212,4.482,4.482,0,0,0-91.2-8.853a4.5,4.5,0,0,0-.65-2.336.771.771,0,0,1,.259-1.06.771.771,0,0,1,1.06.259,6.039,6.039,0,0,1,.874,3.137,6.028,6.028,0,0,1-2.5,4.9,1.471,1.471,0,0,0-.6,1.2A.771.771,0,0,1-93.533-1.985Z" transform="translate(101.486 14.845)"/>
          </g>
          <g id="g5235" transform="translate(35.65 13.632)">
            <path id="path5237" d="M-67.991-10h4.2a1.123,1.123,0,0,1,.8.331,1.123,1.123,0,0,1,.331.8v.605A2.9,2.9,0,0,1-65.55-5.374h-.68a2.9,2.9,0,0,1-2.891-2.891V-8.87A1.131,1.131,0,0,1-67.991-10Zm3.79,1.543h-3.377v.192A1.35,1.35,0,0,0-66.23-6.917h.68A1.35,1.35,0,0,0-64.2-8.265Z" transform="translate(69.121 10)"/>
          </g>
          <g id="g5239" transform="translate(34.819 16.715)">
            <path id="path5241" d="M-48.6-1.428H-51.9a.771.771,0,0,1-.771-.771.771.771,0,0,1,.771-.771h2.52V-9.229A.771.771,0,0,1-48.6-10a.771.771,0,0,1,.771.771V-2.2A.771.771,0,0,1-48.6-1.428Z" transform="translate(52.667 10)"/>
          </g>
        </g>
      </g>
    </g>
  </g>
</svg>
