<svg xmlns="http://www.w3.org/2000/svg" width="89.445" height="89.444" viewBox="0 0 89.445 89.444">
  <g id="Group_1205554" data-name="Group 1205554" transform="translate(-915.051 -3140)">
    <g id="Group_1204638" data-name="Group 1204638" transform="translate(-106.916 47.345)">
      <g id="Group_1200255" data-name="Group 1200255" transform="translate(1021.967 3092.655)">
        <g id="Group_1187152" data-name="Group 1187152" transform="translate(0 0)">
          <g id="Group_1185946" data-name="Group 1185946">
            <g id="Group_1184280" data-name="Group 1184280">
              <g id="Group_1182168" data-name="Group 1182168">
                <g id="Group_1178877" data-name="Group 1178877">
                  <g id="Group_1111311" data-name="Group 1111311">
                    <g id="Group_1098742" data-name="Group 1098742" transform="translate(0 0)">
                      <g id="Rectangle_400898" data-name="Rectangle 400898" transform="translate(0.001 0)" fill="#b8a9f1" stroke="#7f75a8" stroke-width="1" opacity="0.859">
                        <rect width="89.444" height="89.444" rx="44.722" stroke="none"/>
                        <rect x="0.5" y="0.5" width="88.444" height="88.444" rx="44.222" fill="none"/>
                      </g>
                      <g id="Rectangle_400907" data-name="Rectangle 400907" transform="translate(0 0)" fill="none" stroke="#7f75a8" stroke-width="1">
                        <rect width="89.444" height="89.444" rx="44.722" stroke="none"/>
                        <rect x="0.5" y="0.5" width="88.444" height="88.444" rx="44.222" fill="none"/>
                      </g>
                    </g>
                  </g>
                </g>
              </g>
            </g>
          </g>
        </g>
      </g>
    </g>
    <g id="error" transform="translate(935.051 3160)">
      <g id="Group_1205552" data-name="Group 1205552" transform="translate(0.718 0.718)">
        <path id="Path_1261668" data-name="Path 1261668" d="M55.094,101.642V129.95a7.5,7.5,0,0,1-7.5,7.5H15a7.5,7.5,0,0,1-7.5-7.5V101.642L31.3,98.58Z" transform="translate(-7.5 -89.858)" fill="#90d3f1"/>
        <path id="Path_1261669" data-name="Path 1261669" d="M55.094,15v4.282H7.5V15A7.5,7.5,0,0,1,15,7.5h32.59A7.5,7.5,0,0,1,55.094,15Z" transform="translate(-7.5 -7.5)" fill="#5c84d9"/>
        <path id="Path_1261670" data-name="Path 1261670" d="M10.907,137.928a44.359,44.359,0,0,1,2.936-15.893l-6.343.816V151.16a7.5,7.5,0,0,0,7.5,7.5h1.026a44.521,44.521,0,0,1-5.122-20.733Z" transform="translate(-7.5 -111.068)" fill="#59c2e7"/>
        <path id="Path_1261671" data-name="Path 1261671" d="M19.872,7.5H15A7.5,7.5,0,0,0,7.5,15v4.282h6.04A46.1,46.1,0,0,1,19.872,7.5Z" transform="translate(-7.5 -7.5)" fill="#4677d4"/>
        <path id="Path_1261672" data-name="Path 1261672" d="M78.3,219.2a.8.8,0,0,1-.8-.8V197.3a.8.8,0,0,1,.8-.8h32.59a.8.8,0,0,1,.8.8v21.1a.8.8,0,0,1-.8.8Z" transform="translate(-70.797 -178.401)" fill="#ff748f"/>
        <circle id="Ellipse_13672" data-name="Ellipse 13672" cx="2.065" cy="2.065" r="2.065" transform="translate(6.703 3.827)" fill="#ff748f"/>
        <circle id="Ellipse_13673" data-name="Ellipse 13673" cx="2.065" cy="2.065" r="2.065" transform="translate(14.243 3.827)" fill="#90d3f1"/>
        <circle id="Ellipse_13674" data-name="Ellipse 13674" cx="2.065" cy="2.065" r="2.065" transform="translate(21.783 3.827)" fill="#fff"/>
      </g>
      <g id="Group_1205553" data-name="Group 1205553">
        <path id="Path_1261673" data-name="Path 1261673" d="M105.624,211.616v-21.1A1.518,1.518,0,0,0,104.107,189H71.517A1.518,1.518,0,0,0,70,190.517v21.1a1.518,1.518,0,0,0,1.517,1.517h32.59A1.518,1.518,0,0,0,105.624,211.616Zm-34.187,0v-21.1a.081.081,0,0,1,.08-.08h32.59a.081.081,0,0,1,.08.08v21.1a.081.081,0,0,1-.08.08H71.517A.081.081,0,0,1,71.436,211.616Z" transform="translate(-63.297 -170.901)"/>
        <path id="Path_1261674" data-name="Path 1261674" d="M40.81,0H8.22A8.23,8.23,0,0,0,0,8.22V40.81a8.23,8.23,0,0,0,8.22,8.22H15.1a.718.718,0,1,0,0-1.436H8.22A6.792,6.792,0,0,1,1.436,40.81V13.221h33.3a.718.718,0,1,0,0-1.436H1.436V8.22A6.792,6.792,0,0,1,8.22,1.436H40.81A6.792,6.792,0,0,1,47.594,8.22v3.564H37.6a.718.718,0,0,0,0,1.436h9.989V40.81a6.791,6.791,0,0,1-6.784,6.784H17.97a.718.718,0,1,0,0,1.436H40.81a8.23,8.23,0,0,0,8.22-8.22V8.22A8.23,8.23,0,0,0,40.81,0Z"/>
        <path id="Path_1261675" data-name="Path 1261675" d="M70,42.749a2.783,2.783,0,1,0,2.783-2.783A2.786,2.786,0,0,0,70,42.749Zm4.13,0A1.347,1.347,0,1,1,72.783,41.4,1.348,1.348,0,0,1,74.13,42.749Z" transform="translate(-63.297 -36.139)"/>
        <path id="Path_1261676" data-name="Path 1261676" d="M148.734,42.749a2.783,2.783,0,1,0,2.783-2.783A2.786,2.786,0,0,0,148.734,42.749Zm4.13,0a1.347,1.347,0,1,1-1.347-1.347A1.348,1.348,0,0,1,152.864,42.749Z" transform="translate(-134.491 -36.139)"/>
        <path id="Path_1261677" data-name="Path 1261677" d="M227.469,42.749a2.783,2.783,0,1,0,2.783-2.783A2.786,2.786,0,0,0,227.469,42.749Zm4.13,0a1.347,1.347,0,1,1-1.347-1.347A1.348,1.348,0,0,1,231.6,42.749Z" transform="translate(-205.686 -36.139)"/>
        <path id="Path_1261678" data-name="Path 1261678" d="M158.37,237.631,159,237l.631.631a.718.718,0,0,0,1.016-1.016l-.631-.631.631-.631a.718.718,0,0,0-1.016-1.016l-.631.631-.631-.631a.718.718,0,0,0-1.016,1.016l.631.631-.631.631a.718.718,0,1,0,1.016,1.016Z" transform="translate(-142.096 -211.707)"/>
        <path id="Path_1261679" data-name="Path 1261679" d="M319.573,236.615l-.631-.631.631-.631a.718.718,0,0,0-1.016-1.016l-.631.631-.631-.631a.718.718,0,0,0-1.016,1.016l.631.631-.631.631a.718.718,0,0,0,1.016,1.016l.631-.631.631.631a.718.718,0,0,0,1.016-1.016Z" transform="translate(-285.802 -211.706)"/>
        <path id="Path_1261680" data-name="Path 1261680" d="M215.4,270.906a.718.718,0,1,0,.7-1.254,2.358,2.358,0,0,0-2.287,0,.912.912,0,0,1-.884,0,2.358,2.358,0,0,0-2.287,0,.912.912,0,0,1-.884,0,2.357,2.357,0,0,0-2.287,0,.718.718,0,0,0,.7,1.254.912.912,0,0,1,.884,0,2.357,2.357,0,0,0,2.287,0,.912.912,0,0,1,.884,0,2.357,2.357,0,0,0,2.287,0A.912.912,0,0,1,215.4,270.906Z" transform="translate(-187.274 -243.562)"/>
        <path id="Path_1261681" data-name="Path 1261681" d="M118.8,322.855a.718.718,0,1,0,0-1.436h-2.2a.718.718,0,0,0-.718.718v5.219a.718.718,0,0,0,.718.718h2.2a.718.718,0,1,0,0-1.436h-1.481v-1.173h1.319a.718.718,0,1,0,0-1.436h-1.319v-1.173H118.8Z" transform="translate(-104.785 -290.639)"/>
        <path id="Path_1261682" data-name="Path 1261682" d="M168.046,323.005a2.129,2.129,0,0,0-2.165-2.087h-1.4a.718.718,0,0,0-.718.718V326.9a.718.718,0,1,0,1.436,0v-1.333l1.591,1.807a.718.718,0,1,0,1.078-.949l-1.278-1.452A2.1,2.1,0,0,0,168.046,323.005Zm-2.165.651-.676,0c0-.65,0-.49,0-1.3h.679a.655.655,0,1,1,0,1.3Z" transform="translate(-148.08 -290.186)"/>
        <path id="Path_1261683" data-name="Path 1261683" d="M223.967,323.005a2.129,2.129,0,0,0-2.165-2.087h-1.4a.718.718,0,0,0-.718.718V326.9a.718.718,0,1,0,1.436,0v-1.333l1.591,1.807a.718.718,0,1,0,1.078-.949l-1.278-1.452A2.1,2.1,0,0,0,223.967,323.005Zm-2.165.651-.676,0c0-.65,0-.49,0-1.3h.679a.655.655,0,1,1,0,1.3Z" transform="translate(-198.646 -290.186)"/>
        <path id="Path_1261684" data-name="Path 1261684" d="M355.664,323.005a2.129,2.129,0,0,0-2.165-2.087h-1.4a.718.718,0,0,0-.718.718V326.9a.718.718,0,1,0,1.436,0v-1.333l1.591,1.807a.718.718,0,1,0,1.078-.949l-1.278-1.452A2.1,2.1,0,0,0,355.664,323.005Zm-2.165.651-.676,0c0-.65,0-.49,0-1.3h.679a.655.655,0,1,1,0,1.3Z" transform="translate(-317.731 -290.186)"/>
        <path id="Path_1261685" data-name="Path 1261685" d="M276.194,320.917a3.352,3.352,0,1,0,3.352,3.352A3.356,3.356,0,0,0,276.194,320.917Zm0,5.267a1.915,1.915,0,1,1,1.915-1.915A1.918,1.918,0,0,1,276.194,326.184Z" transform="translate(-246.714 -290.185)"/>
      </g>
    </g>
  </g>
</svg>
