<svg xmlns="http://www.w3.org/2000/svg" width="89.444" height="89.444" viewBox="0 0 89.444 89.444">
  <g id="Group_1205561" data-name="Group 1205561" transform="translate(-1230.051 -3140)">
    <g id="Group_1204639" data-name="Group 1204639" transform="translate(208.084 47.345)">
      <g id="Group_1200255" data-name="Group 1200255" transform="translate(1021.967 3092.655)">
        <g id="Group_1187152" data-name="Group 1187152" transform="translate(0 0)">
          <g id="Group_1185946" data-name="Group 1185946">
            <g id="Group_1184280" data-name="Group 1184280">
              <g id="Group_1182168" data-name="Group 1182168">
                <g id="Group_1178877" data-name="Group 1178877">
                  <g id="Group_1111311" data-name="Group 1111311">
                    <g id="Group_1098742" data-name="Group 1098742" transform="translate(0 0)">
                      <g id="Rectangle_400898" data-name="Rectangle 400898" transform="translate(0.001 0)" fill="#b8a9f1" stroke="#7f75a8" stroke-width="1" opacity="0.859">
                        <rect width="89.444" height="89.444" rx="44.722" stroke="none"/>
                        <rect x="0.5" y="0.5" width="88.444" height="88.444" rx="44.222" fill="none"/>
                      </g>
                      <g id="Rectangle_400907" data-name="Rectangle 400907" transform="translate(0 0)" fill="none" stroke="#7f75a8" stroke-width="1">
                        <rect width="89.444" height="89.444" rx="44.722" stroke="none"/>
                        <rect x="0.5" y="0.5" width="88.444" height="88.444" rx="44.222" fill="none"/>
                      </g>
                    </g>
                  </g>
                </g>
              </g>
            </g>
          </g>
        </g>
      </g>
    </g>
    <g id="calendario" transform="translate(1246.051 3133.876)">
      <g id="Group_1205559" data-name="Group 1205559" transform="translate(0.846 25.97)">
        <path id="Path_1261686" data-name="Path 1261686" d="M55.532,95.864H12.668L7.5,99.658v26.891a4.145,4.145,0,0,0,4.146,4.146H54.793a3.826,3.826,0,0,0,3.826-3.825V99.658Z" transform="translate(-7.501 -88.73)" fill="#f9f7f8"/>
        <path id="Path_1261687" data-name="Path 1261687" d="M259.967,218.841A16,16,0,0,0,244.75,239.8h19.831a3.826,3.826,0,0,0,3.826-3.825v-14.72A15.906,15.906,0,0,0,259.967,218.841Z" transform="translate(-217.29 -197.835)" fill="#efedef"/>
        <circle id="Ellipse_13675" data-name="Ellipse 13675" cx="13.183" cy="13.183" r="13.183" transform="translate(29.494 23.826)" fill="#9cf8d2"/>
        <path id="Path_1261688" data-name="Path 1261688" d="M272.945,257.024a13.186,13.186,0,0,1,11.194-13.034,13.183,13.183,0,1,0,0,26.068A13.186,13.186,0,0,1,272.945,257.024Z" transform="translate(-239.472 -220.015)" fill="#6cf5c2"/>
        <path id="Path_1261689" data-name="Path 1261689" d="M56.928,175.207H54.419a1.114,1.114,0,0,1-1.114-1.114v-2.509a1.114,1.114,0,0,1,1.114-1.114h2.509a1.114,1.114,0,0,1,1.114,1.114v2.509A1.114,1.114,0,0,1,56.928,175.207Z" transform="translate(-48.138 -154.921)" fill="#f79595"/>
        <path id="Path_1261690" data-name="Path 1261690" d="M136.449,175.207H133.94a1.114,1.114,0,0,1-1.114-1.114v-2.509a1.114,1.114,0,0,1,1.114-1.114h2.509a1.114,1.114,0,0,1,1.114,1.114v2.509A1.114,1.114,0,0,1,136.449,175.207Z" transform="translate(-118.689 -154.921)" fill="#d4f2f6"/>
        <path id="Path_1261691" data-name="Path 1261691" d="M215.97,175.207h-2.509a1.114,1.114,0,0,1-1.114-1.114v-2.509a1.114,1.114,0,0,1,1.114-1.114h2.509a1.114,1.114,0,0,1,1.114,1.114v2.509A1.114,1.114,0,0,1,215.97,175.207Z" transform="translate(-189.24 -154.921)" fill="#d4f2f6"/>
        <path id="Path_1261692" data-name="Path 1261692" d="M295.492,175.207h-2.509a1.114,1.114,0,0,1-1.114-1.114v-2.509a1.114,1.114,0,0,1,1.114-1.114h2.509a1.114,1.114,0,0,1,1.114,1.114v2.509A1.114,1.114,0,0,1,295.492,175.207Z" transform="translate(-259.791 -154.921)" fill="#d4f2f6"/>
        <path id="Path_1261693" data-name="Path 1261693" d="M375.013,175.207H372.5a1.114,1.114,0,0,1-1.114-1.114v-2.509a1.114,1.114,0,0,1,1.114-1.114h2.509a1.114,1.114,0,0,1,1.114,1.114v2.509A1.114,1.114,0,0,1,375.013,175.207Z" transform="translate(-330.342 -154.921)" fill="#d4f2f6"/>
        <path id="Path_1261694" data-name="Path 1261694" d="M56.928,250.968H54.419a1.114,1.114,0,0,1-1.114-1.114v-2.509a1.114,1.114,0,0,1,1.114-1.114h2.509a1.114,1.114,0,0,1,1.114,1.114v2.509A1.114,1.114,0,0,1,56.928,250.968Z" transform="translate(-48.138 -222.135)" fill="#f79595"/>
        <path id="Path_1261695" data-name="Path 1261695" d="M136.449,250.968H133.94a1.114,1.114,0,0,1-1.114-1.114v-2.509a1.114,1.114,0,0,1,1.114-1.114h2.509a1.114,1.114,0,0,1,1.114,1.114v2.509A1.114,1.114,0,0,1,136.449,250.968Z" transform="translate(-118.689 -222.135)" fill="#d4f2f6"/>
        <path id="Path_1261696" data-name="Path 1261696" d="M215.97,250.968h-2.509a1.114,1.114,0,0,1-1.114-1.114v-2.509a1.114,1.114,0,0,1,1.114-1.114h2.509a1.114,1.114,0,0,1,1.114,1.114v2.509A1.114,1.114,0,0,1,215.97,250.968Z" transform="translate(-189.24 -222.135)" fill="#d4f2f6"/>
        <path id="Path_1261697" data-name="Path 1261697" d="M56.928,326.729H54.419a1.114,1.114,0,0,1-1.114-1.114v-2.509a1.114,1.114,0,0,1,1.114-1.114h2.509a1.114,1.114,0,0,1,1.114,1.114v2.509A1.114,1.114,0,0,1,56.928,326.729Z" transform="translate(-48.138 -289.35)" fill="#f79595"/>
        <path id="Path_1261698" data-name="Path 1261698" d="M136.449,326.729H133.94a1.114,1.114,0,0,1-1.114-1.114v-2.509a1.114,1.114,0,0,1,1.114-1.114h2.509a1.114,1.114,0,0,1,1.114,1.114v2.509A1.114,1.114,0,0,1,136.449,326.729Z" transform="translate(-118.689 -289.35)" fill="#d4f2f6"/>
        <g id="Group_1205557" data-name="Group 1205557" transform="translate(0 3.454)">
          <g id="XMLID_1114_">
            <path id="Path_1261699" data-name="Path 1261699" d="M15.963,126.548V99.657l5.167-3.794H12.668L7.5,99.657v26.891a4.145,4.145,0,0,0,4.146,4.146h8.462A4.145,4.145,0,0,1,15.963,126.548Z" transform="translate(-7.501 -92.183)" fill="#efedef"/>
            <g id="Group_1205555" data-name="Group 1205555" transform="translate(5.167 12.096)">
              <path id="Path_1261700" data-name="Path 1261700" d="M54.419,326.73H56.6v-4.737H54.419a1.114,1.114,0,0,0-1.114,1.114v2.509A1.114,1.114,0,0,0,54.419,326.73Z" transform="translate(-53.305 -304.901)" fill="#ee6161"/>
              <path id="Path_1261701" data-name="Path 1261701" d="M54.419,250.968H56.6v-4.737H54.419a1.114,1.114,0,0,0-1.114,1.114v2.509A1.114,1.114,0,0,0,54.419,250.968Z" transform="translate(-53.305 -237.685)" fill="#ee6161"/>
              <path id="Path_1261702" data-name="Path 1261702" d="M54.419,175.207H56.6V170.47H54.419a1.114,1.114,0,0,0-1.114,1.114v2.509A1.114,1.114,0,0,0,54.419,175.207Z" transform="translate(-53.305 -170.47)" fill="#ee6161"/>
            </g>
            <g id="Group_1205556" data-name="Group 1205556" transform="translate(0 0)">
              <path id="Path_1261703" data-name="Path 1261703" d="M58.619,67.39V70.6H7.5V67.39a4.146,4.146,0,0,1,4.146-4.146H54.474A4.146,4.146,0,0,1,58.619,67.39Z" transform="translate(-7.501 -63.244)" fill="#d4f2f6"/>
            </g>
            <path id="Path_1261704" data-name="Path 1261704" d="M20.108,63.243H11.647A4.146,4.146,0,0,0,7.5,67.389V70.6h8.462V67.389a4.146,4.146,0,0,1,4.146-4.146Z" transform="translate(-7.501 -63.243)" fill="#a6e7f0"/>
          </g>
        </g>
        <g id="Group_1205558" data-name="Group 1205558" transform="translate(9.201)">
          <path id="Path_1261705" data-name="Path 1261705" d="M220.33,39.762a1.748,1.748,0,0,1-1.748-1.748V34.373a1.748,1.748,0,0,1,3.5,0v3.641A1.748,1.748,0,0,1,220.33,39.762Z" transform="translate(-203.972 -32.625)" fill="#efedef"/>
          <path id="Path_1261706" data-name="Path 1261706" d="M155.571,39.762a1.748,1.748,0,0,1-1.748-1.748V34.373a1.748,1.748,0,1,1,3.5,0v3.641A1.748,1.748,0,0,1,155.571,39.762Z" transform="translate(-146.518 -32.625)" fill="#efedef"/>
          <path id="Path_1261707" data-name="Path 1261707" d="M90.813,39.762a1.748,1.748,0,0,1-1.748-1.748V34.373a1.748,1.748,0,1,1,3.5,0v3.641A1.748,1.748,0,0,1,90.813,39.762Z" transform="translate(-89.065 -32.625)" fill="#efedef"/>
          <path id="Path_1261708" data-name="Path 1261708" d="M285.088,39.762a1.748,1.748,0,0,0,1.748-1.748V34.373a1.748,1.748,0,1,0-3.5,0v3.641A1.748,1.748,0,0,0,285.088,39.762Z" transform="translate(-261.425 -32.625)" fill="#efedef"/>
          <path id="Path_1261709" data-name="Path 1261709" d="M349.847,39.762a1.748,1.748,0,0,0,1.748-1.748V34.373a1.748,1.748,0,1,0-3.5,0v3.641A1.748,1.748,0,0,0,349.847,39.762Z" transform="translate(-318.879 -32.625)" fill="#efedef"/>
        </g>
        <circle id="Ellipse_13676" data-name="Ellipse 13676" cx="2.14" cy="2.14" r="2.14" transform="translate(40.537 34.869)" fill="#00f2a6"/>
      </g>
      <g id="Group_1205560" data-name="Group 1205560" transform="translate(0 25.124)">
        <path id="Path_1261710" data-name="Path 1261710" d="M27.713,67.089H4.992a3.3,3.3,0,0,1-3.3-3.3V37.744H7.32a.846.846,0,1,0,0-1.692H1.692V33.684a3.3,3.3,0,0,1,3.3-3.3H9.2v.974a2.594,2.594,0,0,0,5.189,0v-.974h2.116v.974a2.594,2.594,0,1,0,5.189,0v-.974h2.116v.974a2.594,2.594,0,0,0,5.189,0v-.974h2.116v.974a2.594,2.594,0,1,0,5.189,0v-.974h2.117v.974a2.594,2.594,0,1,0,5.189,0v-.974h4.209a3.3,3.3,0,0,1,3.3,3.3v2.367H10.926a.846.846,0,0,0,0,1.692H51.118V48.729a.846.846,0,1,0,1.692,0V33.684a5,5,0,0,0-4.992-4.992H43.609v-.974a2.594,2.594,0,1,0-5.189,0v.974H36.3v-.974a2.594,2.594,0,1,0-5.189,0v.974H29v-.974a2.594,2.594,0,0,0-5.189,0v.974H21.694v-.974a2.594,2.594,0,0,0-5.189,0v.974H14.389v-.974a2.594,2.594,0,0,0-5.189,0v.974H4.992A5,5,0,0,0,0,33.684v30.1a5,5,0,0,0,4.992,4.992H27.713a.846.846,0,1,0,0-1.692Zm12.4-39.371a.9.9,0,0,1,1.8,0v3.641a.9.9,0,1,1-1.8,0Zm-7.305,0a.9.9,0,1,1,1.8,0v3.641a.9.9,0,1,1-1.8,0Zm-7.3,0a.9.9,0,0,1,1.8,0v3.641a.9.9,0,0,1-1.8,0Zm-7.305,0a.9.9,0,0,1,1.8,0v3.641a.9.9,0,0,1-1.8,0Zm-7.305,0a.9.9,0,0,1,1.8,0v3.641a.9.9,0,0,1-1.8,0Z" transform="translate(0 -25.124)"/>
        <path id="Path_1261711" data-name="Path 1261711" d="M275.493,236.34a14.085,14.085,0,0,0-12.138,6.991.846.846,0,0,0,1.463.85,12.281,12.281,0,1,1-1.281,3.134.846.846,0,0,0-1.64-.418,14.031,14.031,0,1,0,13.6-10.557Z" transform="translate(-231.97 -212.514)"/>
        <path id="Path_1261712" data-name="Path 1261712" d="M380.025,269.042v-.734a.846.846,0,1,0-1.692,0v.734a.846.846,0,0,0,1.692,0Z" transform="translate(-335.656 -240.125)"/>
        <path id="Path_1261713" data-name="Path 1261713" d="M319.067,294.788a.846.846,0,0,0,.6-1.444l-.519-.519a.846.846,0,0,0-1.2,1.2l.519.519A.843.843,0,0,0,319.067,294.788Z" transform="translate(-281.864 -262.407)"/>
        <path id="Path_1261714" data-name="Path 1261714" d="M294.166,354.9a.846.846,0,1,0,0-1.692h-.734a.846.846,0,1,0,0,1.692Z" transform="translate(-259.581 -316.2)"/>
        <path id="Path_1261715" data-name="Path 1261715" d="M317.949,411.2a.846.846,0,0,0,1.2,0l.519-.519a.846.846,0,0,0-1.2-1.2l-.519.519A.846.846,0,0,0,317.949,411.2Z" transform="translate(-281.863 -365.911)"/>
        <path id="Path_1261716" data-name="Path 1261716" d="M378.333,433.3v.734a.846.846,0,1,0,1.692,0V433.3a.846.846,0,1,0-1.692,0Z" transform="translate(-335.656 -386.503)"/>
        <path id="Path_1261717" data-name="Path 1261717" d="M434.614,410.686l.519.519a.846.846,0,0,0,1.2-1.2l-.519-.519a.846.846,0,0,0-1.2,1.2Z" transform="translate(-385.368 -365.912)"/>
        <path id="Path_1261718" data-name="Path 1261718" d="M459.155,354.9a.846.846,0,0,0,0-1.692h-.734a.846.846,0,0,0,0,1.692Z" transform="translate(-405.959 -316.2)"/>
        <path id="Path_1261719" data-name="Path 1261719" d="M435.213,294.788a.844.844,0,0,0,.6-.248l.519-.519a.846.846,0,1,0-1.2-1.2l-.519.519a.846.846,0,0,0,.6,1.444Z" transform="translate(-385.368 -262.407)"/>
        <path id="Path_1261720" data-name="Path 1261720" d="M345.685,315.541a.846.846,0,1,0-1.258,1.131l1.935,2.152a2.986,2.986,0,1,0,5.3.4l1.556-1.273a.846.846,0,1,0-1.071-1.31l-1.557,1.274a2.98,2.98,0,0,0-2.966-.228Zm4.514,4.846a1.294,1.294,0,1,1-2.163-.956l0,0,.005-.005a1.292,1.292,0,0,1,2.153.966Z" transform="translate(-305.382 -282.532)"/>
        <path id="Path_1261721" data-name="Path 1261721" d="M52.234,164.93a1.962,1.962,0,0,0-1.96-1.96H47.765a1.962,1.962,0,0,0-1.96,1.96v2.509a1.962,1.962,0,0,0,1.96,1.96h2.509a1.962,1.962,0,0,0,1.96-1.96Zm-1.692,2.509a.268.268,0,0,1-.268.268H47.765a.268.268,0,0,1-.268-.268V164.93a.268.268,0,0,1,.268-.268h2.509a.268.268,0,0,1,.268.268Z" transform="translate(-40.638 -147.42)"/>
        <path id="Path_1261722" data-name="Path 1261722" d="M131.755,164.93a1.962,1.962,0,0,0-1.96-1.96h-2.509a1.962,1.962,0,0,0-1.96,1.96v2.509a1.962,1.962,0,0,0,1.96,1.96h2.509a1.962,1.962,0,0,0,1.96-1.96Zm-1.692,2.509a.268.268,0,0,1-.268.268h-2.509a.268.268,0,0,1-.268-.268V164.93a.268.268,0,0,1,.268-.268h2.509a.268.268,0,0,1,.268.268Z" transform="translate(-111.189 -147.42)"/>
        <path id="Path_1261723" data-name="Path 1261723" d="M206.807,162.97a1.962,1.962,0,0,0-1.96,1.96v2.509a1.962,1.962,0,0,0,1.96,1.96h2.509a1.962,1.962,0,0,0,1.96-1.96V164.93a1.962,1.962,0,0,0-1.96-1.96Zm2.777,1.96v2.509a.268.268,0,0,1-.268.268h-2.509a.268.268,0,0,1-.268-.268V164.93a.268.268,0,0,1,.268-.268h2.509A.268.268,0,0,1,209.584,164.93Z" transform="translate(-181.74 -147.42)"/>
        <path id="Path_1261724" data-name="Path 1261724" d="M286.328,162.97a1.962,1.962,0,0,0-1.96,1.96v2.509a1.962,1.962,0,0,0,1.96,1.96h2.509a1.962,1.962,0,0,0,1.96-1.96V164.93a1.962,1.962,0,0,0-1.96-1.96Zm2.777,1.96v2.509a.268.268,0,0,1-.268.268h-2.509a.268.268,0,0,1-.268-.268V164.93a.268.268,0,0,1,.268-.268h2.509A.268.268,0,0,1,289.105,164.93Z" transform="translate(-252.29 -147.42)"/>
        <path id="Path_1261725" data-name="Path 1261725" d="M365.85,162.97a1.962,1.962,0,0,0-1.96,1.96v2.509a1.962,1.962,0,0,0,1.96,1.96h2.509a1.962,1.962,0,0,0,1.96-1.96V164.93a1.962,1.962,0,0,0-1.96-1.96Zm2.777,1.96v2.509a.268.268,0,0,1-.268.268H365.85a.268.268,0,0,1-.268-.268V164.93a.268.268,0,0,1,.268-.268h2.509A.269.269,0,0,1,368.627,164.93Z" transform="translate(-322.842 -147.42)"/>
        <path id="Path_1261726" data-name="Path 1261726" d="M52.234,240.691a1.962,1.962,0,0,0-1.96-1.96H47.765a1.962,1.962,0,0,0-1.96,1.96V243.2a1.962,1.962,0,0,0,1.96,1.96h2.509a1.962,1.962,0,0,0,1.96-1.96ZM50.542,243.2a.268.268,0,0,1-.268.268H47.765a.268.268,0,0,1-.268-.268v-2.509a.268.268,0,0,1,.268-.268h2.509a.268.268,0,0,1,.268.268Z" transform="translate(-40.638 -214.635)"/>
        <path id="Path_1261727" data-name="Path 1261727" d="M131.755,240.691a1.962,1.962,0,0,0-1.96-1.96h-2.509a1.962,1.962,0,0,0-1.96,1.96V243.2a1.962,1.962,0,0,0,1.96,1.96h2.509a1.962,1.962,0,0,0,1.96-1.96Zm-1.692,2.509a.268.268,0,0,1-.268.268h-2.509a.268.268,0,0,1-.268-.268v-2.509a.268.268,0,0,1,.268-.268h2.509a.268.268,0,0,1,.268.268Z" transform="translate(-111.189 -214.635)"/>
        <path id="Path_1261728" data-name="Path 1261728" d="M211.276,240.691a1.962,1.962,0,0,0-1.96-1.96h-2.509a1.962,1.962,0,0,0-1.96,1.96V243.2a1.962,1.962,0,0,0,1.96,1.96h2.509a1.962,1.962,0,0,0,1.96-1.96Zm-1.692,2.509a.268.268,0,0,1-.268.268h-2.509a.268.268,0,0,1-.268-.268v-2.509a.268.268,0,0,1,.268-.268h2.509a.268.268,0,0,1,.268.268Z" transform="translate(-181.74 -214.635)"/>
        <path id="Path_1261729" data-name="Path 1261729" d="M50.274,314.492H47.765a1.962,1.962,0,0,0-1.96,1.96v2.509a1.962,1.962,0,0,0,1.96,1.96h2.509a1.962,1.962,0,0,0,1.96-1.96v-2.509A1.962,1.962,0,0,0,50.274,314.492Zm.268,4.469a.268.268,0,0,1-.268.268H47.765a.268.268,0,0,1-.268-.268v-2.509a.268.268,0,0,1,.268-.268h2.509a.268.268,0,0,1,.268.268Z" transform="translate(-40.638 -281.85)"/>
        <path id="Path_1261730" data-name="Path 1261730" d="M129.795,314.492h-2.509a1.962,1.962,0,0,0-1.96,1.96v2.509a1.962,1.962,0,0,0,1.96,1.96h2.509a1.962,1.962,0,0,0,1.96-1.96v-2.509A1.962,1.962,0,0,0,129.795,314.492Zm.268,4.469a.268.268,0,0,1-.268.268h-2.509a.268.268,0,0,1-.268-.268v-2.509a.268.268,0,0,1,.268-.268h2.509a.268.268,0,0,1,.268.268Z" transform="translate(-111.189 -281.85)"/>
      </g>
    </g>
  </g>
</svg>
