<svg xmlns="http://www.w3.org/2000/svg" width="89.445" height="89.443" viewBox="0 0 89.445 89.443">
  <g id="Group_1205643" data-name="Group 1205643" transform="translate(-505.051 -16711)">
    <g id="Group_1205177" data-name="Group 1205177" transform="translate(-516.916 13618.345)">
      <g id="Group_1200255" data-name="Group 1200255" transform="translate(1021.967 3092.655)">
        <g id="Group_1187152" data-name="Group 1187152" transform="translate(0 0)">
          <g id="Group_1185946" data-name="Group 1185946">
            <g id="Group_1184280" data-name="Group 1184280">
              <g id="Group_1182168" data-name="Group 1182168">
                <g id="Group_1178877" data-name="Group 1178877">
                  <g id="Group_1111311" data-name="Group 1111311">
                    <g id="Group_1098742" data-name="Group 1098742" transform="translate(0 0)">
                      <g id="Rectangle_400898" data-name="Rectangle 400898" transform="translate(0.001 0)" fill="#b8a9f1" stroke="#7f75a8" stroke-width="1" opacity="0.859">
                        <rect width="89.444" height="89.444" rx="44.722" stroke="none"/>
                        <rect x="0.5" y="0.5" width="88.444" height="88.444" rx="44.222" fill="none"/>
                      </g>
                      <g id="Rectangle_400907" data-name="Rectangle 400907" transform="translate(0 0)" fill="none" stroke="#7f75a8" stroke-width="1">
                        <rect width="89.444" height="89.444" rx="44.722" stroke="none"/>
                        <rect x="0.5" y="0.5" width="88.444" height="88.444" rx="44.222" fill="none"/>
                      </g>
                    </g>
                  </g>
                </g>
              </g>
            </g>
          </g>
        </g>
      </g>
    </g>
    <g id="Filledoutline" transform="translate(500.051 16713)">
      <rect id="Rectangle_425997" data-name="Rectangle 425997" width="30.357" height="41.872" rx="15.179" transform="translate(37.608 20.188)" fill="#0093b9"/>
      <path id="Path_1263005" data-name="Path 1263005" d="M176,88h23.134v34.7H176Z" transform="translate(-135.094 -63.992)" fill="#e3e4e2"/>
      <path id="Path_1263006" data-name="Path 1263006" d="M236.457,31.118H224V27.559h3.559L226.669,24h7.118l-.89,3.559h3.559Z" transform="translate(-177.755 -7.11)" fill="#57c3c1"/>
      <path id="Path_1263007" data-name="Path 1263007" d="M64.032,260.473H32V232H48.016v14.237H64.032Z" transform="translate(-7.11 -191.976)" fill="#f8bc1e"/>
      <path id="Path_1263008" data-name="Path 1263008" d="M224,360h5.339v5.339H224Z" transform="translate(-177.755 -305.739)" fill="#f9da62"/>
      <path id="Path_1263009" data-name="Path 1263009" d="M199.126,368h-1.335a1.335,1.335,0,0,0-1.335,1.335v2.258a7.085,7.085,0,0,1-7.084,7.084h-4.039A1.335,1.335,0,0,0,184,380.012v1.335h15.126Z" transform="translate(-142.204 -312.849)" fill="#f5a922"/>
      <path id="Path_1263010" data-name="Path 1263010" d="M80,360h5.339v5.339H80Z" transform="translate(-49.772 -305.739)" fill="#f9da62"/>
      <path id="Path_1263011" data-name="Path 1263011" d="M55.126,368H53.792a1.335,1.335,0,0,0-1.335,1.335v2.258a7.085,7.085,0,0,1-7.084,7.084H41.335A1.335,1.335,0,0,0,40,380.012v1.335H55.126Z" transform="translate(-14.22 -312.849)" fill="#f5a922"/>
      <path id="Path_1263012" data-name="Path 1263012" d="M80,232h5.339v5.339H80Z" transform="translate(-49.772 -191.976)" fill="#f9da62"/>
      <path id="Path_1263013" data-name="Path 1263013" d="M55.126,240H53.792a1.335,1.335,0,0,0-1.335,1.335v2.258a7.085,7.085,0,0,1-7.084,7.084H41.335A1.335,1.335,0,0,0,40,252.012v1.335H55.126Z" transform="translate(-14.22 -199.086)" fill="#f5a922"/>
      <path id="Path_1263014" data-name="Path 1263014" d="M243.788,234.1l-23.868,7.141-3.92-.685,2.9-2.725,23.868-7.141a1.78,1.78,0,1,1,1.02,3.41Z" transform="translate(-170.645 -190.746)" fill="#f8bc1e"/>
      <path id="Path_1263015" data-name="Path 1263015" d="M238.725,224.519a2.669,2.669,0,0,0-3.322-1.792l-23.868,7.141a.891.891,0,0,0-.354.2l-2.9,2.725a.89.89,0,0,0,.456,1.525l3.92.685a.892.892,0,0,0,.408-.024l19.367-5.795.084,1.832-6.154,1.841.51,1.705,6.82-2.04a.89.89,0,0,0,.634-.893l-.136-2.97,2.744-.821a2.669,2.669,0,0,0,1.792-3.322Zm-25.969,8.7-1.96-.342,1.45-1.363,4.061-1.215.51,1.7Zm5.766-1.725-.51-1.7,14.252-4.264.084,1.833Zm18.43-5.786a.885.885,0,0,1-.528.43l-2.318.693L234.021,225l1.892-.566a.89.89,0,0,1,1.038,1.275Z" transform="translate(-163.534 -183.634)"/>
      <path id="Path_1263016" data-name="Path 1263016" d="M56.922,238.237H41.8V224.89a.89.89,0,0,0-.89-.89H24.89a.89.89,0,0,0-.89.89v28.473a.89.89,0,0,0,.89.89H56.922a.89.89,0,0,0,.89-.89V239.126A.89.89,0,0,0,56.922,238.237Zm-9.788,1.78h3.559v3.559H47.134ZM31.118,225.78h3.559v3.559H31.118Zm-5.339,0h3.559v4.449a.89.89,0,0,0,.89.89h5.339a.89.89,0,0,0,.89-.89V225.78h3.559v12.457H25.78Zm5.339,14.237h3.559v3.559H31.118Zm-5.339,0h3.559v4.449a.89.89,0,0,0,.89.89h5.339a.89.89,0,0,0,.89-.89v-4.449h3.559v12.457H25.78Zm30.253,12.457H41.8V240.016h3.559v4.449a.89.89,0,0,0,.89.89h5.339a.89.89,0,0,0,.89-.89v-4.449h3.559Z" transform="translate(0 -184.866)"/>
      <path id="Path_1263017" data-name="Path 1263017" d="M280,448h1.78v1.78H280Z" transform="translate(-227.527 -383.952)"/>
      <path id="Path_1263018" data-name="Path 1263018" d="M136,448h1.78v1.78H136Z" transform="translate(-99.543 -383.952)"/>
      <path id="Path_1263019" data-name="Path 1263019" d="M136,320h1.78v1.78H136Z" transform="translate(-99.543 -270.188)"/>
      <path id="Path_1263020" data-name="Path 1263020" d="M137.78,23.118a1.782,1.782,0,0,1,1.78-1.78H144.9v1.78h-4.449a.89.89,0,0,0-.89.89V37.355h1.78V24.9h21.355V39.134h1.78V24.008a.89.89,0,0,0-.89-.89h-4.449v-1.78h5.339a1.782,1.782,0,0,1,1.78,1.78V38.245h1.78V23.118a3.563,3.563,0,0,0-3.559-3.559h-8.648l.613-2.454A.89.89,0,0,0,155.575,16h-7.118a.89.89,0,0,0-.863,1.106l.613,2.454h-8.648A3.563,3.563,0,0,0,136,23.118V37.355h1.78Zm8.9-1.78h2.669a.89.89,0,0,0,.863-1.106L149.6,17.78h4.839l-.613,2.454a.89.89,0,0,0,.863,1.106h2.669v1.78H146.677Z" transform="translate(-99.543)"/>
      <path id="Path_1263021" data-name="Path 1263021" d="M351.118,344.008a1.782,1.782,0,0,1-1.78,1.78H344v1.78h5.339a3.563,3.563,0,0,0,3.559-3.559V336h-1.78Z" transform="translate(-284.409 -284.409)"/>
      <path id="Path_1263022" data-name="Path 1263022" d="M349.339,350.229V344h-1.78v5.339H344v1.78h4.449A.89.89,0,0,0,349.339,350.229Z" transform="translate(-284.409 -291.519)"/>
      <path id="Path_1263023" data-name="Path 1263023" d="M205.339,112.89a.89.89,0,0,0-.89-.89H200.89a.89.89,0,0,0-.89.89v3.559a.89.89,0,0,0,.89.89h3.559a.89.89,0,0,0,.89-.89Zm-1.78,2.669h-1.78v-1.78h1.78Z" transform="translate(-156.425 -85.323)"/>
      <path id="Path_1263024" data-name="Path 1263024" d="M204.449,184H200.89a.89.89,0,0,0-.89.89v3.559a.89.89,0,0,0,.89.89h3.559a.89.89,0,0,0,.89-.89V184.89A.89.89,0,0,0,204.449,184Zm-.89,3.559h-1.78v-1.78h1.78Z" transform="translate(-156.425 -149.314)"/>
      <path id="Path_1263025" data-name="Path 1263025" d="M264,112h1.78v1.78H264Z" transform="translate(-213.306 -85.323)"/>
      <path id="Path_1263026" data-name="Path 1263026" d="M264,144h10.677v1.78H264Z" transform="translate(-213.306 -113.763)"/>
      <path id="Path_1263027" data-name="Path 1263027" d="M296,112h7.118v1.78H296Z" transform="translate(-241.747 -85.323)"/>
      <path id="Path_1263028" data-name="Path 1263028" d="M264,184h1.78v1.78H264Z" transform="translate(-213.306 -149.314)"/>
      <path id="Path_1263029" data-name="Path 1263029" d="M264,216h10.677v1.78H264Z" transform="translate(-213.306 -177.755)"/>
      <path id="Path_1263030" data-name="Path 1263030" d="M296,184h7.118v1.78H296Z" transform="translate(-241.747 -149.314)"/>
    </g>
  </g>
</svg>
