<svg xmlns="http://www.w3.org/2000/svg" width="89.445" height="89.443" viewBox="0 0 89.445 89.443">
  <g id="Group_1205645" data-name="Group 1205645" transform="translate(-755.051 -16711)">
    <g id="Group_1205178" data-name="Group 1205178" transform="translate(-266.916 13618.345)">
      <g id="Group_1200255" data-name="Group 1200255" transform="translate(1021.967 3092.655)">
        <g id="Group_1187152" data-name="Group 1187152" transform="translate(0 0)">
          <g id="Group_1185946" data-name="Group 1185946">
            <g id="Group_1184280" data-name="Group 1184280">
              <g id="Group_1182168" data-name="Group 1182168">
                <g id="Group_1178877" data-name="Group 1178877">
                  <g id="Group_1111311" data-name="Group 1111311">
                    <g id="Group_1098742" data-name="Group 1098742" transform="translate(0 0)">
                      <g id="Rectangle_400898" data-name="Rectangle 400898" transform="translate(0.001 0)" fill="#b8a9f1" stroke="#7f75a8" stroke-width="1" opacity="0.859">
                        <rect width="89.444" height="89.444" rx="44.722" stroke="none"/>
                        <rect x="0.5" y="0.5" width="88.444" height="88.444" rx="44.222" fill="none"/>
                      </g>
                      <g id="Rectangle_400907" data-name="Rectangle 400907" transform="translate(0 0)" fill="none" stroke="#7f75a8" stroke-width="1">
                        <rect width="89.444" height="89.444" rx="44.722" stroke="none"/>
                        <rect x="0.5" y="0.5" width="88.444" height="88.444" rx="44.222" fill="none"/>
                      </g>
                    </g>
                  </g>
                </g>
              </g>
            </g>
          </g>
        </g>
      </g>
    </g>
    <g id="database" transform="translate(771.051 16727)">
      <path id="Path_1263031" data-name="Path 1263031" d="M34.8,28v8.833c0,2.438-7.12,4.417-15.9,4.417S3,39.271,3,36.833V28c0,2.438,7.12,4.417,15.9,4.417S34.8,30.438,34.8,28Z" transform="translate(-0.117 -3.033)" fill="#c0ab91"/>
      <path id="Path_1263032" data-name="Path 1263032" d="M58.433,28.367v5.3l-4.028.671a11.559,11.559,0,0,1-.866,2.1l2.367,3.321-3.745,3.745L49.344,41.5a1.779,1.779,0,0,0,1.139-1.652V32.783a1.74,1.74,0,0,0-.1-.574,7.578,7.578,0,0,0,.1-1.192A7.067,7.067,0,0,0,39,25.5V20.417a11.491,11.491,0,0,1,1.1-.389L40.767,16h5.3l.671,4.028a11.559,11.559,0,0,1,2.1.866l3.321-2.367,3.745,3.745L53.54,25.593a11.559,11.559,0,0,1,.866,2.1Z" transform="translate(-4.317 -1.633)" fill="#ffeb99"/>
      <rect id="Rectangle_425998" data-name="Rectangle 425998" width="35" height="10" rx="2" transform="translate(11 44)" fill="#57a4ff"/>
      <path id="Path_1263033" data-name="Path 1263033" d="M51.3,50.767v7.067A1.772,1.772,0,0,1,49.533,59.6H46a1.772,1.772,0,0,0,1.767-1.767V50.767A1.772,1.772,0,0,0,46,49h3.533A1.772,1.772,0,0,1,51.3,50.767Z" transform="translate(-5.133 -5.483)" fill="#2488ff"/>
      <path id="Path_1263034" data-name="Path 1263034" d="M50.483,32.067a7.579,7.579,0,0,1-.1,1.192,1.778,1.778,0,0,0-1.669-1.192H39V26.555a7.067,7.067,0,0,1,11.483,5.512Z" transform="translate(-4.317 -2.684)" fill="#c6c5ca"/>
      <path id="Path_1263035" data-name="Path 1263035" d="M50.836,32.067a7.579,7.579,0,0,1-.1,1.192,1.778,1.778,0,0,0-1.669-1.192H47.3a7.082,7.082,0,0,0-5.282-6.846,7.067,7.067,0,0,1,8.816,6.846Z" transform="translate(-4.669 -2.683)" fill="#acabb1"/>
      <path id="Path_1263036" data-name="Path 1263036" d="M42,45h5.3v3.533H42Z" transform="translate(-4.667 -5.017)" fill="#c6c5ca"/>
      <path id="Path_1263037" data-name="Path 1263037" d="M34.8,18v8.833c0,2.438-7.12,4.417-15.9,4.417S3,29.271,3,26.833V18c0,2.438,7.12,4.417,15.9,4.417S34.8,20.438,34.8,18Z" transform="translate(-0.117 -1.867)" fill="#c0ab91"/>
      <path id="Path_1263038" data-name="Path 1263038" d="M34.8,8v8.833c0,2.438-7.12,4.417-15.9,4.417S3,19.271,3,16.833V8c0,2.438,7.12,4.417,15.9,4.417S34.8,10.438,34.8,8Z" transform="translate(-0.117 -0.7)" fill="#c0ab91"/>
      <ellipse id="Ellipse_13681" data-name="Ellipse 13681" cx="16" cy="4.5" rx="16" ry="4.5" transform="translate(3 3)" fill="#ffcd00"/>
      <g id="Group_1205644" data-name="Group 1205644" transform="translate(17.017 7.3)">
        <path id="Path_1263039" data-name="Path 1263039" d="M36.667,28v8.833c0,2.438-7.12,4.417-15.9,4.417-.6,0-1.184-.009-1.767-.035,7.95-.238,14.133-2.111,14.133-4.381v-6.06C35.342,30.014,36.667,29.051,36.667,28Z" transform="translate(-19 -10.333)" fill="#b39a7c"/>
        <path id="Path_1263040" data-name="Path 1263040" d="M38.533,18v8.833c0,1.051-1.325,2.014-3.533,2.774V20.774C37.208,20.014,38.533,19.051,38.533,18Z" transform="translate(-20.867 -9.167)" fill="#b39a7c"/>
        <path id="Path_1263041" data-name="Path 1263041" d="M38.533,8v8.833c0,1.051-1.325,2.014-3.533,2.774V10.774c2.208-.76,3.533-1.722,3.533-2.774Z" transform="translate(-20.867 -8)" fill="#b39a7c"/>
      </g>
      <path id="Path_1263042" data-name="Path 1263042" d="M36.667,7.417c0,2.438-7.12,4.417-15.9,4.417-.6,0-1.184-.009-1.767-.035,7.95-.239,14.133-2.111,14.133-4.381S26.95,3.274,19,3.035C19.583,3.009,20.166,3,20.767,3,29.547,3,36.667,4.979,36.667,7.417Z" transform="translate(-1.983 -0.117)" fill="#ebbf00"/>
      <path id="Path_1263043" data-name="Path 1263043" d="M24,53h3.533v3.533H24Z" transform="translate(-2.567 -5.95)" fill="#ffeb99"/>
      <rect id="Rectangle_425999" data-name="Rectangle 425999" width="35" height="11" rx="2" transform="translate(11 29)" fill="#57a4ff"/>
      <path id="Path_1263044" data-name="Path 1263044" d="M51.3,34.767v7.067A1.772,1.772,0,0,1,49.533,43.6H46a1.772,1.772,0,0,0,1.767-1.767V34.767A1.772,1.772,0,0,0,46,33h3.533A1.772,1.772,0,0,1,51.3,34.767Z" transform="translate(-5.133 -3.617)" fill="#2488ff"/>
      <path id="Path_1263045" data-name="Path 1263045" d="M24,37h3.533v3.533H24Z" transform="translate(-2.567 -4.083)" fill="#ffeb99"/>
      <path id="Path_1263046" data-name="Path 1263046" d="M16,45h5.3v3.533H16Z" transform="translate(-1.633 -5.017)" fill="#c6c5ca"/>
      <path id="Path_1263047" data-name="Path 1263047" d="M16,53h3.533v3.533H16Z" transform="translate(-1.633 -5.95)" fill="#ffeb99"/>
      <path id="Path_1263048" data-name="Path 1263048" d="M16,37h3.533v3.533H16Z" transform="translate(-1.633 -4.083)" fill="#ffeb99"/>
      <path id="Path_1263049" data-name="Path 1263049" d="M19.417,36H15.883a.883.883,0,0,0-.883.883v3.533a.883.883,0,0,0,.883.883h3.533a.883.883,0,0,0,.883-.883V36.883A.883.883,0,0,0,19.417,36Zm-.883,3.533H16.767V37.767h1.767Z" transform="translate(-1.517 -3.967)"/>
      <path id="Path_1263050" data-name="Path 1263050" d="M27.417,36H23.883a.883.883,0,0,0-.883.883v3.533a.883.883,0,0,0,.883.883h3.533a.883.883,0,0,0,.883-.883V36.883A.883.883,0,0,0,27.417,36Zm-.883,3.533H24.767V37.767h1.767Z" transform="translate(-2.45 -3.967)"/>
      <path id="Path_1263051" data-name="Path 1263051" d="M31,36H43.367v1.767H31Z" transform="translate(-3.383 -3.967)"/>
      <path id="Path_1263052" data-name="Path 1263052" d="M47,36h1.767v1.767H47Z" transform="translate(-5.25 -3.967)"/>
      <path id="Path_1263053" data-name="Path 1263053" d="M31,40H43.367v1.767H31Z" transform="translate(-3.383 -4.433)"/>
      <path id="Path_1263054" data-name="Path 1263054" d="M47,40h1.767v1.767H47Z" transform="translate(-5.25 -4.433)"/>
      <path id="Path_1263055" data-name="Path 1263055" d="M15.883,57.3h3.533a.883.883,0,0,0,.883-.883V52.883A.883.883,0,0,0,19.417,52H15.883a.883.883,0,0,0-.883.883v3.533A.883.883,0,0,0,15.883,57.3Zm.883-3.533h1.767v1.767H16.767Z" transform="translate(-1.517 -5.833)"/>
      <path id="Path_1263056" data-name="Path 1263056" d="M23.883,57.3h3.533a.883.883,0,0,0,.883-.883V52.883A.883.883,0,0,0,27.417,52H23.883a.883.883,0,0,0-.883.883v3.533A.883.883,0,0,0,23.883,57.3Zm.883-3.533h1.767v1.767H24.767Z" transform="translate(-2.45 -5.833)"/>
      <path id="Path_1263057" data-name="Path 1263057" d="M31,52H43.367v1.767H31Z" transform="translate(-3.383 -5.833)"/>
      <path id="Path_1263058" data-name="Path 1263058" d="M47,52h1.767v1.767H47Z" transform="translate(-5.25 -5.833)"/>
      <path id="Path_1263059" data-name="Path 1263059" d="M31,56H43.367v1.767H31Z" transform="translate(-3.383 -6.3)"/>
      <path id="Path_1263060" data-name="Path 1263060" d="M47,56h1.767v1.767H47Z" transform="translate(-5.25 -6.3)"/>
      <path id="Path_1263061" data-name="Path 1263061" d="M54.258,25.859l-3.5-.583a10.116,10.116,0,0,0-.512-1.237l2.058-2.888a.883.883,0,0,0-.088-1.139l-3.745-3.745a.883.883,0,0,0-1.14-.088l-2.889,2.058a12.567,12.567,0,0,0-1.237-.512l-.583-3.5a.883.883,0,0,0-.875-.742h-5.3a.883.883,0,0,0-.875.742l-.009.071v-7c0-3.48-8.445-5.3-16.783-5.3S2,3.82,2,7.3V33.8c0,2.676,4.7,3.984,7.968,4.576A2.642,2.642,0,0,0,12.6,40.867h.883v1.767H12.6a2.658,2.658,0,0,0-2.65,2.65V52.35A2.658,2.658,0,0,0,12.6,55H44.4a2.658,2.658,0,0,0,2.65-2.65V45.283a2.658,2.658,0,0,0-2.65-2.65h-.883V40.867H44.4a2.415,2.415,0,0,0,.442-.044L47.333,42.6a.92.92,0,0,0,.512.159.9.9,0,0,0,.627-.256l3.745-3.745a.883.883,0,0,0,.088-1.139l-2.058-2.889a10.116,10.116,0,0,0,.512-1.237l3.5-.583A.883.883,0,0,0,55,32.033v-5.3a.883.883,0,0,0-.742-.875ZM35.567,24.34a6.147,6.147,0,0,1,9.673,4.311,2.661,2.661,0,0,0-.839-.15H35.567ZM18.783,3.767C28.5,3.767,33.8,6.1,33.8,7.3s-5.3,3.533-15.017,3.533S3.767,8.5,3.767,7.3,9.067,3.767,18.783,3.767ZM3.767,9.791C6.673,11.637,12.741,12.6,18.783,12.6S30.894,11.637,33.8,9.791v6.342c0,1.2-5.3,3.533-15.017,3.533S3.767,17.335,3.767,16.133ZM9.95,31.15v5.424c-4.478-.848-6.183-2.129-6.183-2.774V27.458a18.976,18.976,0,0,0,6.678,2.155A2.637,2.637,0,0,0,9.95,31.15ZM3.767,24.967V18.624c2.906,1.846,8.975,2.809,15.017,2.809S30.894,20.47,33.8,18.624v6.342c0,1.2-5.3,3.533-15.017,3.533S3.767,26.168,3.767,24.967ZM33.8,27.458V28.5H31.609A11.014,11.014,0,0,0,33.8,27.458ZM44.4,44.4a.883.883,0,0,1,.883.883V52.35a.883.883,0,0,1-.883.883H12.6a.883.883,0,0,1-.883-.883V45.283A.883.883,0,0,1,12.6,44.4ZM15.25,42.633V40.867h3.533v1.767Zm5.3,0V40.867h15.9v1.767Zm17.667,0V40.867H41.75v1.767Zm7.067-4.417a.883.883,0,0,1-.883.883H12.6a.883.883,0,0,1-.883-.883V31.15a.883.883,0,0,1,.883-.883H44.4a.883.883,0,0,1,.883.883Zm7.95-6.934-3.286.548a.905.905,0,0,0-.707.618,10.432,10.432,0,0,1-.8,1.943.862.862,0,0,0,.062.928l1.926,2.712-2.685,2.685-1.254-.892a2.625,2.625,0,0,0,.556-1.608V31.15a2.512,2.512,0,0,0-.088-.636,8.23,8.23,0,0,0,.088-1.131,7.932,7.932,0,0,0-11.483-7.111V19.411a4.354,4.354,0,0,1,.477-.168.908.908,0,0,0,.609-.707L37.2,15.25H41l.548,3.286a.905.905,0,0,0,.618.707,10.688,10.688,0,0,1,1.943.8.883.883,0,0,0,.928-.062l2.712-1.926,2.685,2.685-1.926,2.712a.862.862,0,0,0-.062.927,10.432,10.432,0,0,1,.8,1.943.905.905,0,0,0,.707.618l3.286.548Z"/>
      <path id="Path_1263062" data-name="Path 1263062" d="M5.767,48H4v7.067a.883.883,0,0,0,.883.883H8.417V54.183H5.767Z" transform="translate(-0.233 -5.367)"/>
      <path id="Path_1263063" data-name="Path 1263063" d="M59.133,4H45V5.767H58.25v8.468l-2.391,2.391,1.249,1.249,2.65-2.65a.883.883,0,0,0,.259-.625V4.883A.883.883,0,0,0,59.133,4Z" transform="translate(-5.017 -0.233)"/>
      <path id="Path_1263064" data-name="Path 1263064" d="M41,4h1.767V5.767H41Z" transform="translate(-4.55 -0.233)"/>
      <path id="Path_1263065" data-name="Path 1263065" d="M4,44H5.767v1.767H4Z" transform="translate(-0.233 -4.9)"/>
    </g>
  </g>
</svg>
