<svg xmlns="http://www.w3.org/2000/svg" width="89.445" height="89.443" viewBox="0 0 89.445 89.443">
  <g id="Group_1205642" data-name="Group 1205642" transform="translate(-254.051 -16711)">
    <g id="Group_1205176" data-name="Group 1205176" transform="translate(-767.916 13618.345)">
      <g id="Group_1200255" data-name="Group 1200255" transform="translate(1021.967 3092.655)">
        <g id="Group_1187152" data-name="Group 1187152" transform="translate(0 0)">
          <g id="Group_1185946" data-name="Group 1185946">
            <g id="Group_1184280" data-name="Group 1184280">
              <g id="Group_1182168" data-name="Group 1182168">
                <g id="Group_1178877" data-name="Group 1178877">
                  <g id="Group_1111311" data-name="Group 1111311">
                    <g id="Group_1098742" data-name="Group 1098742" transform="translate(0 0)">
                      <g id="Rectangle_400898" data-name="Rectangle 400898" transform="translate(0.001 0)" fill="#b8a9f1" stroke="#7f75a8" stroke-width="1" opacity="0.859">
                        <rect width="89.444" height="89.444" rx="44.722" stroke="none"/>
                        <rect x="0.5" y="0.5" width="88.444" height="88.444" rx="44.222" fill="none"/>
                      </g>
                      <g id="Rectangle_400907" data-name="Rectangle 400907" transform="translate(0 0)" fill="none" stroke="#7f75a8" stroke-width="1">
                        <rect width="89.444" height="89.444" rx="44.722" stroke="none"/>
                        <rect x="0.5" y="0.5" width="88.444" height="88.444" rx="44.222" fill="none"/>
                      </g>
                    </g>
                  </g>
                </g>
              </g>
            </g>
          </g>
        </g>
      </g>
    </g>
    <g id="chat" transform="translate(271.053 16712.936)">
      <g id="Group_1205641" data-name="Group 1205641" transform="translate(1.074 18.139)">
        <g id="Group_1205639" data-name="Group 1205639" transform="translate(0 0)">
          <path id="Path_1263002" data-name="Path 1263002" d="M153.56,128.356l22.032-34.973a21.49,21.49,0,0,1,11.717,32.7l3.375,8.531a.538.538,0,0,1-.58.729l-11.7-1.769a21.5,21.5,0,0,1-24.847-5.221Z" transform="translate(-138.123 -86.252)" fill="#9acd68" fill-rule="evenodd"/>
          <path id="Path_1263003" data-name="Path 1263003" d="M31.484,27.065A21.484,21.484,0,1,1,22.62,68.124l-11.7,1.769a.538.538,0,0,1-.58-.729l3.375-8.531A21.485,21.485,0,0,1,31.484,27.065Z" transform="translate(-10 -27.065)" fill="#fdcd56" fill-rule="evenodd"/>
        </g>
        <g id="Group_1205640" data-name="Group 1205640" transform="translate(2.183 2.188)">
          <circle id="Ellipse_13680" data-name="Ellipse 13680" cx="13.646" cy="13.646" r="13.646" transform="translate(0 19.296) rotate(-45)" fill="#f5b945"/>
        </g>
      </g>
      <path id="Path_1263004" data-name="Path 1263004" d="M22.6,49.209a1.077,1.077,0,0,1-1.075-1.049l-.022-.948a5.426,5.426,0,0,1-2.753-1.6,1.075,1.075,0,0,1,1.475-1.564,2.964,2.964,0,0,0,2.332,1.115,2.424,2.424,0,0,0,2.594-2.2,2.424,2.424,0,0,0-2.594-2.2,4.566,4.566,0,0,1-4.744-4.352,4.455,4.455,0,0,1,3.651-4.234l-.025-1.036a1.075,1.075,0,1,1,2.149-.051l.027,1.114a5.386,5.386,0,0,1,3.094,1.855,1.075,1.075,0,1,1-1.8,1.181,3.908,3.908,0,0,0-2.356-1.029,2.424,2.424,0,0,0-2.593,2.2,2.425,2.425,0,0,0,2.593,2.2A4.566,4.566,0,0,1,27.3,42.959a4.456,4.456,0,0,1-3.648,4.234l.022.915a1.075,1.075,0,0,1-1.049,1.1H22.6ZM9.987,39.623A12.57,12.57,0,1,0,22.557,27.052,12.584,12.584,0,0,0,9.987,39.623Zm27.291,0a14.721,14.721,0,1,0-14.721,14.72A14.737,14.737,0,0,0,37.278,39.623ZM41.518,64.4,52.29,66.03l-3.031-7.662a1.073,1.073,0,0,1,.111-1A20.3,20.3,0,0,0,52.9,45.889,20.542,20.542,0,0,0,41.676,27.663,22.548,22.548,0,0,1,22.557,62.181a23.048,23.048,0,0,1-2.533-.141A20.439,20.439,0,0,0,32.493,66.3a20.233,20.233,0,0,0,8.42-1.813A1.1,1.1,0,0,1,41.518,64.4ZM13.694,58.123a1.081,1.081,0,0,1,.444.1A20.419,20.419,0,1,0,5.681,51.1a1.074,1.074,0,0,1,.111,1L2.761,59.765l10.772-1.629a1.088,1.088,0,0,1,.161-.012Zm37.77-.025a22.562,22.562,0,0,0-1-25.852,22.731,22.731,0,0,0-11.343-7.926A22.554,22.554,0,0,0,3.587,51.833L.074,60.711a1.074,1.074,0,0,0,1,1.471,1,1,0,0,0,.161-.012l12.309-1.861a22.663,22.663,0,0,0,2.377.881,22.571,22.571,0,0,0,25.587,5.386l12.309,1.862a1.233,1.233,0,0,0,.161.012,1.074,1.074,0,0,0,1-1.471Z" transform="translate(0)" fill-rule="evenodd"/>
    </g>
  </g>
</svg>
