<svg xmlns="http://www.w3.org/2000/svg" width="89.444" height="89.444" viewBox="0 0 89.444 89.444">
  <g id="Group_1205674" data-name="Group 1205674" transform="translate(-1174.778 -1371)">
    <g id="Group_1205186" data-name="Group 1205186" transform="translate(152.811 -1721.655)">
      <g id="Group_1200255" data-name="Group 1200255" transform="translate(1021.967 3092.655)">
        <g id="Group_1187152" data-name="Group 1187152" transform="translate(0 0)">
          <g id="Group_1185946" data-name="Group 1185946">
            <g id="Group_1184280" data-name="Group 1184280">
              <g id="Group_1182168" data-name="Group 1182168">
                <g id="Group_1178877" data-name="Group 1178877">
                  <g id="Group_1111311" data-name="Group 1111311">
                    <g id="Group_1098742" data-name="Group 1098742" transform="translate(0 0)">
                      <g id="Rectangle_400898" data-name="Rectangle 400898" transform="translate(0.001 0)" fill="#b8a9f1" stroke="#7f75a8" stroke-width="1" opacity="0.859">
                        <rect width="89.444" height="89.444" rx="44.722" stroke="none"/>
                        <rect x="0.5" y="0.5" width="88.444" height="88.444" rx="44.222" fill="none"/>
                      </g>
                      <g id="Rectangle_400907" data-name="Rectangle 400907" transform="translate(0 0)" fill="none" stroke="#7f75a8" stroke-width="1">
                        <rect width="89.444" height="89.444" rx="44.722" stroke="none"/>
                        <rect x="0.5" y="0.5" width="88.444" height="88.444" rx="44.222" fill="none"/>
                      </g>
                    </g>
                  </g>
                </g>
              </g>
            </g>
          </g>
        </g>
      </g>
    </g>
    <g id="vigilancia" transform="translate(1177.976 1374.197)">
      <path id="Path_1263143" data-name="Path 1263143" d="M80,25.7A1.7,1.7,0,0,1,81.7,24H121.69a1.7,1.7,0,0,1,1.7,1.7V53.779a1.7,1.7,0,0,1-1.7,1.7H80Z" transform="translate(-57.193 -7.149)" fill="#548aff"/>
      <path id="Path_1263144" data-name="Path 1263144" d="M316.762,363.061l5.1-11.061H309.1L304,363.061Z" transform="translate(-257.37 -300.265)" fill="#8be0e8"/>
      <path id="Path_1263145" data-name="Path 1263145" d="M240,456h19.569v1.7a1.7,1.7,0,0,1-1.7,1.7H241.7a1.7,1.7,0,0,1-1.7-1.7Z" transform="translate(-200.177 -393.205)" fill="#548aff"/>
      <path id="Path_1263146" data-name="Path 1263146" d="M64,280h5.853v7.657H64Z" transform="translate(-42.895 -235.923)" fill="#ffceb6"/>
      <path id="Path_1263147" data-name="Path 1263147" d="M100.254,240v6.7a1.8,1.8,0,0,1-3.081,1.276L96,246.807V240Z" transform="translate(-71.492 -200.177)" fill="#ffceb6"/>
      <path id="Path_1263148" data-name="Path 1263148" d="M42.552,225.359l-1.983-3.3A4,4,0,0,1,40,220h0a4,4,0,0,1,4-4H50.21a1.7,1.7,0,1,1,0,3.4H47.657l-1.7,2.552v3.4Z" transform="translate(-21.448 -178.729)" fill="#c47220"/>
      <path id="Path_1263149" data-name="Path 1263149" d="M50.375,350.464H43.383a3.4,3.4,0,0,1-2.53-1.127l-3.24-3.6v7.279H24V341.1a5.1,5.1,0,0,1,5.1-5.1h5.686a5.956,5.956,0,0,1,4.61,2.184l5.87,7.175h5.1Z" transform="translate(-7.149 -285.967)" fill="#ffb401"/>
      <path id="Path_1263150" data-name="Path 1263150" d="M272,421.956v-5.1h1.7l3.4-.851,3.792,2.275a.953.953,0,0,1-.677,1.751L277.1,419.4l-2.95,2.212a1.7,1.7,0,0,1-1.021.34Z" transform="translate(-228.774 -357.459)" fill="#ffceb6"/>
      <path id="Path_1263151" data-name="Path 1263151" d="M343.657,459.4H337.7a1.7,1.7,0,0,1-1.7-1.7V456h9.359v1.7A1.7,1.7,0,0,1,343.657,459.4Z" transform="translate(-285.967 -393.205)" fill="#4367e0"/>
      <path id="Path_1263152" data-name="Path 1263152" d="M192,248h5.1v4.254H192Z" transform="translate(-157.282 -207.326)" fill="#ffa100"/>
      <path id="Path_1263153" data-name="Path 1263153" d="M240,216h5.1v7.657H240Z" transform="translate(-200.177 -178.729)" fill="#ffb401"/>
      <path id="Path_1263154" data-name="Path 1263154" d="M288,176h5.1v11.911H288Z" transform="translate(-243.072 -142.984)" fill="#ffc431"/>
      <path id="Path_1263155" data-name="Path 1263155" d="M336,136h5.1v16.166H336Z" transform="translate(-285.967 -107.238)" fill="#ffcc4d"/>
      <path id="Path_1263156" data-name="Path 1263156" d="M384,104h5.1v19.569H384Z" transform="translate(-328.862 -78.641)" fill="#ffd873"/>
      <g id="Group_1205673" data-name="Group 1205673" transform="translate(34.187 20.445)">
        <circle id="Ellipse_13687" data-name="Ellipse 13687" cx="1.705" cy="1.705" r="1.705" transform="translate(0 11.367)" fill="#c5dafa"/>
        <circle id="Ellipse_13688" data-name="Ellipse 13688" cx="1.705" cy="1.705" r="1.705" transform="translate(7.957 5.683)" fill="#c5dafa"/>
        <circle id="Ellipse_13689" data-name="Ellipse 13689" cx="1.705" cy="1.705" r="1.705" transform="translate(15.913 0)" fill="#c5dafa"/>
      </g>
      <path id="Path_1263157" data-name="Path 1263157" d="M64.5,222.464H51.735a.851.851,0,0,0-.773.494l-2.937,6.363-3.2.8h-6.3l-5.615-6.863a6.778,6.778,0,0,0-5.1-2.492v-.145a2.66,2.66,0,0,0,1.8-2.515v-5.148A2.552,2.552,0,0,0,28.762,208H22.55a4.849,4.849,0,0,0-4.158,7.343l1.862,3.1v2.566A5.965,5.965,0,0,0,16,226.718V238.63h1.7V226.718a4.259,4.259,0,0,1,4.254-4.254h5.686a5.086,5.086,0,0,1,3.951,1.872l5.87,7.175a.851.851,0,0,0,.658.312h4.254v3.4H36.234a2.556,2.556,0,0,1-1.9-.845L27.693,227l-1.265,1.138,3.185,3.539v6.953h1.7v-5.062l1.757,1.952a4.26,4.26,0,0,0,3.162,1.408h2.885a2.557,2.557,0,0,0,2.406,1.7H57.69a2.555,2.555,0,0,0,2.552-2.552v-1.515l5.027-10.891a.851.851,0,0,0-.773-1.207Zm-37.539-3.4a.948.948,0,0,1-.675-.279l-.924-.924v-2.793l1.306-1.959h1.246v5a.955.955,0,0,1-.954.954ZM19.4,212.849A3.15,3.15,0,0,1,22.55,209.7h6.212a.851.851,0,1,1,0,1.7H26.21a.851.851,0,0,0-.708.379l-1.7,2.552a.851.851,0,0,0-.143.472v2.552H21.587l-1.735-2.892A3.147,3.147,0,0,1,19.4,212.849Zm2.552,6.212h2.2l.924.924a2.644,2.644,0,0,0,1.027.638v.139H21.956Zm22.121,12.762h.851a.848.848,0,0,0,.207-.025l3.061-.765,3.489,2.094a.1.1,0,0,1-.072.187L48.5,232.69a.851.851,0,0,0-.677.154l-2.95,2.212a.856.856,0,0,1-.511.17h-.284Zm1.815,4.594,1.588-1.191h1.7v.851a2.54,2.54,0,0,0,.146.851H44.361A2.569,2.569,0,0,0,45.892,236.417Zm12.649-.34a.852.852,0,0,1-.851.851H51.735a.852.852,0,0,1-.851-.851v-.851h7.657Zm.306-2.552H53.407a1.782,1.782,0,0,0-.846-1.858l-2.932-1.759,2.65-5.742H63.167Z" transform="translate(0 -171.58)"/>
      <path id="Path_1263158" data-name="Path 1263158" d="M114.541,16H74.552A2.555,2.555,0,0,0,72,18.552V34.718h1.7V18.552a.852.852,0,0,1,.851-.851h39.989a.852.852,0,0,1,.851.851V46.63a.852.852,0,0,1-.851.851H81.359v1.7h33.182a2.555,2.555,0,0,0,2.552-2.552V18.552A2.555,2.555,0,0,0,114.541,16Z" transform="translate(-50.044)"/>
      <circle id="Ellipse_13690" data-name="Ellipse 13690" cx="1.137" cy="1.137" r="1.137" transform="translate(23.957 18.173)"/>
      <ellipse id="Ellipse_13691" data-name="Ellipse 13691" cx="0.568" cy="1.137" rx="0.568" ry="1.137" transform="translate(27.367 18.173)"/>
      <ellipse id="Ellipse_13692" data-name="Ellipse 13692" cx="0.568" cy="1.137" rx="0.568" ry="1.137" transform="translate(29.64 18.173)"/>
      <path id="Path_1263159" data-name="Path 1263159" d="M196.077,96h-5.1a.851.851,0,0,0-.851.851V99.4h-4.254a.851.851,0,0,0-.851.851v3.4h-4.254a.851.851,0,0,0-.851.851v3.4h-4.254a.851.851,0,0,0-.851.851v2.552h-4.254a.851.851,0,0,0-.851.851v3.4H168v1.7h30.63v-1.7h-1.7V96.851a.851.851,0,0,0-.851-.851ZM171.4,113.016h3.4v2.552h-3.4Zm5.1-3.4h3.4v5.956h-3.4Zm5.1-4.254h3.4v10.21h-3.4Zm5.1-4.254h3.4v14.464h-3.4Zm8.508,14.464h-3.4V97.7h3.4Z" transform="translate(-135.834 -71.492)"/>
      <path id="Path_1263160" data-name="Path 1263160" d="M144,63.309h3.55a2.552,2.552,0,0,0,4.848-1.593l4.425-3.26a2.552,2.552,0,0,0,3.994-2.943l3.873-2.854a2.55,2.55,0,0,0,3.838-1.261h5.251V49.7h-5.251a2.552,2.552,0,0,0-4.848,1.593l-4.017,2.96a2.551,2.551,0,0,0-3.705,2.73l-4.569,3.367a2.55,2.55,0,0,0-3.838,1.261H144ZM166.121,49.7a.851.851,0,1,1-.851.851A.851.851,0,0,1,166.121,49.7Zm-7.657,5.956a.851.851,0,1,1-.851.851A.851.851,0,0,1,158.464,55.651Zm-8.508,5.956a.851.851,0,1,1-.851.851A.851.851,0,0,1,149.956,61.607Z" transform="translate(-114.387 -28.591)"/>
      <path id="Path_1263161" data-name="Path 1263161" d="M440,64h1.7v1.7H440Z" transform="translate(-378.906 -42.895)"/>
      <path id="Path_1263162" data-name="Path 1263162" d="M112,176h1.7v1.7H112Z" transform="translate(-85.79 -142.984)"/>
    </g>
  </g>
</svg>
