<svg xmlns="http://www.w3.org/2000/svg" width="89.445" height="89.444" viewBox="0 0 89.445 89.444">
  <g id="Group_1205672" data-name="Group 1205672" transform="translate(-755.278 -1371)">
    <g id="Group_1200255" data-name="Group 1200255" transform="translate(755.278 1371)">
      <g id="Group_1187152" data-name="Group 1187152" transform="translate(0 0)">
        <g id="Group_1185946" data-name="Group 1185946">
          <g id="Group_1184280" data-name="Group 1184280">
            <g id="Group_1182168" data-name="Group 1182168">
              <g id="Group_1178877" data-name="Group 1178877">
                <g id="Group_1111311" data-name="Group 1111311">
                  <g id="Group_1098742" data-name="Group 1098742" transform="translate(0 0)">
                    <g id="Rectangle_400898" data-name="Rectangle 400898" transform="translate(0.001 0)" fill="#b8a9f1" stroke="#7f75a8" stroke-width="1" opacity="0.859">
                      <rect width="89.444" height="89.444" rx="44.722" stroke="none"/>
                      <rect x="0.5" y="0.5" width="88.444" height="88.444" rx="44.222" fill="none"/>
                    </g>
                    <g id="Rectangle_400907" data-name="Rectangle 400907" transform="translate(0 0)" fill="none" stroke="#7f75a8" stroke-width="1">
                      <rect width="89.444" height="89.444" rx="44.722" stroke="none"/>
                      <rect x="0.5" y="0.5" width="88.444" height="88.444" rx="44.222" fill="none"/>
                    </g>
                  </g>
                </g>
              </g>
            </g>
          </g>
        </g>
      </g>
    </g>
    <path id="Path_1263127" data-name="Path 1263127" d="M394.774,267.305a1.779,1.779,0,0,1-2.515,0l-11.653-11.653,2.515-2.515,11.653,11.653A1.779,1.779,0,0,1,394.774,267.305Zm0,0" transform="translate(437.143 1162.246)" fill="#484b63"/>
    <path id="Path_1263128" data-name="Path 1263128" d="M7.5,62.5H44.847v52.4H7.5Zm0,0" transform="translate(766.012 1330.28)" fill="#d8d5ed"/>
    <path id="Path_1263129" data-name="Path 1263129" d="M40,307.727h7.114v19.207H40Zm0,0" transform="translate(737.365 1114.128)" fill="#ff2c5c"/>
    <path id="Path_1263130" data-name="Path 1263130" d="M134,247.727h7.114v26.321H134Zm0,0" transform="translate(654.51 1167.015)" fill="#ffd659"/>
    <path id="Path_1263131" data-name="Path 1263131" d="M230,269.727h7.114v23.712H230Zm0,0" transform="translate(569.892 1147.623)" fill="#4fc6f5"/>
    <path id="Path_1263132" data-name="Path 1263132" d="M70,307.727h3.557v19.207H70Zm0,0" transform="translate(710.922 1114.128)" fill="#e62753"/>
    <path id="Path_1263133" data-name="Path 1263133" d="M164,247.727h3.557v26.321H164Zm0,0" transform="translate(628.067 1167.015)" fill="#ffbd54"/>
    <path id="Path_1263134" data-name="Path 1263134" d="M260,269.727h3.557v23.712H260Zm0,0" transform="translate(543.449 1147.623)" fill="#3bb3e3"/>
    <path id="Path_1263135" data-name="Path 1263135" d="M169.094,13.025a18.851,18.851,0,1,0,0,26.659A18.851,18.851,0,0,0,169.094,13.025Zm0,0" transform="translate(651.942 1378.756)" fill="#50536e"/>
    <path id="Path_1263136" data-name="Path 1263136" d="M193.075,63.663a15.294,15.294,0,1,1,0-21.63A15.312,15.312,0,0,1,193.075,63.663Zm0,0" transform="translate(625.447 1352.263)" fill="#b5fcff"/>
    <path id="Path_1263137" data-name="Path 1263137" d="M293.507,42.037a15.272,15.272,0,0,0-12.593-4.369,15.286,15.286,0,0,1,0,30.368,15.289,15.289,0,0,0,12.593-26Zm0,0" transform="translate(525.014 1352.259)" fill="#71f6fc"/>
    <path id="Path_1263138" data-name="Path 1263138" d="M59.924,40.8,50.8,31.68A19.747,19.747,0,0,0,51.592,8.9a.889.889,0,1,0-1.486.978A17.979,17.979,0,1,1,47.784,7.03l.049.049a.889.889,0,0,0,1.262-1.253l-.051-.051a19.762,19.762,0,0,0-27.918,0q-.363.363-.7.739H.889A.889.889,0,0,0,0,7.4v3.933a.889.889,0,1,0,1.778,0V8.292H19a19.588,19.588,0,0,0-1.753,2.992H6.165a.889.889,0,1,0,0,1.778H16.508a19.7,19.7,0,0,0-.638,2.174h-9.7a.889.889,0,1,0,0,1.778h9.376a19.87,19.87,0,0,0-.179,2.173h-9.2a.889.889,0,0,0,0,1.779h9.227a19.761,19.761,0,0,0,1.991,7.511h-1.5a.889.889,0,0,0-.889.89V55.692a.889.889,0,0,0,.889.89H23a.889.889,0,0,0,.889-.89V36a19.593,19.593,0,0,0,2.49,1.458V55.692a.89.89,0,0,0,.889.89h7.114a.889.889,0,0,0,.889-.89V39.467a20.062,20.062,0,0,0,2.075-.128V53.076a.889.889,0,1,0,1.778,0V39.053a19.607,19.607,0,0,0,7.9-3.6l9.121,9.122A2.668,2.668,0,0,0,59.924,40.8Zm-37.812,14H16.777V30.257h1.6A19.753,19.753,0,0,0,21.126,33.7q.481.481.986.92Zm6.047,0V38.222A19.794,19.794,0,0,0,33.495,39.4V54.8ZM58.667,43.319a.889.889,0,0,1-1.258,0L48.4,34.31c.218-.2.433-.4.644-.614s.415-.425.615-.644l9.007,9.009A.89.89,0,0,1,58.667,43.319Zm0,0" transform="translate(772.623 1385.369)"/>
    <path id="Path_1263139" data-name="Path 1263139" d="M38.237,162.33a.889.889,0,0,0-.889.889v2.016H1.778V121.5A.889.889,0,0,0,0,121.5v44.625a.889.889,0,0,0,.889.889H38.237a.889.889,0,0,0,.889-.889v-2.905A.889.889,0,0,0,38.237,162.33Zm0,0" transform="translate(772.623 1279.061)"/>
    <path id="Path_1263140" data-name="Path 1263140" d="M32.5,301.085v19.21a.889.889,0,0,0,.889.889H40.5a.889.889,0,0,0,.889-.889v-19.21a.889.889,0,0,0-.889-.889H33.389A.889.889,0,0,0,32.5,301.085Zm1.778.89h5.336v17.431H34.278Zm0,0" transform="translate(743.976 1120.767)"/>
    <path id="Path_1263141" data-name="Path 1263141" d="M52.038,196.959a.889.889,0,0,0,0-1.779H45.389a.889.889,0,0,0,0,1.779Zm0,0" transform="translate(733.399 1213.331)"/>
    <path id="Path_1263142" data-name="Path 1263142" d="M175.654,29.988A16.16,16.16,0,1,0,187.1,34.722,16.074,16.074,0,0,0,175.654,29.988ZM185.84,56.355a14.426,14.426,0,1,1,4.212-10.187A14.306,14.306,0,0,1,185.84,56.355Zm0,0" transform="translate(632.054 1358.938)"/>
  </g>
</svg>
