<svg xmlns="http://www.w3.org/2000/svg" width="89.445" height="89.443" viewBox="0 0 89.445 89.443">
  <g id="Group_1205648" data-name="Group 1205648" transform="translate(-1006.051 -16711)">
    <g id="Group_1205179" data-name="Group 1205179" transform="translate(-15.916 13618.345)">
      <g id="Group_1200255" data-name="Group 1200255" transform="translate(1021.967 3092.655)">
        <g id="Group_1187152" data-name="Group 1187152" transform="translate(0 0)">
          <g id="Group_1185946" data-name="Group 1185946">
            <g id="Group_1184280" data-name="Group 1184280">
              <g id="Group_1182168" data-name="Group 1182168">
                <g id="Group_1178877" data-name="Group 1178877">
                  <g id="Group_1111311" data-name="Group 1111311">
                    <g id="Group_1098742" data-name="Group 1098742" transform="translate(0 0)">
                      <g id="Rectangle_400898" data-name="Rectangle 400898" transform="translate(0.001 0)" fill="#b8a9f1" stroke="#7f75a8" stroke-width="1" opacity="0.859">
                        <rect width="89.444" height="89.444" rx="44.722" stroke="none"/>
                        <rect x="0.5" y="0.5" width="88.444" height="88.444" rx="44.222" fill="none"/>
                      </g>
                      <g id="Rectangle_400907" data-name="Rectangle 400907" transform="translate(0 0)" fill="none" stroke="#7f75a8" stroke-width="1">
                        <rect width="89.444" height="89.444" rx="44.722" stroke="none"/>
                        <rect x="0.5" y="0.5" width="88.444" height="88.444" rx="44.222" fill="none"/>
                      </g>
                    </g>
                  </g>
                </g>
              </g>
            </g>
          </g>
        </g>
      </g>
    </g>
    <g id="celulas" transform="translate(1025.788 16720.178)">
      <g id="Group_1205646" data-name="Group 1205646" transform="translate(4.399 14.528)">
        <rect id="Rectangle_426000" data-name="Rectangle 426000" width="28.089" height="28.187" transform="translate(0 0)" fill="#fff"/>
        <rect id="Rectangle_426001" data-name="Rectangle 426001" width="28.089" height="28.187" transform="translate(17.605 14.093)" fill="#fff"/>
      </g>
      <path id="Path_1263066" data-name="Path 1263066" d="M40.283,17.443H10.653a2.791,2.791,0,0,0-2.791,2.791V51.061a2.791,2.791,0,0,0,2.791,2.791H40.283a2.791,2.791,0,0,0,2.791-2.791V20.234A2.791,2.791,0,0,0,40.283,17.443ZM13.444,33.718h9.232v3.859H13.444Zm24.047-5.582H28.259v-5.11h9.232Zm-14.815-5.11v5.11H13.444v-5.11ZM13.444,43.159h9.232v5.11H13.444Z" transform="translate(-7.025 -7.026)" fill="#b4bbcc"/>
      <path id="Path_1263067" data-name="Path 1263067" d="M205.922,152.68H176.292a2.791,2.791,0,0,0-2.791,2.791V186.3a2.791,2.791,0,0,0,2.791,2.791h29.629a2.791,2.791,0,0,0,2.791-2.791V155.471A2.791,2.791,0,0,0,205.922,152.68ZM193.9,168.955h9.232v3.859H193.9Zm9.232-5.582H193.9v-5.11h9.232ZM179.083,178.4h9.232v5.11h-9.232Zm14.815,5.11V178.4h9.232v5.11Z" transform="translate(-155.024 -127.86)" fill="#c7cfe2"/>
      <g id="Group_1205647" data-name="Group 1205647" transform="translate(24.06 30.402)">
        <rect id="Rectangle_426002" data-name="Rectangle 426002" width="9.232" height="3.859" transform="translate(0 10.692)" fill="#7dd2f0"/>
        <rect id="Rectangle_426003" data-name="Rectangle 426003" width="9.232" height="5.11" fill="#7dd2f0"/>
      </g>
      <path id="Path_1263068" data-name="Path 1263068" d="M201.6,68.783a.837.837,0,0,0,.837-.837v-5.11A.837.837,0,0,0,201.6,62h-9.232a.837.837,0,0,0-.837.837v5.11a.837.837,0,0,0,.837.837H201.6Zm-8.4-5.11h7.558v3.435H193.2Z" transform="translate(-171.13 -46.836)"/>
      <path id="Path_1263069" data-name="Path 1263069" d="M63.324,62.835A.837.837,0,0,0,62.487,62H53.254a.837.837,0,0,0-.837.837v5.11a.837.837,0,0,0,.837.837h9.232a.837.837,0,0,0,.837-.837Zm-1.675,4.273H54.092V63.673H61.65v3.435Z" transform="translate(-46.835 -46.836)"/>
      <path id="Path_1263070" data-name="Path 1263070" d="M63.324,163.235a.837.837,0,0,0-.837-.837H53.254a.837.837,0,0,0-.837.837v3.859a.837.837,0,0,0,.837.837h9.232a.837.837,0,0,0,.837-.837Zm-1.675,3.022H54.092v-2.185H61.65v2.185Z" transform="translate(-46.835 -136.543)"/>
      <path id="Path_1263071" data-name="Path 1263071" d="M62.487,251.056H53.254a.837.837,0,0,0-.837.837V257a.837.837,0,0,0,.837.837h9.232a.837.837,0,0,0,.837-.837v-5.11A.837.837,0,0,0,62.487,251.056Zm-.837,5.11H54.092v-3.435H61.65v3.435Z" transform="translate(-46.835 -215.76)"/>
      <path id="Path_1263072" data-name="Path 1263072" d="M228.126,386.293h-9.232a.837.837,0,0,0-.837.837v5.11a.837.837,0,0,0,.837.837h9.232a.837.837,0,0,0,.837-.837v-5.11A.837.837,0,0,0,228.126,386.293Zm-.837,5.11h-7.558v-3.435h7.558Z" transform="translate(-194.834 -336.594)"/>
      <path id="Path_1263073" data-name="Path 1263073" d="M17.64,58.437a3.633,3.633,0,0,0,3.628,3.628H44.025a.837.837,0,1,0,0-1.675H21.269a1.956,1.956,0,0,1-1.954-1.954V27.611a1.956,1.956,0,0,1,1.954-1.954H50.9a1.956,1.956,0,0,1,1.954,1.954V58.437A1.956,1.956,0,0,1,50.9,60.391H47.374a.837.837,0,1,0,0,1.675H50.9a3.633,3.633,0,0,0,3.628-3.628V27.611A3.633,3.633,0,0,0,50.9,23.982H36.886V13.209A3.633,3.633,0,0,0,33.258,9.58H12.04a.837.837,0,1,0,0,1.675H33.258a1.956,1.956,0,0,1,1.954,1.954V23.982H21.269a3.633,3.633,0,0,0-3.628,3.628V45.989H3.628a1.956,1.956,0,0,1-1.954-1.954V13.209a1.956,1.956,0,0,1,1.954-1.954H8.69a.837.837,0,0,0,0-1.675H3.628A3.633,3.633,0,0,0,0,13.209V44.035a3.633,3.633,0,0,0,3.628,3.628H17.64V58.437Z"/>
      <path id="Path_1263074" data-name="Path 1263074" d="M357.165,392.24a.837.837,0,0,0,.837.837h9.232a.837.837,0,0,0,.837-.837v-5.11a.837.837,0,0,0-.837-.837H358a.837.837,0,0,0-.837.837Zm1.675-4.273H366.4V391.4H358.84Z" transform="translate(-319.128 -336.593)"/>
      <path id="Path_1263075" data-name="Path 1263075" d="M228.962,298.472a.837.837,0,0,0-.837-.837h-9.232a.837.837,0,0,0-.837.837v3.859a.837.837,0,0,0,.837.837h9.232a.837.837,0,0,0,.837-.837Zm-1.675,3.022H219.73V299.31h7.558Z" transform="translate(-194.833 -257.378)"/>
      <path id="Path_1263076" data-name="Path 1263076" d="M358,204.018h9.232a.837.837,0,0,0,.837-.837v-5.11a.837.837,0,0,0-.837-.837H358a.837.837,0,0,0-.837.837v5.11A.837.837,0,0,0,358,204.018Zm.837-5.11H366.4v3.435H358.84Z" transform="translate(-319.128 -167.669)"/>
      <path id="Path_1263077" data-name="Path 1263077" d="M228.962,198.072a.837.837,0,0,0-.837-.837h-9.232a.837.837,0,0,0-.837.837v5.11a.837.837,0,0,0,.837.837h9.232a.837.837,0,0,0,.837-.837Zm-1.675,4.273H219.73V198.91h7.558Z" transform="translate(-194.833 -167.67)"/>
      <path id="Path_1263078" data-name="Path 1263078" d="M357.165,302.333a.837.837,0,0,0,.837.837h9.232a.837.837,0,0,0,.837-.837v-3.859a.837.837,0,0,0-.837-.837H358a.837.837,0,0,0-.837.837Zm1.675-3.022H366.4V301.5H358.84Z" transform="translate(-319.128 -257.379)"/>
    </g>
  </g>
</svg>
