<svg xmlns="http://www.w3.org/2000/svg" width="89.445" height="89.444" viewBox="0 0 89.445 89.444">
  <g id="Group_1205692" data-name="Group 1205692" transform="translate(-755 -4902)">
    <g id="Group_1205193" data-name="Group 1205193" transform="translate(-266.967 1809.345)">
      <g id="Group_1200255" data-name="Group 1200255" transform="translate(1021.967 3092.655)">
        <g id="Group_1187152" data-name="Group 1187152" transform="translate(0 0)">
          <g id="Group_1185946" data-name="Group 1185946">
            <g id="Group_1184280" data-name="Group 1184280">
              <g id="Group_1182168" data-name="Group 1182168">
                <g id="Group_1178877" data-name="Group 1178877">
                  <g id="Group_1111311" data-name="Group 1111311">
                    <g id="Group_1098742" data-name="Group 1098742" transform="translate(0 0)">
                      <g id="Rectangle_400898" data-name="Rectangle 400898" transform="translate(0.001 0)" fill="#fecb20" stroke="#7f75a8" stroke-width="1" opacity="0.859">
                        <rect width="89.444" height="89.444" rx="44.722" stroke="none"/>
                        <rect x="0.5" y="0.5" width="88.444" height="88.444" rx="44.222" fill="none"/>
                      </g>
                      <g id="Rectangle_400907" data-name="Rectangle 400907" transform="translate(0 0)" fill="none" stroke="#7f75a8" stroke-width="1">
                        <rect width="89.444" height="89.444" rx="44.722" stroke="none"/>
                        <rect x="0.5" y="0.5" width="88.444" height="88.444" rx="44.222" fill="none"/>
                      </g>
                    </g>
                  </g>
                </g>
              </g>
            </g>
          </g>
        </g>
      </g>
    </g>
    <g id="Group_1205194" data-name="Group 1205194" transform="translate(227.812 1994.596)">
      <g id="Group_1200255-2" data-name="Group 1200255" transform="translate(592.046 2943.057)">
        <g id="Group_1187152-2" data-name="Group 1187152" transform="translate(0 0)">
          <g id="Group_1185946-2" data-name="Group 1185946" transform="translate(0 0)">
            <g id="Group_1184280-2" data-name="Group 1184280" transform="translate(0 0)">
              <g id="Group_1182168-2" data-name="Group 1182168">
                <g id="Group_1178877-2" data-name="Group 1178877">
                  <g id="Group_1111311-2" data-name="Group 1111311">
                    <g id="Group_1098742-2" data-name="Group 1098742" transform="translate(0 0)">
                      <g id="Rectangle_400898-2" data-name="Rectangle 400898" transform="translate(0 0)" fill="#fecb20" stroke="#7f75a8" stroke-width="1" opacity="0.859">
                        <rect width="8.959" height="8.959" rx="4.48" stroke="none"/>
                        <rect x="0.5" y="0.5" width="7.959" height="7.959" rx="3.98" fill="none"/>
                      </g>
                      <g id="Rectangle_400907-2" data-name="Rectangle 400907" transform="translate(0 0)" fill="none" stroke="#7f75a8" stroke-width="1">
                        <rect width="8.959" height="8.959" rx="4.48" stroke="none"/>
                        <rect x="0.5" y="0.5" width="7.959" height="7.959" rx="3.98" fill="none"/>
                      </g>
                    </g>
                  </g>
                </g>
              </g>
            </g>
          </g>
        </g>
      </g>
      <g id="hacer-clic" transform="translate(544.188 2926.405)">
        <g id="Group_1205690" data-name="Group 1205690" transform="translate(14.016 14.15)">
          <path id="Path_1263186" data-name="Path 1263186" d="M175.2,152.833l-32.614-11.151a2,2,0,0,0-2.548,2.533l11.213,32.433a1.972,1.972,0,0,0,.749.989,1.872,1.872,0,0,0,2.816-.995l5.033-15.364,15.276-4.882a1.882,1.882,0,0,0,.189-3.52Q175.255,152.853,175.2,152.833Z" transform="translate(-139.922 -141.57)" fill="#fee438"/>
          <g id="Group_1205689" data-name="Group 1205689" transform="translate(0.001)">
            <path id="Path_1263187" data-name="Path 1263187" d="M258.818,339.526l-4.863,14.4a1.963,1.963,0,0,0,.653.761,1.872,1.872,0,0,0,2.816-.995l5.033-15.364Z" transform="translate(-242.534 -318.618)" fill="#f2d935"/>
            <path id="Path_1263188" data-name="Path 1263188" d="M175.319,152.876q-.056-.023-.114-.043L142.59,141.682a2,2,0,0,0-2.6,2.358L171.2,154.71q.058.02.114.043a1.851,1.851,0,0,1,.926,2.568l2.892-.924A1.882,1.882,0,0,0,175.319,152.876Z" transform="translate(-139.931 -141.57)" fill="#f2d935"/>
          </g>
        </g>
        <g id="Group_1205691" data-name="Group 1205691" transform="translate(0 0)">
          <path id="Path_1263189" data-name="Path 1263189" d="M13.6,28.344A13.386,13.386,0,0,1,1.51,14.634a13.466,13.466,0,0,1,22.7-9.144A.752.752,0,0,0,25.244,4.4,14.968,14.968,0,0,0,.009,14.581,14.892,14.892,0,0,0,13.447,29.839.752.752,0,0,0,13.6,28.344Z" transform="translate(0 -0.305)" fill="#060606"/>
          <path id="Path_1263190" data-name="Path 1263190" d="M146.188,41.589a.752.752,0,0,0-.053,1.5,9.315,9.315,0,0,1,4.929,1.611.752.752,0,0,0,.847-1.241A10.816,10.816,0,0,0,146.188,41.589Z" transform="translate(-130.865 -37.453)" fill="#060606"/>
          <path id="Path_1263191" data-name="Path 1263191" d="M49.1,49.4a.752.752,0,0,0-.531-1.405,10.627,10.627,0,0,0-4.75,16.418,10.829,10.829,0,0,0,5.908,3.9.752.752,0,0,0,.37-1.456A9.321,9.321,0,0,1,45.009,63.5,9.125,9.125,0,0,1,49.1,49.4Z" transform="translate(-37.461 -43.169)" fill="#060606"/>
          <path id="Path_1263192" data-name="Path 1263192" d="M168.886,145.479q-.076-.031-.155-.058L136.117,134.27a2.774,2.774,0,0,0-3.5,3.49l11.214,32.433a2.648,2.648,0,0,0,4.988-.017l2.1-6.4a.752.752,0,0,0-1.428-.468l-2.1,6.4a1.129,1.129,0,0,1-2.141-.006l-11.213-32.433a1.257,1.257,0,0,1,1.595-1.577l32.614,11.151a1.134,1.134,0,0,1-.06,2.137l-15.276,4.882a.751.751,0,0,0-.485.482l-1.664,5.081a.752.752,0,0,0,1.428.468l1.545-4.716,14.91-4.765A2.655,2.655,0,0,0,168.886,145.479Z" transform="translate(-119.198 -120.719)" fill="#060606"/>
          <path id="Path_1263193" data-name="Path 1263193" d="M307.334,82.77c.053.009,1.351.014,1.936.011a.752.752,0,0,0-.008-1.5l-1.049,0v-4.4a.752.752,0,0,0-1.5,0V82.03A.751.751,0,0,0,307.334,82.77Z" transform="translate(-275.988 -68.555)" fill="#060606"/>
          <path id="Path_1263194" data-name="Path 1263194" d="M439.989,82.785a.751.751,0,0,0,.751-.751V80.951l1.682,1.623a.752.752,0,0,0,1.043-1.081l-2.216-2.138,2.02-1.857a.752.752,0,0,0-1.017-1.106l-1.513,1.39v-.9a.752.752,0,0,0-1.5,0v5.153A.751.751,0,0,0,439.989,82.785Z" transform="translate(-395.241 -68.554)" fill="#060606"/>
          <path id="Path_1263195" data-name="Path 1263195" d="M349.672,82.785a.751.751,0,0,0,.751-.751V76.881a.752.752,0,0,0-1.5,0v5.153A.751.751,0,0,0,349.672,82.785Z" transform="translate(-313.971 -68.555)" fill="#060606"/>
          <path id="Path_1263196" data-name="Path 1263196" d="M497.751,75.925a.751.751,0,0,0-.751.751v2.763a.752.752,0,0,0,1.5,0V76.676A.751.751,0,0,0,497.751,75.925Z" transform="translate(-447.217 -68.35)" fill="#060606"/>
          <path id="Path_1263197" data-name="Path 1263197" d="M240.587,79.252a3.332,3.332,0,0,0,3.328,3.328,2.848,2.848,0,0,0,2.2-1,.752.752,0,0,0-1.152-.965,1.4,1.4,0,0,1-1.047.459,1.826,1.826,0,1,1,1.02-3.34.752.752,0,0,0,.841-1.245,3.328,3.328,0,0,0-5.189,2.759Z" transform="translate(-216.488 -68.35)" fill="#060606"/>
          <path id="Path_1263198" data-name="Path 1263198" d="M376.441,82.579a2.849,2.849,0,0,0,2.2-1,.752.752,0,0,0-1.151-.966,1.4,1.4,0,0,1-1.048.459,1.826,1.826,0,1,1,1.02-3.34.752.752,0,0,0,.841-1.245,3.328,3.328,0,1,0-1.861,6.087Z" transform="translate(-335.739 -68.349)" fill="#060606"/>
          <path id="Path_1263199" data-name="Path 1263199" d="M497.981,126.3a.752.752,0,0,0,0,1.5A.752.752,0,0,0,497.981,126.3Z" transform="translate(-447.446 -113.68)" fill="#060606"/>
        </g>
      </g>
    </g>
  </g>
</svg>
