<svg xmlns="http://www.w3.org/2000/svg" xmlns:xlink="http://www.w3.org/1999/xlink" width="118" height="118" viewBox="0 0 118 118">
  <defs>
    <filter id="Rectangle_411831" x="0" y="0" width="118" height="118" filterUnits="userSpaceOnUse">
      <feOffset dy="3" input="SourceAlpha"/>
      <feGaussianBlur stdDeviation="3" result="blur"/>
      <feFlood flood-opacity="0.161"/>
      <feComposite operator="in" in2="blur"/>
      <feComposite in="SourceGraphic"/>
    </filter>
  </defs>
  <g id="Group_1205724" data-name="Group 1205724" transform="translate(-1104.282 -7472)">
    <g id="Group_1205202" data-name="Group 1205202" transform="translate(312.501 5516)">
      <g id="Group_1203409" data-name="Group 1203409" transform="translate(465 -1896)">
        <g transform="matrix(1, 0, 0, 1, 326.78, 3852)" filter="url(#Rectangle_411831)">
          <g id="Rectangle_411831-2" data-name="Rectangle 411831" transform="translate(9 6)" fill="#fecb20" stroke="#fff" stroke-width="2">
            <path d="M5,0H68a32,32,0,0,1,32,32V95a5,5,0,0,1-5,5H32A32,32,0,0,1,0,68V5A5,5,0,0,1,5,0Z" stroke="none"/>
            <path d="M5,1H68A31,31,0,0,1,99,32V95a4,4,0,0,1-4,4H32A31,31,0,0,1,1,68V5A4,4,0,0,1,5,1Z" fill="none"/>
          </g>
        </g>
      </g>
    </g>
    <g id="calcular" transform="translate(1133.521 7497.137)">
      <g id="Group_1205722" data-name="Group 1205722" transform="translate(1.167 1.167)">
        <path id="Path_1263254" data-name="Path 1263254" d="M74.007,67a2.334,2.334,0,0,0-2.335-2.335H69.338V62.335a2.335,2.335,0,1,0-4.669,0v2.335H62.335a2.335,2.335,0,1,0,0,4.669h2.335v2.335a2.335,2.335,0,1,0,4.669,0V69.338h2.335A2.334,2.334,0,0,0,74.007,67Z" transform="translate(-54.164 -54.164)" fill="#fff" fill-rule="evenodd"/>
        <path id="Path_1263255" data-name="Path 1263255" d="M27.509,20.505a2.335,2.335,0,0,1,0,4.669H25.174v2.335a2.335,2.335,0,1,1-4.669,0V25.174H18.171a2.335,2.335,0,1,1,0-4.669h2.335V18.171a2.335,2.335,0,0,1,4.669,0v2.335ZM31.011,10H14.669A4.683,4.683,0,0,0,10,14.669V31.011a4.683,4.683,0,0,0,4.669,4.669H31.011a4.683,4.683,0,0,0,4.669-4.669V14.669A4.683,4.683,0,0,0,31.011,10Z" transform="translate(-10 -10)" fill="#ff5d7d" fill-rule="evenodd"/>
        <path id="Path_1263256" data-name="Path 1263256" d="M31.011,282H14.669A4.683,4.683,0,0,0,10,286.671v16.342a4.683,4.683,0,0,0,4.669,4.669H31.011a4.683,4.683,0,0,0,4.669-4.669V286.671A4.683,4.683,0,0,0,31.011,282Zm-12.84,10.505h9.338a2.335,2.335,0,1,1,0,4.669H18.171a2.335,2.335,0,1,1,0-4.669Z" transform="translate(-10 -250.252)" fill="#ffea60" fill-rule="evenodd"/>
        <path id="Path_1263257" data-name="Path 1263257" d="M71.673,372H62.335a2.335,2.335,0,0,0,0,4.669h9.338a2.335,2.335,0,0,0,0-4.669Z" transform="translate(-54.164 -329.747)" fill="#fff" fill-rule="evenodd"/>
        <path id="Path_1263258" data-name="Path 1263258" d="M66.342,77.081a4.683,4.683,0,0,1,4.669,4.669V98.091h6.07V81.75a4.683,4.683,0,0,1,4.669-4.669H98.091v-6.07H81.75a4.683,4.683,0,0,1-4.669-4.669V50h-6.07V66.342a4.683,4.683,0,0,1-4.669,4.669H50v6.07Z" transform="translate(-45.331 -45.331)" fill="#8690af" fill-rule="evenodd"/>
        <path id="Path_1263259" data-name="Path 1263259" d="M282,31.011a4.683,4.683,0,0,0,4.669,4.669h16.342a4.683,4.683,0,0,0,4.669-4.669V14.669A4.683,4.683,0,0,0,303.013,10H286.671A4.683,4.683,0,0,0,282,14.669Zm11.189-3.219a2.334,2.334,0,1,1-3.3-3.3l6.6-6.6a2.334,2.334,0,1,1,3.3,3.3Z" transform="translate(-250.252 -10)" fill="#cbe558" fill-rule="evenodd"/>
        <path id="Path_1263260" data-name="Path 1263260" d="M344.4,82.3a2.334,2.334,0,0,0,3.3,0l6.6-6.6a2.334,2.334,0,1,0-3.3-3.3L344.4,79A2.334,2.334,0,0,0,344.4,82.3Z" transform="translate(-304.765 -64.512)" fill="#fff" fill-rule="evenodd"/>
        <path id="Path_1263261" data-name="Path 1263261" d="M303.013,282H286.671A4.683,4.683,0,0,0,282,286.671v16.342a4.683,4.683,0,0,0,4.669,4.669h16.342a4.683,4.683,0,0,0,4.669-4.669V286.671A4.683,4.683,0,0,0,303.013,282Zm-13.123,7.887a2.335,2.335,0,0,1,3.3,0l1.651,1.651,1.651-1.651a2.335,2.335,0,0,1,3.3,3.3l-1.651,1.651,1.651,1.651a2.334,2.334,0,1,1-3.3,3.3l-1.651-1.651-1.651,1.651a2.334,2.334,0,0,1-3.3-3.3l1.651-1.651-1.651-1.651A2.334,2.334,0,0,1,289.89,289.889Z" transform="translate(-250.252 -250.252)" fill="#66e0f7" fill-rule="evenodd"/>
        <path id="Path_1263262" data-name="Path 1263262" d="M354.306,344.4a2.335,2.335,0,0,0-3.3,0l-1.651,1.651L347.7,344.4a2.334,2.334,0,0,0-3.3,3.3l1.651,1.651L344.4,351a2.334,2.334,0,0,0,3.3,3.3l1.651-1.651L351,354.306a2.334,2.334,0,0,0,3.3-3.3l-1.651-1.651,1.651-1.651A2.334,2.334,0,0,0,354.306,344.4Z" transform="translate(-304.764 -304.764)" fill="#fff" fill-rule="evenodd"/>
      </g>
      <g id="Group_1205723" data-name="Group 1205723">
        <path id="Path_1263263" data-name="Path 1263263" d="M59.764,22.178V5.836A5.843,5.843,0,0,0,53.927,0H37.586a5.846,5.846,0,0,0-5.719,4.669H27.9A5.846,5.846,0,0,0,22.178,0H5.836A5.843,5.843,0,0,0,0,5.836V22.178A5.846,5.846,0,0,0,4.669,27.9v3.97A5.846,5.846,0,0,0,0,37.586V53.928a5.843,5.843,0,0,0,5.836,5.836H22.178A5.846,5.846,0,0,0,27.9,55.095h3.97a5.846,5.846,0,0,0,5.719,4.669H53.927a5.843,5.843,0,0,0,5.836-5.836V37.586a5.846,5.846,0,0,0-4.669-5.719V27.9A5.846,5.846,0,0,0,59.764,22.178ZM37.586,2.335H53.927a3.506,3.506,0,0,1,3.5,3.5V22.178a3.506,3.506,0,0,1-3.5,3.5H37.586a3.506,3.506,0,0,1-3.5-3.5V5.836A3.506,3.506,0,0,1,37.586,2.335ZM2.335,22.178V5.836a3.506,3.506,0,0,1,3.5-3.5H22.178a3.506,3.506,0,0,1,3.5,3.5V22.178a3.506,3.506,0,0,1-3.5,3.5H5.836A3.506,3.506,0,0,1,2.335,22.178ZM22.178,57.429H5.836a3.506,3.506,0,0,1-3.5-3.5V37.586a3.506,3.506,0,0,1,3.5-3.5H8.754a1.167,1.167,0,1,0,0-2.335H7V28.014H22.178a5.843,5.843,0,0,0,5.836-5.836V7H31.75V22.178a5.843,5.843,0,0,0,5.836,5.836H52.76V31.75H37.586a5.843,5.843,0,0,0-5.836,5.836V52.76H28.014V37.586a5.843,5.843,0,0,0-5.836-5.836H19.259a1.167,1.167,0,1,0,0,2.335h2.918a3.506,3.506,0,0,1,3.5,3.5V53.927A3.506,3.506,0,0,1,22.178,57.429ZM57.429,37.586V53.927a3.506,3.506,0,0,1-3.5,3.5H37.586a3.506,3.506,0,0,1-3.5-3.5V37.586a3.506,3.506,0,0,1,3.5-3.5H53.927A3.506,3.506,0,0,1,57.429,37.586Z"/>
        <path id="Path_1263264" data-name="Path 1263264" d="M53.5,61.673h1.167V62.84a3.5,3.5,0,0,0,7,0V61.673H62.84a3.5,3.5,0,0,0,0-7H61.673V53.5a3.5,3.5,0,0,0-7,0v1.167H53.5a3.5,3.5,0,0,0,0,7ZM53.5,57h2.335A1.167,1.167,0,0,0,57,55.836V53.5a1.167,1.167,0,0,1,2.335,0v2.335A1.167,1.167,0,0,0,60.505,57H62.84a1.167,1.167,0,0,1,0,2.335H60.505a1.167,1.167,0,0,0-1.167,1.167V62.84a1.167,1.167,0,0,1-2.335,0V60.505a1.167,1.167,0,0,0-1.167-1.167H53.5A1.167,1.167,0,0,1,53.5,57Z" transform="translate(-44.164 -44.164)"/>
        <path id="Path_1263265" data-name="Path 1263265" d="M62.84,362H53.5a3.5,3.5,0,1,0,0,7H62.84a3.5,3.5,0,1,0,0-7Zm0,4.669H53.5a1.167,1.167,0,0,1,0-2.335H62.84a1.167,1.167,0,0,1,0,2.335Z" transform="translate(-44.164 -319.747)"/>
        <path id="Path_1263266" data-name="Path 1263266" d="M346.311,334.756a3.506,3.506,0,0,0-4.952,0l-.825.825-.825-.825a3.5,3.5,0,0,0-4.952,4.952l.825.825-.825.825a3.5,3.5,0,0,0,4.952,4.952l.825-.825.825.825a3.5,3.5,0,0,0,4.952-4.952l-.825-.825.825-.825A3.506,3.506,0,0,0,346.311,334.756Zm-3.3,6.6,1.651,1.651a1.167,1.167,0,0,1-1.651,1.651l-1.651-1.651a1.167,1.167,0,0,0-1.651,0l-1.651,1.651a1.167,1.167,0,0,1-1.651-1.651l1.651-1.651a1.167,1.167,0,0,0,0-1.651l-1.651-1.651a1.167,1.167,0,0,1,1.651-1.651l1.651,1.651a1.167,1.167,0,0,0,1.651,0l1.651-1.651a1.167,1.167,0,0,1,1.651,1.651l-1.651,1.651A1.167,1.167,0,0,0,343.01,341.359Z" transform="translate(-294.777 -294.777)"/>
        <path id="Path_1263267" data-name="Path 1263267" d="M337.232,75.334a3.492,3.492,0,0,0,2.476-1.024l6.6-6.6a3.5,3.5,0,0,0-4.952-4.952l-6.6,6.6a3.5,3.5,0,0,0,2.476,5.976Zm-.825-4.325,6.6-6.6a1.167,1.167,0,0,1,1.651,1.651l-6.6,6.6a1.167,1.167,0,0,1-1.651-1.651Z" transform="translate(-294.777 -54.525)"/>
        <path id="Path_1263268" data-name="Path 1263268" d="M111.165,274.337a1.167,1.167,0,0,0,0-2.335h0a1.167,1.167,0,0,0,0,2.335Z" transform="translate(-97.158 -240.252)"/>
      </g>
    </g>
  </g>
</svg>
