<svg xmlns="http://www.w3.org/2000/svg" xmlns:xlink="http://www.w3.org/1999/xlink" width="118" height="118" viewBox="0 0 118 118">
  <defs>
    <filter id="Rectangle_411831" x="0" y="0" width="118" height="118" filterUnits="userSpaceOnUse">
      <feOffset dy="3" input="SourceAlpha"/>
      <feGaussianBlur stdDeviation="3" result="blur"/>
      <feFlood flood-opacity="0.161"/>
      <feComposite operator="in" in2="blur"/>
      <feComposite in="SourceGraphic"/>
    </filter>
  </defs>
  <g id="Group_1205771" data-name="Group 1205771" transform="translate(-5951.147 -2587.834)">
    <g id="Group_1205325" data-name="Group 1205325" transform="translate(5159.366 631.834)">
      <g id="Group_1203409" data-name="Group 1203409" transform="translate(465 -1896)">
        <g transform="matrix(1, 0, 0, 1, 326.78, 3852)" filter="url(#Rectangle_411831)">
          <g id="Rectangle_411831-2" data-name="Rectangle 411831" transform="translate(9 6)" fill="#fecb20" stroke="#fff" stroke-width="2">
            <path d="M5,0H68a32,32,0,0,1,32,32V95a5,5,0,0,1-5,5H32A32,32,0,0,1,0,68V5A5,5,0,0,1,5,0Z" stroke="none"/>
            <path d="M5,1H68A31,31,0,0,1,99,32V95a4,4,0,0,1-4,4H32A31,31,0,0,1,1,68V5A4,4,0,0,1,5,1Z" fill="none"/>
          </g>
        </g>
      </g>
    </g>
    <g id="_12._Verification" data-name="12. Verification" transform="translate(5980 2589.297)">
      <rect id="Rectangle_426022" data-name="Rectangle 426022" width="40" height="53" rx="16" transform="translate(1 25.093)" fill="#c1d1f7"/>
      <path id="Path_1263347" data-name="Path 1263347" d="M45.908,394.106h-35.8A2.106,2.106,0,0,1,8,392v3.159a2.106,2.106,0,0,0,2.106,2.106h35.8a2.106,2.106,0,0,0,2.106-2.106V392A2.106,2.106,0,0,1,45.908,394.106Z" transform="translate(-6.947 -319.562)" fill="#adbeee"/>
      <path id="Path_1263348" data-name="Path 1263348" d="M38.961,78.756H11.583a1.053,1.053,0,1,1,0-2.106H38.961A1.053,1.053,0,0,0,40.014,75.6V27.159a1.053,1.053,0,0,0-1.053-1.053H3.159a1.053,1.053,0,0,0-1.053,1.053V75.6A1.053,1.053,0,0,0,3.159,76.65H7.371a1.053,1.053,0,1,1,0,2.106H3.159A3.159,3.159,0,0,1,0,75.6V27.159A3.159,3.159,0,0,1,3.159,24h35.8a3.159,3.159,0,0,1,3.159,3.159V75.6A3.159,3.159,0,0,1,38.961,78.756Z"/>
      <path id="Path_1263349" data-name="Path 1263349" d="M128.014,90.53v40.014a2.106,2.106,0,0,1-2.106,2.106h-35.8A2.106,2.106,0,0,1,88,130.544V82.106A2.106,2.106,0,0,1,90.106,80h27.378Z" transform="translate(-76.417 -48.629)" fill="#eaf2ff"/>
      <path id="Path_1263350" data-name="Path 1263350" d="M125.908,442.106h-35.8A2.106,2.106,0,0,1,88,440v3.159a2.106,2.106,0,0,0,2.106,2.106h35.8a2.106,2.106,0,0,0,2.106-2.106V440A2.106,2.106,0,0,1,125.908,442.106Z" transform="translate(-76.417 -361.244)" fill="#c1d1f7"/>
      <path id="Path_1263351" data-name="Path 1263351" d="M118.961,126.756h-35.8A3.159,3.159,0,0,1,80,123.6V75.159A3.159,3.159,0,0,1,83.159,72h27.378a1.053,1.053,0,0,1,.745.308l10.53,10.53a1.053,1.053,0,0,1,.308.745v4.212a1.053,1.053,0,0,1-2.106,0V84.019L110.1,74.106H83.159a1.053,1.053,0,0,0-1.053,1.053V123.6a1.053,1.053,0,0,0,1.053,1.053h35.8a1.053,1.053,0,0,0,1.053-1.053V94.113a1.053,1.053,0,1,1,2.106,0V123.6A3.159,3.159,0,0,1,118.961,126.756Z" transform="translate(-69.47 -41.682)"/>
      <path id="Path_1263352" data-name="Path 1263352" d="M315.583,84.63h-8.424A3.159,3.159,0,0,1,304,81.471V73.047a1.053,1.053,0,0,1,1.8-.745l10.53,10.53a1.053,1.053,0,0,1-.745,1.8Zm-9.477-9.041v5.882a1.053,1.053,0,0,0,1.053,1.053h5.882Z" transform="translate(-263.986 -41.676)"/>
      <path id="Path_1263353" data-name="Path 1263353" d="M322.53,90.53h-8.424A2.106,2.106,0,0,1,312,88.424V80Z" transform="translate(-270.933 -48.629)" fill="#c1d1f7"/>
      <path id="Path_1263354" data-name="Path 1263354" d="M315.583,84.63h-8.424A3.159,3.159,0,0,1,304,81.471V73.047a1.053,1.053,0,0,1,1.8-.745l10.53,10.53a1.053,1.053,0,0,1-.745,1.8Zm-9.477-9.041v5.882a1.053,1.053,0,0,0,1.053,1.053h5.882Z" transform="translate(-263.986 -41.676)"/>
      <path id="Path_1263355" data-name="Path 1263355" d="M136,128h16.848v4.212H136Z" transform="translate(-118.099 -90.311)" fill="#e38343"/>
      <path id="Path_1263356" data-name="Path 1263356" d="M145.9,126.318H129.053A1.053,1.053,0,0,1,128,125.265v-4.212A1.053,1.053,0,0,1,129.053,120H145.9a1.053,1.053,0,0,1,1.053,1.053v4.212A1.053,1.053,0,0,1,145.9,126.318Zm-15.795-2.106h14.742v-2.106H130.106Z" transform="translate(-111.152 -83.364)"/>
      <path id="Path_1263357" data-name="Path 1263357" d="M136,200h6.318v6.318H136Z" transform="translate(-118.099 -152.834)" fill="#b1da7a"/>
      <path id="Path_1263358" data-name="Path 1263358" d="M135.371,200.424h-6.318A1.053,1.053,0,0,1,128,199.371v-6.318A1.053,1.053,0,0,1,129.053,192h6.318a1.053,1.053,0,0,1,1.053,1.053v6.318A1.053,1.053,0,0,1,135.371,200.424Zm-5.265-2.106h4.212v-4.212h-4.212Z" transform="translate(-111.152 -145.887)"/>
      <path id="Path_1263359" data-name="Path 1263359" d="M221.689,194.106H209.053a1.053,1.053,0,0,1,0-2.106h12.636a1.053,1.053,0,1,1,0,2.106Z" transform="translate(-180.622 -145.887)"/>
      <path id="Path_1263360" data-name="Path 1263360" d="M221.689,226.106H209.053a1.053,1.053,0,0,1,0-2.106h12.636a1.053,1.053,0,0,1,0,2.106Z" transform="translate(-180.622 -173.675)"/>
      <path id="Path_1263361" data-name="Path 1263361" d="M136,288h6.318v6.318H136Z" transform="translate(-118.099 -229.251)" fill="#b1da7a"/>
      <path id="Path_1263362" data-name="Path 1263362" d="M135.371,288.424h-6.318A1.053,1.053,0,0,1,128,287.371v-6.318A1.053,1.053,0,0,1,129.053,280h6.318a1.053,1.053,0,0,1,1.053,1.053v6.318A1.053,1.053,0,0,1,135.371,288.424Zm-5.265-2.106h4.212v-4.212h-4.212Z" transform="translate(-111.152 -222.304)"/>
      <path id="Path_1263363" data-name="Path 1263363" d="M221.689,282.106H209.053a1.053,1.053,0,0,1,0-2.106h12.636a1.053,1.053,0,1,1,0,2.106Z" transform="translate(-180.622 -222.304)"/>
      <path id="Path_1263364" data-name="Path 1263364" d="M221.689,314.106H209.053a1.053,1.053,0,0,1,0-2.106h12.636a1.053,1.053,0,1,1,0,2.106Z" transform="translate(-180.622 -250.092)"/>
      <path id="Path_1263365" data-name="Path 1263365" d="M136,376h6.318v6.318H136Z" transform="translate(-118.099 -305.668)" fill="#b1da7a"/>
      <path id="Path_1263366" data-name="Path 1263366" d="M135.371,376.424h-6.318A1.053,1.053,0,0,1,128,375.371v-6.318A1.053,1.053,0,0,1,129.053,368h6.318a1.053,1.053,0,0,1,1.053,1.053v6.318A1.053,1.053,0,0,1,135.371,376.424Zm-5.265-2.106h4.212v-4.212h-4.212Z" transform="translate(-111.152 -298.721)"/>
      <path id="Path_1263367" data-name="Path 1263367" d="M221.689,370.106H209.053a1.053,1.053,0,0,1,0-2.106h12.636a1.053,1.053,0,0,1,0,2.106Z" transform="translate(-180.622 -298.721)"/>
      <path id="Path_1263368" data-name="Path 1263368" d="M221.689,402.106H209.053a1.053,1.053,0,0,1,0-2.106h12.636a1.053,1.053,0,1,1,0,2.106Z" transform="translate(-180.622 -326.509)"/>
      <path id="Path_1263369" data-name="Path 1263369" d="M396.212,368,392,372.212l9.657,9.657a2.978,2.978,0,1,0,4.212-4.212Z" transform="translate(-340.403 -298.721)" fill="#e38343"/>
      <path id="Path_1263370" data-name="Path 1263370" d="M403.763,393.657,394.106,384,392,386.106l9.657,9.657a2.981,2.981,0,0,0,4.983-1.335A2.981,2.981,0,0,1,403.763,393.657Z" transform="translate(-340.403 -312.615)" fill="#df6117"/>
      <path id="Path_1263371" data-name="Path 1263371" d="M396.811,376.816a4,4,0,0,1-2.85-1.185l-9.659-9.657a1.053,1.053,0,0,1,0-1.49l4.212-4.212a1.053,1.053,0,0,1,1.49,0l9.653,9.663a4.03,4.03,0,0,1-2.847,6.881Zm-10.275-11.583,8.91,8.914a1.928,1.928,0,1,0,2.727-2.727l-8.914-8.91Z" transform="translate(-333.451 -291.743)"/>
      <circle id="Ellipse_13702" data-name="Ellipse 13702" cx="14" cy="14" r="14" transform="translate(31 49.093)" fill="#596060"/>
      <path id="Path_1263372" data-name="Path 1263372" d="M253.687,320.105a13.689,13.689,0,0,1-13.6-12.11,13.689,13.689,0,1,0,27.2,0A13.689,13.689,0,0,1,253.687,320.105Z" transform="translate(-208.408 -246.615)" fill="#4c5657"/>
      <path id="Path_1263373" data-name="Path 1263373" d="M246.742,237.484a14.742,14.742,0,1,1,14.742-14.742A14.742,14.742,0,0,1,246.742,237.484Zm0-27.378a12.636,12.636,0,1,0,12.636,12.636,12.636,12.636,0,0,0-12.636-12.636Z" transform="translate(-201.463 -159.781)"/>
      <ellipse id="Ellipse_13703" data-name="Ellipse 13703" cx="9.5" cy="9" rx="9.5" ry="9" transform="translate(36 54.093)" fill="#b1da7a"/>
      <path id="Path_1263374" data-name="Path 1263374" d="M281.476,251.2a9.477,9.477,0,0,1,9.345,7.9,9.477,9.477,0,1,0-18.691,0A9.477,9.477,0,0,1,281.476,251.2Z" transform="translate(-236.197 -194.558)" fill="#96bf5b"/>
      <path id="Path_1263375" data-name="Path 1263375" d="M274.53,261.06a10.53,10.53,0,1,1,10.53-10.53A10.53,10.53,0,0,1,274.53,261.06Zm0-18.954a8.424,8.424,0,1,0,8.424,8.424A8.424,8.424,0,0,0,274.53,242.106Z" transform="translate(-229.251 -187.569)"/>
      <path id="Path_1263376" data-name="Path 1263376" d="M315.463,303.059,312.3,299.9a1.054,1.054,0,0,1,1.49-1.49l2.414,2.415,4.52-4.521a1.054,1.054,0,0,1,1.49,1.49l-5.265,5.265a1.053,1.053,0,0,1-1.49,0Z" transform="translate(-270.929 -236.194)"/>
    </g>
  </g>
</svg>
