<svg xmlns="http://www.w3.org/2000/svg" xmlns:xlink="http://www.w3.org/1999/xlink" width="118" height="118" viewBox="0 0 118 118">
  <defs>
    <filter id="Rectangle_411831" x="0" y="0" width="118" height="118" filterUnits="userSpaceOnUse">
      <feOffset dy="3" input="SourceAlpha"/>
      <feGaussianBlur stdDeviation="3" result="blur"/>
      <feFlood flood-opacity="0.161"/>
      <feComposite operator="in" in2="blur"/>
      <feComposite in="SourceGraphic"/>
    </filter>
  </defs>
  <g id="Group_1205731" data-name="Group 1205731" transform="translate(-5958.282 4125)">
    <g id="Group_1205206" data-name="Group 1205206" transform="translate(5166.501 -6081)">
      <g id="Group_1203409" data-name="Group 1203409" transform="translate(465 -1896)">
        <g transform="matrix(1, 0, 0, 1, 326.78, 3852)" filter="url(#Rectangle_411831)">
          <g id="Rectangle_411831-2" data-name="Rectangle 411831" transform="translate(9 6)" fill="#fecb20" stroke="#fff" stroke-width="2">
            <path d="M5,0H68a32,32,0,0,1,32,32V95a5,5,0,0,1-5,5H32A32,32,0,0,1,0,68V5A5,5,0,0,1,5,0Z" stroke="none"/>
            <path d="M5,1H68A31,31,0,0,1,99,32V95a4,4,0,0,1-4,4H32A31,31,0,0,1,1,68V5A4,4,0,0,1,5,1Z" fill="none"/>
          </g>
        </g>
      </g>
    </g>
    <g id="evaluacion" transform="translate(5967.268 -4099.629)">
      <g id="Group_1205729" data-name="Group 1205729" transform="translate(22.849 0.903)">
        <path id="Path_1263269" data-name="Path 1263269" d="M53.564,10.649V26.8a3.148,3.148,0,0,1-3.148,3.149H32.627A3.148,3.148,0,0,1,29.478,26.8V10.649A3.148,3.148,0,0,1,32.627,7.5H50.416a3.147,3.147,0,0,1,3.148,3.149Z" transform="translate(-29.478 -7.5)" fill="#eaf6ff"/>
        <path id="Path_1263270" data-name="Path 1263270" d="M181.477,7.5h-3a3.148,3.148,0,0,1,3.147,3.149V26.8a3.148,3.148,0,0,1-3.147,3.149h3a3.148,3.148,0,0,0,3.147-3.149V10.649A3.148,3.148,0,0,0,181.477,7.5Z" transform="translate(-160.538 -7.5)" fill="#c8effe"/>
        <path id="Path_1263271" data-name="Path 1263271" d="M53.563,253.1V277.45a3.146,3.146,0,0,1-3.148,3.148H32.626a3.147,3.147,0,0,1-3.149-3.148V253.1a3.157,3.157,0,0,1,3.149-3.146H50.415A3.152,3.152,0,0,1,53.563,253.1Z" transform="translate(-29.476 -220.774)" fill="#eaf6ff"/>
        <path id="Path_1263272" data-name="Path 1263272" d="M181.474,249.96h-3a3.153,3.153,0,0,1,3.148,3.146v24.345a3.146,3.146,0,0,1-3.148,3.148h3a3.146,3.146,0,0,0,3.148-3.148V253.106A3.153,3.153,0,0,0,181.474,249.96Z" transform="translate(-160.536 -220.775)" fill="#c8effe"/>
        <path id="Path_1263273" data-name="Path 1263273" d="M53.563,10.649v3.727H29.477V10.649A3.148,3.148,0,0,1,32.626,7.5h17.79A3.148,3.148,0,0,1,53.563,10.649Z" transform="translate(-29.477 -7.5)" fill="#99e6fc"/>
        <path id="Path_1263274" data-name="Path 1263274" d="M117.117,253.106v4a11.229,11.229,0,0,1-15.389-7.143H113.97A3.152,3.152,0,0,1,117.117,253.106Z" transform="translate(-93.031 -220.775)" fill="#c8effe"/>
        <path id="Path_1263275" data-name="Path 1263275" d="M181.477,7.5h-3a3.148,3.148,0,0,1,3.147,3.149v3.727h3V10.649A3.148,3.148,0,0,0,181.477,7.5Z" transform="translate(-160.538 -7.5)" fill="#62dbfb"/>
        <path id="Path_1263276" data-name="Path 1263276" d="M53.563,253.1v3.76H29.477V253.1a3.157,3.157,0,0,1,3.149-3.146H50.415a3.152,3.152,0,0,1,3.148,3.146Z" transform="translate(-29.476 -220.774)" fill="#99e6fc"/>
        <path id="Path_1263277" data-name="Path 1263277" d="M118.358,131.962v3.453a3.147,3.147,0,0,1-3.148,3.149H103.138a11.23,11.23,0,0,1,15.22-6.6Z" transform="translate(-94.271 -116.116)" fill="#c8effe"/>
        <path id="Path_1263278" data-name="Path 1263278" d="M117.117,253.106v3.76h-9.692a11.245,11.245,0,0,1-5.7-6.907H113.97A3.152,3.152,0,0,1,117.117,253.106Z" transform="translate(-93.031 -220.775)" fill="#62dbfb"/>
        <g id="Group_1205726" data-name="Group 1205726" transform="translate(30.542 0.053)">
          <g id="Group_1205725" data-name="Group 1205725">
            <path id="Path_1263279" data-name="Path 1263279" d="M307.206,11.616V26.659a3.676,3.676,0,0,1-3.675,3.676h-7.812l-3.7,5.824a.981.981,0,0,1-1.808-.526v-5.3h-3.325a3.677,3.677,0,0,1-3.676-3.676V11.616a3.677,3.677,0,0,1,3.676-3.676h16.644a3.676,3.676,0,0,1,3.675,3.676Z" transform="translate(-283.211 -7.94)" fill="#99e6fc"/>
          </g>
        </g>
        <g id="Group_1205727" data-name="Group 1205727" transform="translate(37.543 0.053)">
          <path id="Path_1263280" data-name="Path 1263280" d="M341.376,197.939V199.3a.981.981,0,0,0,1.808.526l3.7-5.824H345.2a2.4,2.4,0,0,0-2.027,1.114Z" transform="translate(-341.376 -171.602)" fill="#62dbfb"/>
          <path id="Path_1263281" data-name="Path 1263281" d="M430.072,7.94h-3a3.676,3.676,0,0,1,3.675,3.676V26.659a3.676,3.676,0,0,1-3.675,3.676h3a3.676,3.676,0,0,0,3.675-3.676V11.616a3.676,3.676,0,0,0-3.675-3.676Z" transform="translate(-416.753 -7.94)" fill="#62dbfb"/>
        </g>
        <g id="Group_1205728" data-name="Group 1205728" transform="translate(10.665 14.863)">
          <circle id="Ellipse_13695" data-name="Ellipse 13695" cx="11.224" cy="11.224" r="11.224" fill="#0268b4"/>
          <path id="Path_1263282" data-name="Path 1263282" d="M210.481,134.281a11.2,11.2,0,0,0-9.138-3.221,11.222,11.222,0,0,1,0,22.315,11.222,11.222,0,0,0,9.138-19.094Z" transform="translate(-191.32 -130.994)" fill="#015a9a"/>
          <path id="Path_1263283" data-name="Path 1263283" d="M155.811,176.288a7.6,7.6,0,1,1,5.374-2.226A7.55,7.55,0,0,1,155.811,176.288Z" transform="translate(-144.587 -157.464)" fill="#c8effe"/>
          <path id="Path_1263284" data-name="Path 1263284" d="M205.719,163.315a7.55,7.55,0,0,0-5.374-2.226,7.682,7.682,0,0,0-1.5.148,7.6,7.6,0,0,1,0,14.9,7.673,7.673,0,0,0,1.5.148,7.6,7.6,0,0,0,5.374-12.973Z" transform="translate(-189.121 -157.464)" fill="#99e6fc"/>
          <path id="Path_1263285" data-name="Path 1263285" d="M294.924,309.148l1.322-1.322a2.472,2.472,0,0,1,3.5,0l4.069,4.069a2.472,2.472,0,0,1,0,3.5l-1.322,1.322a2.472,2.472,0,0,1-3.5,0l-4.069-4.069A2.472,2.472,0,0,1,294.924,309.148Z" transform="translate(-273 -285.902)" fill="#f07281"/>
          <path id="Path_1263286" data-name="Path 1263286" d="M316.527,311.9l-4.069-4.069a2.472,2.472,0,0,0-3.5,0l-.306.306a2.463,2.463,0,0,1,1.89.717l2.976,3.046a2.472,2.472,0,0,1,0,3.5l-.627.686a2.458,2.458,0,0,1-1.167.652,2.471,2.471,0,0,0,3.477-.017l1.322-1.322A2.472,2.472,0,0,0,316.527,311.9Z" transform="translate(-285.717 -285.903)" fill="#eb5569"/>
        </g>
      </g>
      <g id="Group_1205730" data-name="Group 1205730" transform="translate(21.942 0)">
        <path id="Path_1263287" data-name="Path 1263287" d="M149.215,153.589a8.5,8.5,0,1,0,4.546,15.69.9.9,0,1,0-.968-1.524,6.7,6.7,0,1,1,2.489-2.829.9.9,0,0,0,1.637.762,8.535,8.535,0,0,0-1.692-9.609,8.448,8.448,0,0,0-6.012-2.49Z" transform="translate(-126.419 -135.102)"/>
        <path id="Path_1263288" data-name="Path 1263288" d="M73.712.053H57.068a4.585,4.585,0,0,0-4.58,4.579v13.03a12.126,12.126,0,0,0-18.994,4.787H26A2.249,2.249,0,0,1,23.752,20.2V8.681H46.033v2.932a.9.9,0,0,0,1.806,0V4.052h0A4.055,4.055,0,0,0,43.788,0H26a4.056,4.056,0,0,0-4.051,4.051V20.2A4.056,4.056,0,0,0,26,24.254h6.929a12.129,12.129,0,0,0,3.235,11.31q.274.274.562.527H23.752V33.224A2.276,2.276,0,0,1,26,30.99h3.716a.9.9,0,1,0,0-1.806h-3.7a4.137,4.137,0,0,0-4.062,4.049V57.579A4.056,4.056,0,0,0,26,61.629H43.787a4.055,4.055,0,0,0,4.05-4.05V38.718a12.019,12.019,0,0,0,4.813-2.538l2.171,2.171-.023.023a3.379,3.379,0,0,0,0,4.773l4.068,4.068a3.375,3.375,0,0,0,4.773,0l1.322-1.322a3.375,3.375,0,0,0,0-4.773l-4.069-4.068a3.375,3.375,0,0,0-4.773,0l-.023.023L53.928,34.9a12.037,12.037,0,0,0,2.937-7.913,12.224,12.224,0,0,0-.316-2.767,4.582,4.582,0,0,0,.52.032H59.49v4.4a1.9,1.9,0,0,0,3.473,1.009l3.433-5.4h7.316a4.583,4.583,0,0,0,4.578-4.579V4.632A4.583,4.583,0,0,0,73.712.053ZM43.788,1.806a2.248,2.248,0,0,1,2.245,2.246V6.876H23.752V4.052A2.249,2.249,0,0,1,26,1.806Zm14.72,36.063a1.559,1.559,0,0,1,1.11.46L63.686,42.4a1.569,1.569,0,0,1,0,2.219l-1.322,1.322a1.569,1.569,0,0,1-2.219,0l-4.068-4.068a1.569,1.569,0,0,1,0-2.219L57.4,38.328a1.558,1.558,0,0,1,1.11-.46ZM46.033,57.579a2.247,2.247,0,0,1-2.245,2.245H26a2.248,2.248,0,0,1-2.246-2.245V37.9H39.426a12.294,12.294,0,0,0,6.607,1.151V57.579Zm6-23.291a10.316,10.316,0,1,1,0-14.6A10.333,10.333,0,0,1,52.036,34.288ZM76.484,19.676a2.776,2.776,0,0,1-2.772,2.773H65.9a.9.9,0,0,0-.762.419l-3.7,5.824a.075.075,0,0,1-.143-.041V19.742a.9.9,0,0,0-1.806,0v2.707H57.068a2.777,2.777,0,0,1-1.192-.27,12.036,12.036,0,0,0-1.582-2.658V4.632a2.777,2.777,0,0,1,2.775-2.773H73.712a2.776,2.776,0,0,1,2.772,2.773V19.676Z" transform="translate(-21.942 0)"/>
        <path id="Path_1263289" data-name="Path 1263289" d="M375.635,154.767a.919.919,0,1,0,.919.919A.919.919,0,0,0,375.635,154.767Z" transform="translate(-332.253 -136.138)"/>
        <path id="Path_1263290" data-name="Path 1263290" d="M347.625,26.8a4.761,4.761,0,0,0-4.863,4.764.9.9,0,1,0,1.806,0,3.017,3.017,0,0,1,.029-.414,2.959,2.959,0,1,1,2.931,3.373.9.9,0,0,0-.9.9v4.038a.9.9,0,1,0,1.806,0v-3.22a4.771,4.771,0,0,0,3.855-4.933A4.778,4.778,0,0,0,347.625,26.8Z" transform="translate(-304.145 -23.569)"/>
        <path id="Path_1263291" data-name="Path 1263291" d="M60.51,30.425a.919.919,0,1,0-.919-.919A.919.919,0,0,0,60.51,30.425Z" transform="translate(-55.059 -25.147)"/>
        <path id="Path_1263292" data-name="Path 1263292" d="M59.591,271.217a.919.919,0,1,0,.919-.919A.919.919,0,0,0,59.591,271.217Z" transform="translate(-55.059 -237.762)"/>
        <path id="Path_1263293" data-name="Path 1263293" d="M75.243,358.046H60.625a.9.9,0,0,0,0,1.806H75.243a.9.9,0,0,0,0-1.806Z" transform="translate(-55.174 -314.948)"/>
        <path id="Path_1263294" data-name="Path 1263294" d="M75.243,399.909H60.625a.9.9,0,1,0,0,1.806H75.243a.9.9,0,0,0,0-1.806Z" transform="translate(-55.174 -351.772)"/>
        <path id="Path_1263295" data-name="Path 1263295" d="M93.984,441.771H85.625a.9.9,0,1,0,0,1.806h8.359a.9.9,0,0,0,0-1.806Z" transform="translate(-77.165 -388.595)"/>
      </g>
    </g>
  </g>
</svg>
