<svg xmlns="http://www.w3.org/2000/svg" width="89.445" height="89.444" viewBox="0 0 89.445 89.444">
  <g id="Group_1205713" data-name="Group 1205713" transform="translate(-598.278 -5292)">
    <g id="Group_1205195" data-name="Group 1205195" transform="translate(-423.689 2199.345)">
      <g id="Group_1200255" data-name="Group 1200255" transform="translate(1021.967 3092.655)">
        <g id="Group_1187152" data-name="Group 1187152" transform="translate(0 0)">
          <g id="Group_1185946" data-name="Group 1185946">
            <g id="Group_1184280" data-name="Group 1184280">
              <g id="Group_1182168" data-name="Group 1182168">
                <g id="Group_1178877" data-name="Group 1178877">
                  <g id="Group_1111311" data-name="Group 1111311">
                    <g id="Group_1098742" data-name="Group 1098742" transform="translate(0 0)">
                      <g id="Rectangle_400898" data-name="Rectangle 400898" transform="translate(0.001 0)" fill="#f4f3ed" stroke="#7f75a8" stroke-width="1" opacity="0.859">
                        <rect width="89.444" height="89.444" rx="44.722" stroke="none"/>
                        <rect x="0.5" y="0.5" width="88.444" height="88.444" rx="44.222" fill="none"/>
                      </g>
                      <g id="Rectangle_400907" data-name="Rectangle 400907" transform="translate(0 0)" fill="none" stroke="#7f75a8" stroke-width="1">
                        <rect width="89.444" height="89.444" rx="44.722" stroke="none"/>
                        <rect x="0.5" y="0.5" width="88.444" height="88.444" rx="44.222" fill="none"/>
                      </g>
                    </g>
                  </g>
                </g>
              </g>
            </g>
          </g>
        </g>
      </g>
    </g>
    <g id="hoja-de-calculo" transform="translate(570.78 5308.624)">
      <g id="Group_1205700" data-name="Group 1205700" transform="translate(54.911 1.105)">
        <path id="Path_1263233" data-name="Path 1263233" d="M102.854,15.346V56.8a1.983,1.983,0,0,0,1.978,1.978H139.3a1.986,1.986,0,0,0,1.981-1.978V16.771h-4.722a1.984,1.984,0,0,1-1.978-1.981V10.071H104.833a1.983,1.983,0,0,0-1.978,1.978v3.3Z" transform="translate(-102.854 -10.071)" fill="#f9f9f9" fill-rule="evenodd"/>
      </g>
      <g id="Group_1205701" data-name="Group 1205701" transform="translate(61.58 23.363)">
        <rect id="Rectangle_426012" data-name="Rectangle 426012" width="12.578" height="5.06" fill="#b0e7f8"/>
      </g>
      <g id="Group_1205702" data-name="Group 1205702" transform="translate(74.158 23.363)">
        <rect id="Rectangle_426013" data-name="Rectangle 426013" width="12.579" height="5.06" fill="#b0e7f8"/>
      </g>
      <g id="Group_1205703" data-name="Group 1205703" transform="translate(74.158 28.423)">
        <rect id="Rectangle_426014" data-name="Rectangle 426014" width="12.579" height="5.064" fill="#b0e7f8"/>
      </g>
      <g id="Group_1205704" data-name="Group 1205704" transform="translate(74.158 33.487)">
        <rect id="Rectangle_426015" data-name="Rectangle 426015" width="12.579" height="5.063" fill="#b0e7f8"/>
      </g>
      <g id="Group_1205705" data-name="Group 1205705" transform="translate(61.58 28.423)">
        <rect id="Rectangle_426016" data-name="Rectangle 426016" width="12.578" height="5.064" fill="#b0e7f8"/>
      </g>
      <g id="Group_1205706" data-name="Group 1205706" transform="translate(61.58 33.487)">
        <rect id="Rectangle_426017" data-name="Rectangle 426017" width="12.578" height="5.063" fill="#b0e7f8"/>
      </g>
      <g id="Group_1205707" data-name="Group 1205707" transform="translate(74.158 38.55)">
        <rect id="Rectangle_426018" data-name="Rectangle 426018" width="12.579" height="5.064" fill="#b0e7f8"/>
      </g>
      <g id="Group_1205708" data-name="Group 1205708" transform="translate(61.58 38.55)">
        <rect id="Rectangle_426019" data-name="Rectangle 426019" width="12.578" height="5.064" fill="#b0e7f8"/>
      </g>
      <g id="Group_1205709" data-name="Group 1205709" transform="translate(72.93 12.613)">
        <rect id="Rectangle_426020" data-name="Rectangle 426020" width="13.807" height="4.473" transform="translate(0)" fill="#78d0a9"/>
      </g>
      <g id="Group_1205710" data-name="Group 1205710" transform="translate(86.635 1.105)">
        <path id="Path_1263234" data-name="Path 1263234" d="M391.886,10.071v4.718a1.984,1.984,0,0,0,1.978,1.981h4.722Z" transform="translate(-391.886 -10.071)" fill="#c6c4c8" fill-rule="evenodd"/>
      </g>
      <g id="Group_1205711" data-name="Group 1205711" transform="translate(50.105 6.38)">
        <path id="Path_1263235" data-name="Path 1263235" d="M59.07,60.113v44.748a1.986,1.986,0,0,0,1.978,1.981H95.512a1.987,1.987,0,0,0,1.981-1.981v-3.3H65.854a1.983,1.983,0,0,1-1.978-1.978V58.132H61.049a1.986,1.986,0,0,0-1.979,1.981Z" transform="translate(-59.07 -58.132)" fill="#c6c4c8" fill-rule="evenodd"/>
      </g>
      <g id="Group_1205712" data-name="Group 1205712" transform="translate(49)">
        <path id="Path_1263236" data-name="Path 1263236" d="M443.965,228.8a1.105,1.105,0,0,0-1.105,1.105v.022a1.105,1.105,0,1,0,2.211,0V229.9A1.105,1.105,0,0,0,443.965,228.8Z" transform="translate(-399.631 -203.686)"/>
        <path id="Path_1263237" data-name="Path 1263237" d="M94.434,7.695a1.114,1.114,0,0,0-.318-.671l-6.7-6.7A1.078,1.078,0,0,0,86.635,0H56.889a3.087,3.087,0,0,0-3.084,3.083V5.275H52.084A3.089,3.089,0,0,0,49,8.362V53.11A3.089,3.089,0,0,0,52.084,56.2H86.548a3.09,3.09,0,0,0,3.087-3.087V50.918h1.719a3.089,3.089,0,0,0,3.087-3.083V30.622a1.105,1.105,0,1,0-2.211,0V47.835a.875.875,0,0,1-.876.873H56.889a.874.874,0,0,1-.873-.873V3.083a.874.874,0,0,1,.873-.873h28.64V5.824A3.089,3.089,0,0,0,88.613,8.91h3.617V21.857a1.105,1.105,0,1,0,2.211,0V7.805a1.082,1.082,0,0,0-.005-.11ZM56.889,50.918H87.424V53.11a.877.877,0,0,1-.876.876H52.084a.875.875,0,0,1-.873-.876V8.362a.875.875,0,0,1,.873-.876h1.722V47.835A3.087,3.087,0,0,0,56.889,50.918ZM88.613,6.7a.875.875,0,0,1-.873-.876V3.774L90.666,6.7Z" transform="translate(-49)"/>
        <path id="Path_1263238" data-name="Path 1263238" d="M153.545,203.889v20.251a1.105,1.105,0,0,0,1.105,1.105h25.157a1.105,1.105,0,0,0,1.105-1.105V203.889a1.105,1.105,0,0,0-1.105-1.105H154.65A1.105,1.105,0,0,0,153.545,203.889ZM178.7,223.035H168.334v-2.853H178.7Zm0-5.064H168.334v-2.853H178.7Zm0-5.063H168.334v-2.853H178.7Zm0-5.064H168.334v-2.85H178.7Zm-22.947-2.85h10.368v2.85H155.756Zm0,5.06h10.368v2.853H155.756Zm0,5.064h10.368v2.853H155.756Zm0,5.063h10.368v2.853H155.756Z" transform="translate(-142.07 -180.527)"/>
        <path id="Path_1263239" data-name="Path 1263239" d="M272.972,105.954a1.105,1.105,0,0,0-1.105-1.105H258.059a1.105,1.105,0,0,0-1.105,1.105v4.473a1.105,1.105,0,0,0,1.105,1.105h13.807a1.105,1.105,0,0,0,1.105-1.105v-4.473Zm-2.211,3.367h-11.6V107.06h11.6Z" transform="translate(-234.129 -93.341)"/>
        <path id="Path_1263240" data-name="Path 1263240" d="M167.228,56.337a1.815,1.815,0,0,1-1.409-.5c-.137-.149-.252-.292-.364-.41-.924-.967-2.507.376-1.546,1.633l.227.3a3.494,3.494,0,0,0,.815.653,3.948,3.948,0,0,0,1.272.522v1.235a1.042,1.042,0,1,0,2.081-.093,3.747,3.747,0,0,0,.022-.445v-.706a3.829,3.829,0,0,0,1.925-1.095,3.511,3.511,0,0,0,.433-3.773,2.056,2.056,0,0,0-.893-.874,8.213,8.213,0,0,0-1.167-.432,8.707,8.707,0,0,0-1.166-.264,2.218,2.218,0,0,1-.893-.317.731.731,0,0,1-.361-.628c0-1.235,1.814-1.085,2.613-.414,1.182.992,2.5-.824,1.132-1.848l-.158-.143a3.64,3.64,0,0,0-.566-.317,3.868,3.868,0,0,0-.9-.3V46.916a1.042,1.042,0,0,0-2.084,0v1.191a3.049,3.049,0,0,0-2.51,3,2.926,2.926,0,0,0,.494,1.748,2.7,2.7,0,0,0,1.2.97,9.938,9.938,0,0,0,1.416.451,7.662,7.662,0,0,1,1.2.38c.33.143.495.342.495.6Q168.538,56.335,167.228,56.337Z" transform="translate(-151.031 -40.853)"/>
      </g>
    </g>
  </g>
</svg>
