<svg xmlns="http://www.w3.org/2000/svg" width="190" height="134" viewBox="0 0 190 134">
  <g id="Group_1205763" data-name="Group 1205763" transform="translate(-1230.051 -1555)">
    <rect id="Rectangle_425144" data-name="Rectangle 425144" width="190" height="134" transform="translate(1230.051 1555)" fill="#7f75a8"/>
    <g id="Group_1204606" data-name="Group 1204606" transform="translate(253.084 -1522.655)">
      <g id="Group_1200255" data-name="Group 1200255" transform="translate(1021.967 3092.655)">
        <g id="Group_1187152" data-name="Group 1187152">
          <g id="Group_1185946" data-name="Group 1185946">
            <g id="Group_1184280" data-name="Group 1184280">
              <g id="Group_1182168" data-name="Group 1182168">
                <g id="Group_1178877" data-name="Group 1178877">
                  <g id="Group_1111311" data-name="Group 1111311">
                    <g id="Group_1098742" data-name="Group 1098742" transform="translate(0 0)">
                      <g id="Rectangle_400898" data-name="Rectangle 400898" transform="translate(0.001 0)" fill="#b8a9f1" stroke="#7f75a8" stroke-width="1" opacity="0.859">
                        <rect width="99.729" height="99.729" rx="49.865" stroke="none"/>
                        <rect x="0.5" y="0.5" width="98.729" height="98.729" rx="49.365" fill="none"/>
                      </g>
                      <g id="Rectangle_400907" data-name="Rectangle 400907" transform="translate(0 0)" fill="none" stroke="#7f75a8" stroke-width="1">
                        <rect width="99.729" height="99.729" rx="49.865" stroke="none"/>
                        <rect x="0.5" y="0.5" width="98.729" height="98.729" rx="49.365" fill="none"/>
                      </g>
                    </g>
                  </g>
                </g>
              </g>
            </g>
          </g>
        </g>
      </g>
      <g id="Setting-Computer-Gear-Configuration-Tutorial" transform="translate(1044.411 3108.943)">
        <path id="Path_1260842" data-name="Path 1260842" d="M59.247,9.238V33.862H10V9.238A2.245,2.245,0,0,1,12.238,7h44.77A2.245,2.245,0,0,1,59.247,9.238Z" transform="translate(-6.642 -1.404)" fill="#5aaae7"/>
        <path id="Path_1260843" data-name="Path 1260843" d="M60.485,57v3.358a1.119,1.119,0,0,1-1.119,1.119H10.119A1.119,1.119,0,0,1,9,60.358V57Z" transform="translate(-6.762 4.559)" fill="#acabb1"/>
        <path id="Path_1260844" data-name="Path 1260844" d="M60.485,57.715H9L15.715,51H53.77Z" transform="translate(-6.762 3.843)" fill="#c6c5ca"/>
        <path id="Path_1260845" data-name="Path 1260845" d="M59.247,31v4.477a2.245,2.245,0,0,1-2.238,2.238H12.238A2.245,2.245,0,0,1,10,35.477V31Z" transform="translate(-6.642 1.458)" fill="#c6c5ca"/>
        <path id="Path_1260846" data-name="Path 1260846" d="M44.385,43v4.477H22V43H44.385Z" transform="translate(-5.211 2.889)" fill="#acabb1"/>
        <path id="Path_1260847" data-name="Path 1260847" d="M27,37H38.192v6.715H27Z" transform="translate(-4.615 2.174)" fill="#c6c5ca"/>
        <path id="Path_1260848" data-name="Path 1260848" d="M27,37H38.192v2.238H27Z" transform="translate(-4.615 2.174)" fill="#acabb1"/>
        <path id="Path_1260849" data-name="Path 1260849" d="M43.975,19.312a9.273,9.273,0,0,1-.951,2.306L45.6,24.192,42.43,27.359l-2.574-2.574a9.273,9.273,0,0,1-2.306.951v3.649H33.073V25.736a9.273,9.273,0,0,1-2.306-.951l-2.574,2.574-3.167-3.167L27.6,21.617a9.273,9.273,0,0,1-.951-2.306H23V14.835h3.649a9.273,9.273,0,0,1,.951-2.306L25.026,9.955,27.981,7h.425l2.238,2.238H31a9,9,0,0,1,2.071-.828V7H37.55V8.41a9,9,0,0,1,2.071.828h.358L42.217,7h.425L45.6,9.955l-2.574,2.574a9.273,9.273,0,0,1,.951,2.306h3.649v4.477Z" transform="translate(-5.092 -1.404)" fill="#3d9ae2"/>
        <path id="Path_1260850" data-name="Path 1260850" d="M41.975,17.55a9.273,9.273,0,0,1-.951,2.306L43.6,22.43,40.43,25.6l-2.574-2.574a9.273,9.273,0,0,1-2.306.951v3.649H31.073V23.975a9.273,9.273,0,0,1-2.306-.951L26.193,25.6,23.026,22.43,25.6,19.856a9.273,9.273,0,0,1-.951-2.306H21V13.073h3.649a9.273,9.273,0,0,1,.951-2.306L23.026,8.193l3.167-3.167,2.451,2.451H29a9,9,0,0,1,2.071-.828V3H35.55V6.649a9,9,0,0,1,2.071.828h.358L40.43,5.026,43.6,8.193l-2.574,2.574a9.273,9.273,0,0,1,.951,2.306h3.649V17.55Z" transform="translate(-5.331 -1.881)" fill="#ff9811"/>
        <ellipse id="Ellipse_12843" data-name="Ellipse 12843" cx="4.731" cy="4.258" rx="4.731" ry="4.258" transform="translate(23.164 8.977)" fill="#ffd422"/>
        <path id="Path_1260851" data-name="Path 1260851" d="M20,17.669a1.119,1.119,0,0,0,1.119,1.119h2.823a10.522,10.522,0,0,0,.405.978l-2,2a1.119,1.119,0,0,0,0,1.583l3.166,3.166a1.119,1.119,0,0,0,1.583,0l2-2a10.054,10.054,0,0,0,.978.405v2.822a1.119,1.119,0,0,0,1.119,1.119h4.477a1.119,1.119,0,0,0,1.119-1.119V24.92a9.808,9.808,0,0,0,.977-.405l2,2a1.119,1.119,0,0,0,1.583,0l3.166-3.166a1.119,1.119,0,0,0,0-1.583l-2-2a10.348,10.348,0,0,0,.405-.978h2.823a1.119,1.119,0,0,0,1.119-1.119V13.192a1.119,1.119,0,0,0-1.119-1.119H42.92a10.2,10.2,0,0,0-.406-.977l2-2a1.119,1.119,0,0,0,0-1.583L41.345,4.35a1.119,1.119,0,0,0-1.583,0l-2,2a10.392,10.392,0,0,0-.978-.405V3.119A1.119,1.119,0,0,0,35.669,2H31.192a1.119,1.119,0,0,0-1.119,1.119V5.943a10.212,10.212,0,0,0-.978.4l-2-2a1.119,1.119,0,0,0-1.583,0L22.35,7.517a1.119,1.119,0,0,0,0,1.583l2,2a10.371,10.371,0,0,0-.405.977H21.119A1.119,1.119,0,0,0,20,13.192Zm2.238-3.358H24.77a1.119,1.119,0,0,0,1.083-.839,7.835,7.835,0,0,1,.834-2.015,1.119,1.119,0,0,0-.172-1.361L24.724,8.306l1.583-1.583L28.1,8.514a1.119,1.119,0,0,0,1.361.172,7.835,7.835,0,0,1,2.015-.834,1.119,1.119,0,0,0,.838-1.082V4.238H34.55V6.77a1.119,1.119,0,0,0,.839,1.083,7.815,7.815,0,0,1,2.015.834,1.119,1.119,0,0,0,1.361-.172l1.791-1.791,1.583,1.583L40.348,10.1a1.119,1.119,0,0,0-.173,1.361,7.835,7.835,0,0,1,.836,2.015,1.119,1.119,0,0,0,1.082.839h2.531v2.238H42.092a1.119,1.119,0,0,0-1.082.839,7.846,7.846,0,0,1-.836,2.015,1.119,1.119,0,0,0,.173,1.361l1.791,1.791L40.555,24.14l-1.791-1.791a1.119,1.119,0,0,0-1.361-.172,7.793,7.793,0,0,1-2.015.834,1.119,1.119,0,0,0-.841,1.083v2.529H32.312V24.092a1.119,1.119,0,0,0-.839-1.083,7.784,7.784,0,0,1-2.015-.834,1.119,1.119,0,0,0-1.361.172l-1.791,1.791-1.583-1.583,1.791-1.791a1.119,1.119,0,0,0,.172-1.361,7.808,7.808,0,0,1-.834-2.015,1.119,1.119,0,0,0-1.083-.839H22.238Z" transform="translate(-5.45 -2)"/>
        <path id="Path_1260852" data-name="Path 1260852" d="M32.6,20.192A5.6,5.6,0,1,0,27,14.6a5.6,5.6,0,0,0,5.6,5.6Zm0-8.954A3.358,3.358,0,1,1,29.238,14.6,3.358,3.358,0,0,1,32.6,11.238Z" transform="translate(-4.615 -1.165)"/>
        <path id="Path_1260853" data-name="Path 1260853" d="M61.515,62.29,54.8,55.575a1.119,1.119,0,0,0-.791-.328H20.431V53.008a3.358,3.358,0,0,0-3.358-3.358H10.358a1.119,1.119,0,0,1,0-2.238h6.715a3.358,3.358,0,0,0,3.358-3.358V41.816h7.835v4.477H23.789a1.119,1.119,0,0,0-1.119,1.119v4.477a1.119,1.119,0,0,0,1.119,1.119H46.174a1.119,1.119,0,0,0,1.119-1.119V47.412a1.119,1.119,0,0,0-1.119-1.119H41.7V41.816H57.366a3.358,3.358,0,0,0,3.358-3.358V9.358A3.358,3.358,0,0,0,57.366,6H48.412V8.238h8.954a1.119,1.119,0,0,1,1.119,1.119v23.5H11.477V9.358A1.119,1.119,0,0,1,12.6,8.238H21.55V6H12.6A3.358,3.358,0,0,0,9.238,9.358v29.1A3.358,3.358,0,0,0,12.6,41.816h5.6v2.238a1.119,1.119,0,0,1-1.119,1.119H10.358a3.358,3.358,0,0,0,0,6.715h6.715a1.119,1.119,0,0,1,1.119,1.119v2.238H15.954a1.119,1.119,0,0,0-.791.328L8.447,62.29a1.119,1.119,0,0,0-.328.791v3.358a2.238,2.238,0,0,0,2.238,2.238H59.6a2.239,2.239,0,0,0,2.238-2.238V63.082a1.119,1.119,0,0,0-.328-.791ZM45.054,50.77H24.908V48.531H45.054Zm-5.6-4.477H30.5V41.816h8.954ZM11.477,38.458V35.1H58.485v3.358a1.119,1.119,0,0,1-1.119,1.119H12.6A1.119,1.119,0,0,1,11.477,38.458Zm4.94,19.027H53.545l4.477,4.477H11.94Zm-6.06,8.954V64.2H59.6v2.238Z" transform="translate(-7 -1.523)"/>
        <path id="Path_1260854" data-name="Path 1260854" d="M16,53h2.238v2.238H16Z" transform="translate(-5.927 4.082)"/>
        <path id="Path_1260855" data-name="Path 1260855" d="M20,53h2.238v2.238H20Z" transform="translate(-5.45 4.082)"/>
        <path id="Path_1260856" data-name="Path 1260856" d="M42,53h2.238v2.238H42Z" transform="translate(-2.826 4.082)"/>
        <path id="Path_1260857" data-name="Path 1260857" d="M24,53H41.908v2.238H24Z" transform="translate(-4.973 4.082)"/>
        <path id="Path_1260858" data-name="Path 1260858" d="M46,53h2.238v2.238H46Z" transform="translate(-2.349 4.082)"/>
        <path id="Path_1260859" data-name="Path 1260859" d="M47,33h2.238v2.238H47Z" transform="translate(-2.23 1.697)"/>
      </g>
    </g>
  </g>
</svg>
