<svg xmlns="http://www.w3.org/2000/svg" xmlns:xlink="http://www.w3.org/1999/xlink" width="118" height="118" viewBox="0 0 118 118">
  <defs>
    <filter id="Rectangle_411831" x="0" y="0" width="118" height="118" filterUnits="userSpaceOnUse">
      <feOffset dy="3" input="SourceAlpha"/>
      <feGaussianBlur stdDeviation="3" result="blur"/>
      <feFlood flood-opacity="0.161"/>
      <feComposite operator="in" in2="blur"/>
      <feComposite in="SourceGraphic"/>
    </filter>
  </defs>
  <g id="Group_1205574" data-name="Group 1205574" transform="translate(-1109.051 -9893)">
    <g id="Group_1204467" data-name="Group 1204467" transform="translate(317.27 7937)">
      <g id="Group_1203409" data-name="Group 1203409" transform="translate(465 -1896)">
        <g transform="matrix(1, 0, 0, 1, 326.78, 3852)" filter="url(#Rectangle_411831)">
          <g id="Rectangle_411831-2" data-name="Rectangle 411831" transform="translate(9 6)" fill="#fecb20" stroke="#fff" stroke-width="2">
            <path d="M5,0H68a32,32,0,0,1,32,32V95a5,5,0,0,1-5,5H32A32,32,0,0,1,0,68V5A5,5,0,0,1,5,0Z" stroke="none"/>
            <path d="M5,1H68A31,31,0,0,1,99,32V95a4,4,0,0,1-4,4H32A31,31,0,0,1,1,68V5A4,4,0,0,1,5,1Z" fill="none"/>
          </g>
        </g>
      </g>
    </g>
    <g id="alineacion-central" transform="translate(1132.051 9931)">
      <path id="Path_1261753" data-name="Path 1261753" d="M8.832,181.328a1.3,1.3,0,0,0-1.3,1.3v1.636a1.3,1.3,0,0,0,1.3,1.3h66.34a1.3,1.3,0,0,0,1.3-1.3v-1.636a1.3,1.3,0,0,0-1.3-1.3H8.832Zm0,0" transform="translate(-6.483 -156.172)" fill="#6c7fd9"/>
      <path id="Path_1261754" data-name="Path 1261754" d="M75.169,187.4H8.829a1.3,1.3,0,0,1-1.175-.74,1.3,1.3,0,0,0-.13.565v1.636a1.3,1.3,0,0,0,1.3,1.3h66.34a1.3,1.3,0,0,0,1.3-1.3v-1.636a1.3,1.3,0,0,0-.13-.565A1.3,1.3,0,0,1,75.169,187.4Zm0,0" transform="translate(-6.48 -160.768)" fill="#4f66d1"/>
      <path id="Path_1261755" data-name="Path 1261755" d="M8.832,40.6a1.3,1.3,0,0,0-1.3,1.3v1.636a1.3,1.3,0,0,0,1.3,1.3h66.34a1.3,1.3,0,0,0,1.3-1.3V41.9a1.3,1.3,0,0,0-1.3-1.3H8.832Zm0,0" transform="translate(-6.483 -34.965)" fill="#6c7fd9"/>
      <path id="Path_1261756" data-name="Path 1261756" d="M75.169,46.67H8.829a1.3,1.3,0,0,1-1.175-.74,1.3,1.3,0,0,0-.13.565v1.636a1.3,1.3,0,0,0,1.3,1.3h66.34a1.3,1.3,0,0,0,1.3-1.3V46.495a1.3,1.3,0,0,0-.13-.565A1.3,1.3,0,0,1,75.169,46.67Zm0,0" transform="translate(-6.48 -39.558)" fill="#4f66d1"/>
      <path id="Path_1261757" data-name="Path 1261757" d="M173.01,7.469H194a1.186,1.186,0,0,1,1.186,1.186V19.72A1.186,1.186,0,0,1,194,20.906H173.01a1.186,1.186,0,0,1-1.186-1.186V8.655A1.186,1.186,0,0,1,173.01,7.469Zm0,0" transform="translate(-147.987 -6.433)" fill="#ffe55a"/>
      <path id="Path_1261758" data-name="Path 1261758" d="M115.183,148.2h37.035a1.186,1.186,0,0,1,1.187,1.187v11.064a1.186,1.186,0,0,1-1.187,1.186H115.183A1.187,1.187,0,0,1,114,160.451V149.386A1.187,1.187,0,0,1,115.183,148.2Zm0,0" transform="translate(-98.181 -127.639)" fill="#ffe55a"/>
      <path id="Path_1261759" data-name="Path 1261759" d="M194,67.714H173.01a1.186,1.186,0,0,1-1.186-1.186v4.058a1.186,1.186,0,0,0,1.186,1.186H194a1.186,1.186,0,0,0,1.186-1.186V66.527A1.186,1.186,0,0,1,194,67.714Zm0,0" transform="translate(-147.987 -57.298)" fill="#ffd500"/>
      <path id="Path_1261760" data-name="Path 1261760" d="M152.218,164.943H115.183A1.186,1.186,0,0,1,114,163.757V156.75h0v11.064A1.186,1.186,0,0,0,115.183,169h37.035a1.186,1.186,0,0,0,1.187-1.186v-4.057A1.186,1.186,0,0,1,152.218,164.943Zm0,0" transform="translate(-98.181 -135.004)" fill="#ffd500"/>
      <g id="Group_1205573" data-name="Group 1205573">
        <path id="Path_1261761" data-name="Path 1261761" d="M68.686,145.327H56.261v-2.369a2.23,2.23,0,0,0-2.227-2.227H37.943a1.041,1.041,0,0,0,0,2.081h16.09a.146.146,0,0,1,.146.146v11.064a.146.146,0,0,1-.146.146H17a.146.146,0,0,1-.146-.146V142.958a.146.146,0,0,1,.146-.146h16.09a1.041,1.041,0,0,0,0-2.081H17a2.23,2.23,0,0,0-2.227,2.227v2.369H2.345A2.348,2.348,0,0,0,0,147.672v1.636a2.348,2.348,0,0,0,2.345,2.345H14.771v2.369A2.23,2.23,0,0,0,17,156.25H54.033a2.23,2.23,0,0,0,2.227-2.227v-2.369H68.686a2.348,2.348,0,0,0,2.345-2.345v-1.636A2.348,2.348,0,0,0,68.686,145.327Zm-66.34,4.246a.265.265,0,0,1-.264-.264v-1.636a.265.265,0,0,1,.264-.264H14.771v2.165Zm66.6-.264a.265.265,0,0,1-.264.264H56.261v-2.165H68.686a.265.265,0,0,1,.264.264Zm0,0" transform="translate(0 -121.207)" fill="#231f20"/>
        <path id="Path_1261762" data-name="Path 1261762" d="M68.686,4.6H48.238V2.227A2.23,2.23,0,0,0,46.011,0H37.943a1.04,1.04,0,1,0,0,2.081h8.067a.146.146,0,0,1,.146.146V13.292a.146.146,0,0,1-.146.146H25.021a.146.146,0,0,1-.146-.146V2.227a.146.146,0,0,1,.146-.146h8.067a1.04,1.04,0,1,0,0-2.081H25.021a2.23,2.23,0,0,0-2.227,2.227V4.6H2.345A2.348,2.348,0,0,0,0,6.942V8.578a2.348,2.348,0,0,0,2.345,2.345H22.793v2.369a2.23,2.23,0,0,0,2.227,2.227h20.99a2.229,2.229,0,0,0,2.227-2.227V10.923H68.686a2.348,2.348,0,0,0,2.345-2.345V6.942A2.348,2.348,0,0,0,68.686,4.6ZM2.345,8.842a.265.265,0,0,1-.264-.264V6.942a.265.265,0,0,1,.264-.264H22.793V8.842H2.345Zm66.6-.265a.264.264,0,0,1-.264.264H48.238V6.677H68.686a.265.265,0,0,1,.264.264Zm0,0" fill="#231f20"/>
      </g>
    </g>
  </g>
</svg>
