<svg xmlns="http://www.w3.org/2000/svg" xmlns:xlink="http://www.w3.org/1999/xlink" width="118" height="118" viewBox="0 0 118 118">
  <defs>
    <filter id="Rectangle_411831" x="0" y="0" width="118" height="118" filterUnits="userSpaceOnUse">
      <feOffset dy="3" input="SourceAlpha"/>
      <feGaussianBlur stdDeviation="3" result="blur"/>
      <feFlood flood-opacity="0.161"/>
      <feComposite operator="in" in2="blur"/>
      <feComposite in="SourceGraphic"/>
    </filter>
  </defs>
  <g id="Group_1205575" data-name="Group 1205575" transform="translate(6793.153 1709)">
    <g id="Group_1204662" data-name="Group 1204662" transform="translate(-7584.935 -3665)">
      <g id="Group_1203409" data-name="Group 1203409" transform="translate(465 -1896)">
        <g transform="matrix(1, 0, 0, 1, 326.78, 3852)" filter="url(#Rectangle_411831)">
          <g id="Rectangle_411831-2" data-name="Rectangle 411831" transform="translate(9 6)" fill="#fecb20" stroke="#fff" stroke-width="2">
            <path d="M5,0H68a32,32,0,0,1,32,32V95a5,5,0,0,1-5,5H32A32,32,0,0,1,0,68V5A5,5,0,0,1,5,0Z" stroke="none"/>
            <path d="M5,1H68A31,31,0,0,1,99,32V95a4,4,0,0,1-4,4H32A31,31,0,0,1,1,68V5A4,4,0,0,1,5,1Z" fill="none"/>
          </g>
        </g>
      </g>
    </g>
    <g id="dinero" transform="translate(-6763.379 -1682.078)">
      <path id="Path_1261763" data-name="Path 1261763" d="M63.952,35.726A28.226,28.226,0,1,1,35.726,7.5,28.226,28.226,0,0,1,63.952,35.726Zm0,0" transform="translate(-6.648 -6.648)" fill="#eeba63"/>
      <path id="Path_1261764" data-name="Path 1261764" d="M71.183,94.866A23.683,23.683,0,1,1,94.866,71.183,23.71,23.71,0,0,1,71.183,94.866Zm0,0" transform="translate(-42.105 -42.105)" fill="#f3e077"/>
      <path id="Path_1261765" data-name="Path 1261765" d="M52.043,71.183A23.715,23.715,0,0,1,73.454,47.61c-.748-.071-1.505-.11-2.272-.11a23.683,23.683,0,0,0,0,47.366c.766,0,1.524-.038,2.272-.11A23.715,23.715,0,0,1,52.043,71.183Zm0,0" transform="translate(-42.105 -42.105)" fill="#f5c956"/>
      <path id="Path_1261766" data-name="Path 1261766" d="M167.488,126.574c-5.465-.182-9.929-3.006-9.929-5.921,0-1.549,1.367-3.826,3.1-3.826,1.913,0,3.462,2.687,6.832,3.279v-7.379c-4.19-1.594-9.11-3.553-9.11-9.382,0-5.784,4.282-8.563,9.11-9.246V92.824c0-.638.729-1.23,1.731-1.23.865,0,1.73.592,1.73,1.23v1.139c2.824.091,8.153.82,8.153,3.963,0,1.229-.82,3.735-2.824,3.735-1.5,0-2.368-1.458-5.329-1.685v6.65c4.145,1.549,8.973,3.689,8.973,9.838,0,5.648-3.644,9.064-8.973,9.929v1.32c0,.638-.865,1.23-1.73,1.23-1,0-1.731-.592-1.731-1.23Zm.456-21.043v-5.42c-2.05.41-2.915,1.458-2.915,2.551C165.028,103.983,166.212,104.8,167.943,105.531Zm2.55,8.426v6.1c1.549-.364,2.778-1.229,2.778-2.869C173.272,115.688,172.134,114.732,170.494,113.957Zm0,0" transform="translate(-139.662 -81.19)" fill="#eeba63"/>
      <path id="Path_1261767" data-name="Path 1261767" d="M220.439,165.355v-5.42a.86.86,0,0,0-1.019-.835c-2.254.451-3.6,1.716-3.6,3.386,0,1.957,1.836,2.981,3.436,3.655A.863.863,0,0,0,220.439,165.355Zm-1.7-1.362c-1.043-.609-1.211-1.1-1.211-1.507,0-.587.43-1.078,1.211-1.411Zm0,0" transform="translate(-191.306 -141.013)"/>
      <path id="Path_1261768" data-name="Path 1261768" d="M162.57,123.149c1.221,0,2.582-.855,2.582-2.081v-.613c5.635-1.177,8.973-5.109,8.973-10.637a9.117,9.117,0,0,0-3.226-7.288,19.044,19.044,0,0,0-5.747-3.139V94.3a7.969,7.969,0,0,1,2.258.86,4.656,4.656,0,0,0,2.22.7c2.6,0,3.676-2.987,3.676-4.587,0-1.223-.623-2.9-3.59-3.93a18.189,18.189,0,0,0-4.563-.843v-.328c0-1.227-1.361-2.081-2.582-2.081a2.347,2.347,0,0,0-2.583,2.081v.552a12.428,12.428,0,0,0-6.082,2.8,9.21,9.21,0,0,0-3.027,7.17c0,6.217,5.1,8.432,9.109,9.969v5.693a11.066,11.066,0,0,1-2.836-1.614,5.612,5.612,0,0,0-3.144-1.419,3.644,3.644,0,0,0-2.885,1.681,5.331,5.331,0,0,0-1.064,3c0,1.711,1.212,3.429,3.325,4.713a15.2,15.2,0,0,0,6.6,2.012v.334A2.347,2.347,0,0,0,162.57,123.149Zm-10.808-9.141c0-1.244,1.131-2.974,2.245-2.974a4.523,4.523,0,0,1,2.153,1.1,10.757,10.757,0,0,0,4.532,2.166.859.859,0,0,0,1-.839v-7.379a.851.851,0,0,0-.549-.8,21.862,21.862,0,0,1-5.894-2.969,6.742,6.742,0,0,1-2.667-5.617c0-6.514,5.858-8.046,8.377-8.4a.851.851,0,0,0,.733-.843V86.18c.009-.088.3-.378.879-.378a1.106,1.106,0,0,1,.879.4v1.118a.852.852,0,0,0,.824.851,18.057,18.057,0,0,1,4.883.79c1.623.565,2.445,1.346,2.445,2.321a4.2,4.2,0,0,1-.544,1.9,1.669,1.669,0,0,1-1.428.984,3.269,3.269,0,0,1-1.435-.512,9.18,9.18,0,0,0-3.828-1.17.859.859,0,0,0-.917.85v6.65a.851.851,0,0,0,.554.8,18.912,18.912,0,0,1,5.78,3.039,7.5,7.5,0,0,1,2.638,6c0,4.924-3.01,8.236-8.257,9.088a.852.852,0,0,0-.715.841v1.3a1.107,1.107,0,0,1-.879.4c-.578,0-.87-.291-.879-.378v-1.139a.852.852,0,0,0-.823-.851C155.656,118.9,151.762,116.258,151.762,114.008Zm0,0" transform="translate(-133.014 -74.545)"/>
      <path id="Path_1261769" data-name="Path 1261769" d="M264.264,288.615a.847.847,0,0,0,.721.166c2.183-.514,3.435-1.862,3.435-3.7,0-2.207-1.864-3.342-3.267-4a.86.86,0,0,0-1.216.77v6.1A.847.847,0,0,0,264.264,288.615Zm1.377-5.3a2.138,2.138,0,0,1,1.075,1.771,1.824,1.824,0,0,1-1.075,1.675Zm0,0" transform="translate(-233.958 -249.081)"/>
      <path id="Path_1261770" data-name="Path 1261770" d="M29.078,0A28.919,28.919,0,0,0,12.66,5.077a.852.852,0,0,0,.963,1.405A27.375,27.375,0,0,1,48.435,48.435,27.374,27.374,0,1,1,11.052,8.478.852.852,0,1,0,9.929,7.2,29.076,29.076,0,1,0,29.078,0Zm0,0"/>
      <path id="Path_1261771" data-name="Path 1261771" d="M82.489,79.983a.852.852,0,0,0,1.2-.132,24.574,24.574,0,1,0-2.361,2.556.852.852,0,1,0-1.167-1.241,22.85,22.85,0,1,1,2.2-2.38A.852.852,0,0,0,82.489,79.983Zm0,0" transform="translate(-35.457 -35.457)"/>
    </g>
  </g>
</svg>
