<svg xmlns="http://www.w3.org/2000/svg" xmlns:xlink="http://www.w3.org/1999/xlink" width="118" height="118" viewBox="0 0 118 118">
  <defs>
    <filter id="Rectangle_411831" x="0" y="0" width="118" height="118" filterUnits="userSpaceOnUse">
      <feOffset dy="3" input="SourceAlpha"/>
      <feGaussianBlur stdDeviation="3" result="blur"/>
      <feFlood flood-opacity="0.161"/>
      <feComposite operator="in" in2="blur"/>
      <feComposite in="SourceGraphic"/>
    </filter>
  </defs>
  <g id="Group_1205571" data-name="Group 1205571" transform="translate(-372.051 -9893)">
    <g id="Group_1203420" data-name="Group 1203420" transform="translate(-419.73 7937)">
      <g id="Group_1203409" data-name="Group 1203409" transform="translate(465 -1896)">
        <g transform="matrix(1, 0, 0, 1, 326.78, 3852)" filter="url(#Rectangle_411831)">
          <g id="Rectangle_411831-2" data-name="Rectangle 411831" transform="translate(9 6)" fill="#fecb20" stroke="#fff" stroke-width="2">
            <path d="M5,0H68a32,32,0,0,1,32,32V95a5,5,0,0,1-5,5H32A32,32,0,0,1,0,68V5A5,5,0,0,1,5,0Z" stroke="none"/>
            <path d="M5,1H68A31,31,0,0,1,99,32V95a4,4,0,0,1-4,4H32A31,31,0,0,1,1,68V5A4,4,0,0,1,5,1Z" fill="none"/>
          </g>
        </g>
      </g>
    </g>
    <g id="informacion" transform="translate(395.051 9888.625)">
      <g id="Group_1205562" data-name="Group 1205562" transform="translate(17.418 39.106)">
        <path id="Path_1261731" data-name="Path 1261731" d="M300.965,111.291a13.783,13.783,0,0,1,8.105,8.3h6.574a20.094,20.094,0,0,0-14.679-14.907v6.61Z" transform="translate(-276.06 -104.681)" fill="#c4e2ff"/>
        <path id="Path_1261732" data-name="Path 1261732" d="M136.122,260.094a13.732,13.732,0,0,1-5.93-10.407H124c-.046,0-.091,0-.137.007a20.072,20.072,0,0,0,12.258,17.568v-7.168Z" transform="translate(-123.864 -229.296)" fill="#c4e2ff"/>
      </g>
      <g id="Group_1205563" data-name="Group 1205563" transform="translate(29.677 54.013)">
        <path id="Path_1261733" data-name="Path 1261733" d="M250.9,210.686h-19.11a13.747,13.747,0,0,1-20.752,15.891v12.77a1.406,1.406,0,0,0,1.406,1.406H235.8a1.406,1.406,0,0,1,.994.412l6.642,6.642a.7.7,0,0,0,1.2-.5v-5.15a1.406,1.406,0,0,1,1.406-1.406H250.9a1.406,1.406,0,0,0,1.406-1.406V212.092A1.406,1.406,0,0,0,250.9,210.686Z" transform="translate(-211.034 -210.686)" fill="#ffe177"/>
        <path id="Path_1261734" data-name="Path 1261734" d="M217.011,336.46V325.987a13.666,13.666,0,0,1-5.977-2.3v12.77a1.406,1.406,0,0,0,1.406,1.406h5.977A1.406,1.406,0,0,1,217.011,336.46Z" transform="translate(-211.034 -307.799)" fill="#ffc344"/>
      </g>
      <g id="Group_1205566" data-name="Group 1205566" transform="translate(1.055 29.43)">
        <path id="Path_1261735" data-name="Path 1261735" d="M30.16,65.02A13.752,13.752,0,0,1,48.769,52.161V37.281a1.406,1.406,0,0,0-1.406-1.406H8.906A1.406,1.406,0,0,0,7.5,37.281V64.536a1.406,1.406,0,0,0,1.406,1.406h4.852a1.406,1.406,0,0,1,1.406,1.406V72.5a.7.7,0,0,0,1.2.5l6.642-6.642A1.406,1.406,0,0,1,24,65.942h6.191C30.172,65.637,30.16,65.33,30.16,65.02Z" transform="translate(-7.5 -35.875)" fill="#00f2a6"/>
        <g id="Group_1205565" data-name="Group 1205565" transform="translate(0 0)">
          <g id="Group_1205564" data-name="Group 1205564">
            <path id="Path_1261736" data-name="Path 1261736" d="M12.773,64.655V37.281a1.406,1.406,0,0,1,1.406-1.406H8.906A1.406,1.406,0,0,0,7.5,37.281V64.536a1.406,1.406,0,0,0,1.406,1.406h4.708A1.406,1.406,0,0,1,12.773,64.655Z" transform="translate(-7.5 -35.875)" fill="#05e39c"/>
          </g>
        </g>
      </g>
      <g id="Group_1205569" data-name="Group 1205569" transform="translate(23.715 44.829)">
        <g id="Group_1205567" data-name="Group 1205567" transform="translate(0 0)">
          <circle id="Ellipse_13677" data-name="Ellipse 13677" cx="13.745" cy="13.745" r="13.745" fill="#2ed1e2"/>
        </g>
        <g id="Group_1205568" data-name="Group 1205568" transform="translate(0 0)">
          <path id="Path_1261737" data-name="Path 1261737" d="M174.6,159.128a13.749,13.749,0,0,1,10.767-13.42,13.745,13.745,0,1,0,0,26.841,13.749,13.749,0,0,1-10.767-13.42Z" transform="translate(-168.64 -145.383)" fill="#03bed7"/>
        </g>
      </g>
      <g id="Group_1205570" data-name="Group 1205570" transform="translate(0 28.375)">
        <path id="Path_1261738" data-name="Path 1261738" d="M69.539,52.958h-3.3a1.055,1.055,0,0,0,0,2.109h3.3a.352.352,0,0,1,.352.352V82.673a.352.352,0,0,1-.352.352H64.687a2.464,2.464,0,0,0-2.461,2.461v4.3l-6.041-6.041a2.445,2.445,0,0,0-1.74-.721H31.083a.352.352,0,0,1-.352-.352V71.754a14.79,14.79,0,0,0,12.087.616H63.345a1.055,1.055,0,1,0,0-2.109H46.53A14.927,14.927,0,0,0,49.6,67.033h4.012a1.055,1.055,0,0,0,0-2.109H50.826a14.68,14.68,0,0,0,1.1-3.227H63.345a1.055,1.055,0,0,0,0-2.109H52.224c.023-.335.035-.673.035-1.013a14.775,14.775,0,0,0-.421-3.507h9.474a1.055,1.055,0,0,0,0-2.109h-3.5A21.2,21.2,0,0,0,43.378,38.3V30.836a2.464,2.464,0,0,0-2.461-2.461H14.062a1.055,1.055,0,0,0,0,2.109H40.917a.352.352,0,0,1,.352.352V44.272a14.788,14.788,0,0,0-11.061,1.405H8.655a1.055,1.055,0,0,0,0,2.109H27.339a14.9,14.9,0,0,0-2.6,3.227H8.655a1.055,1.055,0,0,0,0,2.109H23.7a14.719,14.719,0,0,0-1.039,5.319H17.555a2.444,2.444,0,0,0-1.74.721L9.774,65.2V60.9a2.464,2.464,0,0,0-2.461-2.461H2.461a.352.352,0,0,1-.352-.352V30.836a.352.352,0,0,1,.352-.352h6.68a1.055,1.055,0,0,0,0-2.109H2.461A2.464,2.464,0,0,0,0,30.836V58.091a2.464,2.464,0,0,0,2.461,2.461H7.313a.352.352,0,0,1,.352.352v5.15a1.757,1.757,0,0,0,3,1.243l5.869-5.869a20.905,20.905,0,0,0,3.956,9.719,1.055,1.055,0,0,0,1.694-1.257,18.811,18.811,0,0,1-3.627-9.337h4.235a14.809,14.809,0,0,0,5.829,9.887V75.4A18.879,18.879,0,0,1,25.4,73.269a1.055,1.055,0,0,0-1.339,1.63,21.017,21.017,0,0,0,4.56,2.849v4.926a2.464,2.464,0,0,0,2.461,2.461H54.445a.349.349,0,0,1,.248.1l6.642,6.641a1.758,1.758,0,0,0,3-1.243v-5.15a.352.352,0,0,1,.352-.352h4.852A2.464,2.464,0,0,0,72,82.674V55.419a2.464,2.464,0,0,0-2.461-2.461ZM43.378,40.512a19.091,19.091,0,0,1,12.24,12.446H51.151a14.886,14.886,0,0,0-7.773-7.947ZM24.77,58.574a12.69,12.69,0,1,1,12.69,12.69A12.7,12.7,0,0,1,24.77,58.574Z" transform="translate(0 -28.375)"/>
        <path id="Path_1261739" data-name="Path 1261739" d="M409.216,288.279h-5.693a1.055,1.055,0,0,0,0,2.109h5.693a1.055,1.055,0,0,0,0-2.109Z" transform="translate(-345.871 -251.73)"/>
        <path id="Path_1261740" data-name="Path 1261740" d="M258.634,364.172a1.055,1.055,0,0,0,0,2.109h15.557a1.055,1.055,0,0,0,0-2.109Z" transform="translate(-221.357 -316.951)"/>
        <path id="Path_1261741" data-name="Path 1261741" d="M81.169,75.522H55.1a1.055,1.055,0,0,0,0,2.109H81.169a1.055,1.055,0,0,0,0-2.109Z" transform="translate(-46.446 -68.892)"/>
        <path id="Path_1261742" data-name="Path 1261742" d="M140.666,113.469H124.334a1.055,1.055,0,0,0,0,2.109h16.332a1.055,1.055,0,0,0,0-2.109Z" transform="translate(-105.943 -101.503)"/>
        <path id="Path_1261743" data-name="Path 1261743" d="M55.1,113.469a1.055,1.055,0,0,0,0,2.109h5.693a1.055,1.055,0,1,0,0-2.109Z" transform="translate(-46.446 -101.503)"/>
        <path id="Path_1261744" data-name="Path 1261744" d="M260.991,229.091V219.072a.422.422,0,0,0-.422-.422H259.3a.422.422,0,0,0-.422.422v10.019a.422.422,0,0,0,.422.422h1.266A.422.422,0,0,0,260.991,229.091Z" transform="translate(-222.477 -191.893)"/>
        <path id="Path_1261745" data-name="Path 1261745" d="M259.3,194.023h1.266a.422.422,0,0,0,.422-.422v-1.266a.422.422,0,0,0-.422-.422H259.3a.422.422,0,0,0-.422.422V193.6A.422.422,0,0,0,259.3,194.023Z" transform="translate(-222.477 -168.916)"/>
      </g>
    </g>
  </g>
</svg>
