<svg xmlns="http://www.w3.org/2000/svg" width="89.445" height="89.444" viewBox="0 0 89.445 89.444">
  <g id="Group_1205590" data-name="Group 1205590" transform="translate(-915.051 -12687)">
    <g id="Group_1204757" data-name="Group 1204757" transform="translate(-106.916 9594.345)">
      <g id="Group_1200255" data-name="Group 1200255" transform="translate(1021.967 3092.655)">
        <g id="Group_1187152" data-name="Group 1187152" transform="translate(0 0)">
          <g id="Group_1185946" data-name="Group 1185946">
            <g id="Group_1184280" data-name="Group 1184280">
              <g id="Group_1182168" data-name="Group 1182168">
                <g id="Group_1178877" data-name="Group 1178877">
                  <g id="Group_1111311" data-name="Group 1111311">
                    <g id="Group_1098742" data-name="Group 1098742" transform="translate(0 0)">
                      <g id="Rectangle_400898" data-name="Rectangle 400898" transform="translate(0.001 0)" fill="#b8a9f1" stroke="#7f75a8" stroke-width="1" opacity="0.859">
                        <rect width="89.444" height="89.444" rx="44.722" stroke="none"/>
                        <rect x="0.5" y="0.5" width="88.444" height="88.444" rx="44.222" fill="none"/>
                      </g>
                      <g id="Rectangle_400907" data-name="Rectangle 400907" transform="translate(0 0)" fill="none" stroke="#7f75a8" stroke-width="1">
                        <rect width="89.444" height="89.444" rx="44.722" stroke="none"/>
                        <rect x="0.5" y="0.5" width="88.444" height="88.444" rx="44.222" fill="none"/>
                      </g>
                    </g>
                  </g>
                </g>
              </g>
            </g>
          </g>
        </g>
      </g>
    </g>
    <g id="hoja-de-calculo" transform="translate(902.076 12703)">
      <g id="Group_1205589" data-name="Group 1205589" transform="translate(32.83 0.856)">
        <path id="Path_1261832" data-name="Path 1261832" d="M50.626,56.309H40.133a.661.661,0,0,1-.659-.659V8.159a.661.661,0,0,1,.659-.659h29.89c.2,0,.254.079.6.405l7.21,6.875c.293.283.376.316.376.5V55.649a.661.661,0,0,1-.659.659H50.626Z" transform="translate(-39.474 -7.5)" fill="#f3eae6" fill-rule="evenodd"/>
        <path id="Path_1261833" data-name="Path 1261833" d="M204.209,23.178v12.1a.686.686,0,0,1-.682.686h-4.009c-.046,1.358-.155,2.693-.32,3.995a41.867,41.867,0,0,1-.785,4.39A34.064,34.064,0,0,1,193.2,56.308h7.364a10.325,10.325,0,0,1,2.192-9.153c.033-.04.066-.076.1-.115a10.3,10.3,0,0,1,5.706-3.3c.142-.03.283-.053.422-.076a10.02,10.02,0,0,1,1.3-.125V15.284a.341.341,0,0,0-.03-.148h-5.337a2.656,2.656,0,0,1-2.65-2.647l.007-4.957a.408.408,0,0,0-.171-.033H188.557c4.183,3.171,7.523,8.49,9.379,14.993h5.591a.687.687,0,0,1,.682.686Z" transform="translate(-171.544 -7.499)" fill="#e0d2ce" fill-rule="evenodd"/>
        <path id="Path_1261834" data-name="Path 1261834" d="M116.931,138.878H91.492a.689.689,0,0,0-.686.686v3.711h26.808v-3.711A.687.687,0,0,0,116.931,138.878Z" transform="translate(-84.948 -123.885)" fill="#fece85" fill-rule="evenodd"/>
        <path id="Path_1261835" data-name="Path 1261835" d="M90.805,177.4h6.771v4.535H90.805Z" transform="translate(-84.947 -158.015)" fill="#6bd9e7" fill-rule="evenodd"/>
        <path id="Path_1261836" data-name="Path 1261836" d="M150.138,177.4h6.633v4.535h-6.633Z" transform="translate(-137.509 -158.015)" fill="#6bd9e7" fill-rule="evenodd"/>
        <path id="Path_1261837" data-name="Path 1261837" d="M208.258,177.4h6.633v4.535h-6.633Z" transform="translate(-188.996 -158.015)" fill="#6bd9e7" fill-rule="evenodd"/>
        <path id="Path_1261838" data-name="Path 1261838" d="M273.148,217.145h-6.771v4.535h6.089a.686.686,0,0,0,.682-.686v-3.85Z" transform="translate(-240.483 -193.22)" fill="#6bd9e7" fill-rule="evenodd"/>
        <path id="Path_1261839" data-name="Path 1261839" d="M266.377,177.4h6.771v4.535h-6.771Z" transform="translate(-240.483 -158.015)" fill="#6bd9e7" fill-rule="evenodd"/>
        <path id="Path_1261840" data-name="Path 1261840" d="M208.258,217.145h6.633v4.535h-6.633Z" transform="translate(-188.996 -193.22)" fill="#6bd9e7" fill-rule="evenodd"/>
        <path id="Path_1261841" data-name="Path 1261841" d="M150.138,217.145h6.633v4.535h-6.633Z" transform="translate(-137.509 -193.22)" fill="#6bd9e7" fill-rule="evenodd"/>
        <path id="Path_1261842" data-name="Path 1261842" d="M97.576,217.145H90.805v3.85a.689.689,0,0,0,.686.686h6.085v-4.535Z" transform="translate(-84.947 -193.22)" fill="#6bd9e7" fill-rule="evenodd"/>
        <path id="Path_1261843" data-name="Path 1261843" d="M308.609,12.745a2.656,2.656,0,0,0,2.65,2.647H316.6a2.026,2.026,0,0,0-.346-.356l-7.21-6.875a2.4,2.4,0,0,0-.425-.372Z" transform="translate(-277.895 -7.755)" fill="#b8acac" fill-rule="evenodd"/>
        <path id="Path_1261844" data-name="Path 1261844" d="M293.682,326.884a10.039,10.039,0,1,0,.1-.115C293.748,326.808,293.715,326.844,293.682,326.884Z" transform="translate(-262.474 -287.228)" fill="#fece85" fill-rule="evenodd"/>
        <path id="Path_1261845" data-name="Path 1261845" d="M368.563,325.842a10.341,10.341,0,0,1-4.78,17.9,10.342,10.342,0,1,0,.425-20.346c-.138.023-.28.046-.422.076.142.026.283.059.422.092A10.31,10.31,0,0,1,368.563,325.842Z" transform="translate(-326.773 -287.228)" fill="#fdb440" fill-rule="evenodd"/>
      </g>
      <path id="Path_1261846" data-name="Path 1261846" d="M91.816,59.242h6.171a.856.856,0,1,0,0-1.712H91.816a.856.856,0,1,0,0,1.712Z" transform="translate(-52.255 -50.965)"/>
      <path id="Path_1261847" data-name="Path 1261847" d="M91.816,93.524h4.193a.856.856,0,0,0,0-1.712H91.816a.856.856,0,0,0,0,1.712Z" transform="translate(-52.255 -81.334)"/>
      <path id="Path_1261848" data-name="Path 1261848" d="M83.305,132.92v12.1a1.543,1.543,0,0,0,1.542,1.541h25.439a1.541,1.541,0,0,0,1.538-1.541v-12.1a1.542,1.542,0,0,0-1.538-1.541H84.847A1.543,1.543,0,0,0,83.305,132.92Zm13.4,4.567v2.823H91.788v-2.823Zm6.633,0v2.823H98.42v-2.823Zm6.771,0v2.823h-5.059v-2.823Zm-11.692,4.535h4.921v2.823H98.421Zm-1.712,2.823H91.788v-2.823h4.921Zm-6.633-4.535H85.017v-2.823h5.059Zm-5.059,1.712h5.059v2.823H85.017Zm20.036,2.823v-2.823h5.059v2.823Zm5.059-11.755v2.685h-25.1v-2.685Z" transform="translate(-45.473 -116.386)"/>
      <path id="Path_1261849" data-name="Path 1261849" d="M85.4,286.1H112.21a.856.856,0,0,0,0-1.712H85.4a.856.856,0,1,0,0,1.712Z" transform="translate(-46.573 -251.934)"/>
      <path id="Path_1261850" data-name="Path 1261850" d="M235.757,322.857a.856.856,0,1,0,0,1.712h4.823a.856.856,0,1,0,0-1.712Z" transform="translate(-179.769 -286.012)"/>
      <path id="Path_1261851" data-name="Path 1261851" d="M357.56,370.774h3.112a.856.856,0,1,0,0-1.712h-1.448v-.584a.856.856,0,1,0-1.712,0v.587a2.346,2.346,0,0,0,.048,4.692h1.632a.638.638,0,0,1,.624.634.646.646,0,0,1-.637.637H356.07a.856.856,0,1,0,0,1.712h1.442v.584a.856.856,0,0,0,1.712,0v-.587a2.346,2.346,0,0,0-.032-4.692H357.56a.635.635,0,0,1,0-1.271Z" transform="translate(-286.352 -325.669)"/>
      <path id="Path_1261852" data-name="Path 1261852" d="M80.484,40.037a.856.856,0,1,0-1.311,1.1A9.488,9.488,0,0,1,65.629,54.352a9.43,9.43,0,0,1-2.723-4.118,5.875,5.875,0,0,1-.345-1.372,9.493,9.493,0,0,1,8.891-11.117.854.854,0,0,0,.109.008.864.864,0,0,0,.169-.017,9.471,9.471,0,0,1,4.661,1.137.856.856,0,1,0,.811-1.507,11.209,11.209,0,0,0-4.785-1.316V8.641c0-.03,0-.059,0-.088s0-.04,0-.06a.854.854,0,0,0-.329-.674c-.059-.064-.12-.121-.175-.172-.038-.035-.082-.076-.137-.13L64.565.641l-.106-.1A2.829,2.829,0,0,0,64.054.2a.851.851,0,0,0-.268-.131A1.226,1.226,0,0,0,63.379,0H33.489a1.517,1.517,0,0,0-1.515,1.515v47.49a1.517,1.517,0,0,0,1.515,1.515h7.15a.856.856,0,1,0,0-1.712H33.686V1.712H62.693l-.006,4.134a3.508,3.508,0,0,0,3.506,3.5H70.7V36.1c-.241.026-.481.057-.721.1A11.184,11.184,0,0,0,60.82,48.809H44.664a.856.856,0,1,0,0,1.712H61.2A11.2,11.2,0,1,0,80.484,40.037ZM64.4,5.847l0-3,5.017,4.785H66.194A1.8,1.8,0,0,1,64.4,5.847Z"/>
    </g>
  </g>
</svg>
