<svg xmlns="http://www.w3.org/2000/svg" xmlns:xlink="http://www.w3.org/1999/xlink" width="118" height="118" viewBox="0 0 118 118">
  <defs>
    <filter id="Rectangle_411831" x="0" y="0" width="118" height="118" filterUnits="userSpaceOnUse">
      <feOffset dy="3" input="SourceAlpha"/>
      <feGaussianBlur stdDeviation="3" result="blur"/>
      <feFlood flood-opacity="0.161"/>
      <feComposite operator="in" in2="blur"/>
      <feComposite in="SourceGraphic"/>
    </filter>
  </defs>
  <g id="Group_1205618" data-name="Group 1205618" transform="translate(-1109.051 -4889)">
    <g id="Group_1204796" data-name="Group 1204796" transform="translate(317.27 2933)">
      <g id="Group_1203409" data-name="Group 1203409" transform="translate(465 -1896)">
        <g transform="matrix(1, 0, 0, 1, 326.78, 3852)" filter="url(#Rectangle_411831)">
          <g id="Rectangle_411831-2" data-name="Rectangle 411831" transform="translate(9 6)" fill="#fecb20" stroke="#fff" stroke-width="2">
            <path d="M5,0H68a32,32,0,0,1,32,32V95a5,5,0,0,1-5,5H32A32,32,0,0,1,0,68V5A5,5,0,0,1,5,0Z" stroke="none"/>
            <path d="M5,1H68A31,31,0,0,1,99,32V95a4,4,0,0,1-4,4H32A31,31,0,0,1,1,68V5A4,4,0,0,1,5,1Z" fill="none"/>
          </g>
        </g>
      </g>
    </g>
    <g id="dato" transform="translate(1136.051 4913)">
      <path id="Path_1261905" data-name="Path 1261905" d="M60.758,271.7,79.2,285.556A4.253,4.253,0,0,1,80.939,289v10.668a1.069,1.069,0,0,0,1.635.909l5.911-3.7a2.161,2.161,0,0,0,1-1.817V289a4.253,4.253,0,0,1,1.742-3.442L109.672,271.7Zm0,0" transform="translate(-53.147 -237.668)" fill="#6ca4ea"/>
      <path id="Path_1261906" data-name="Path 1261906" d="M70.533,187.734v8.551c0,1.771-13.879,3.207-31,3.207s-31-1.436-31-3.207v-8.551Zm0,0" transform="translate(-7.466 -164.218)" fill="#5890da"/>
      <path id="Path_1261907" data-name="Path 1261907" d="M70.533,167.728c0,1.261-6.959,2.341-17.1,2.864-.695.032-1.411.075-2.138.1-3.624.161-7.589.246-11.758.246-4.992,0-9.716-.128-13.9-.342-10.144-.524-17.1-1.6-17.1-2.864s6.959-2.341,17.1-2.865H53.43C63.574,165.387,70.533,166.467,70.533,167.728Zm0,0" transform="translate(-7.466 -144.212)" fill="#6ca4ea"/>
      <path id="Path_1261908" data-name="Path 1261908" d="M172.858,10.673V33.847c-.695.032-1.411.075-2.138.1-3.624.16-7.589.246-11.758.246-4.992,0-9.716-.128-13.9-.342V10.673a2.108,2.108,0,0,1,.417-1.272,2.15,2.15,0,0,1,1.721-.866H170.72A2.144,2.144,0,0,1,172.858,10.673Zm0,0" transform="translate(-126.894 -7.466)" fill="#cbd1d7"/>
      <path id="Path_1261909" data-name="Path 1261909" d="M145.066,76.8h27.792v8.551H145.066Zm0,0" transform="translate(-126.895 -67.18)" fill="#abb1bb"/>
      <g id="Group_1205617" data-name="Group 1205617" transform="translate(0)">
        <path id="Path_1261910" data-name="Path 1261910" d="M47.033,19.639V3.207A3.207,3.207,0,0,0,43.826,0H20.31A3.207,3.207,0,0,0,17.1,3.207V9.62a1.069,1.069,0,0,0,1.069,1.069H44.895V17.1H19.241V14.965a1.069,1.069,0,0,0-2.138,0v4.674C.013,20.594,0,22.488,0,23.517v8.551c0,1.069.616,2.106,7.2,2.993L25.42,48.752a3.19,3.19,0,0,1,1.3,2.578V62a2.138,2.138,0,0,0,2.138,2.138,2.174,2.174,0,0,0,1.133-.321l5.922-3.707a3.213,3.213,0,0,0,1.5-2.717V51.33a3.2,3.2,0,0,1,1.315-2.587L56.941,35.061c.32-.045.641-.089.941-.135a1.069,1.069,0,0,0-.32-2.113,191.421,191.421,0,0,1-25.494,1.393c-17.247,0-28.2-1.4-29.93-2.458V25.5a40.6,40.6,0,0,0,7.9,1.352c5.89.609,13.71.944,22.031.944s16.141-.335,22.031-.944A40.6,40.6,0,0,0,62,25.5v6.542a1.069,1.069,0,0,0,2.138,0V23.517C64.136,22.488,64.123,20.594,47.033,19.639ZM19.241,8.551V3.207A1.069,1.069,0,0,1,20.31,2.138H43.826a1.069,1.069,0,0,1,1.069,1.069V8.551ZM52.756,35.529l-15.3,11.494a5.344,5.344,0,0,0-2.181,4.306v6.061a1.1,1.1,0,0,1-.5.911L28.861,62V51.33a5.331,5.331,0,0,0-2.169-4.3L11.373,35.525c5.716.527,12.983.819,20.695.819S47.107,36.047,52.756,35.529ZM2.926,23.523c1.731-.541,5.924-1.271,14.177-1.74v3.473C9.858,24.838,4.948,24.158,2.926,23.523Zm16.315,1.846V19.241H44.895v6.128c-3.753.178-8.047.285-12.827.285S22.993,25.547,19.241,25.369Zm27.792-.114V21.782c8.253.469,12.447,1.2,14.177,1.74C59.188,24.158,54.278,24.838,47.033,25.256Zm0,0" transform="translate(0)" fill="#373737"/>
        <path id="Path_1261911" data-name="Path 1261911" d="M172.806,34.133h-1.069a1.069,1.069,0,0,0,0,2.138h1.069a1.069,1.069,0,0,0,0-2.138Zm0,0" transform="translate(-149.289 -29.857)" fill="#373737"/>
        <path id="Path_1261912" data-name="Path 1261912" d="M215.47,34.133H214.4a1.069,1.069,0,1,0,0,2.138h1.069a1.069,1.069,0,1,0,0-2.138Zm0,0" transform="translate(-186.609 -29.857)" fill="#373737"/>
        <path id="Path_1261913" data-name="Path 1261913" d="M172.806,104.536a1.069,1.069,0,0,0,0-2.138h-1.069a1.069,1.069,0,0,0,0,2.138Zm0,0" transform="translate(-149.289 -89.571)" fill="#373737"/>
        <path id="Path_1261914" data-name="Path 1261914" d="M215.47,104.536a1.069,1.069,0,1,0,0-2.138H214.4a1.069,1.069,0,1,0,0,2.138Zm0,0" transform="translate(-186.609 -89.571)" fill="#373737"/>
        <path id="Path_1261915" data-name="Path 1261915" d="M302.944,34.133h-3.207a1.069,1.069,0,0,0,0,2.138h3.207a1.069,1.069,0,0,0,0-2.138Zm0,0" transform="translate(-261.255 -29.857)" fill="#373737"/>
        <path id="Path_1261916" data-name="Path 1261916" d="M302.944,104.536a1.069,1.069,0,0,0,0-2.138h-3.207a1.069,1.069,0,0,0,0,2.138Zm0,0" transform="translate(-261.255 -89.571)" fill="#373737"/>
        <path id="Path_1261917" data-name="Path 1261917" d="M172.806,170.668h-1.069a1.069,1.069,0,0,0,0,2.138h1.069a1.069,1.069,0,0,0,0-2.138Zm0,0" transform="translate(-149.289 -149.289)" fill="#373737"/>
        <path id="Path_1261918" data-name="Path 1261918" d="M215.47,170.668H214.4a1.069,1.069,0,1,0,0,2.138h1.069a1.069,1.069,0,1,0,0-2.138Zm0,0" transform="translate(-186.609 -149.289)" fill="#373737"/>
        <path id="Path_1261919" data-name="Path 1261919" d="M302.944,170.668h-3.207a1.069,1.069,0,0,0,0,2.138h3.207a1.069,1.069,0,0,0,0-2.138Zm0,0" transform="translate(-261.255 -149.289)" fill="#373737"/>
        <path id="Path_1261920" data-name="Path 1261920" d="M47.035,0a1.069,1.069,0,0,0-1.069,1.069V12.385L44.584,11a1.069,1.069,0,0,0-1.512,1.512l3.206,3.207a1.069,1.069,0,0,0,1.514,0L51,12.514A1.069,1.069,0,0,0,49.488,11L48.1,12.385V1.069A1.069,1.069,0,0,0,47.035,0Zm0,0" transform="translate(-37.414)" fill="#373737"/>
        <path id="Path_1261921" data-name="Path 1261921" d="M405.434,0a1.069,1.069,0,0,0-1.069,1.069V12.385L402.983,11a1.069,1.069,0,0,0-1.511,1.512l3.207,3.207a1.069,1.069,0,0,0,1.513,0l3.207-3.207A1.069,1.069,0,0,0,407.887,11L406.5,12.385V1.069A1.069,1.069,0,0,0,405.434,0Zm0,0" transform="translate(-350.918)" fill="#373737"/>
      </g>
    </g>
  </g>
</svg>
