<svg xmlns="http://www.w3.org/2000/svg" xmlns:xlink="http://www.w3.org/1999/xlink" width="118" height="118" viewBox="0 0 118 118">
  <defs>
    <filter id="Rectangle_411831" x="0" y="0" width="118" height="118" filterUnits="userSpaceOnUse">
      <feOffset dy="3" input="SourceAlpha"/>
      <feGaussianBlur stdDeviation="3" result="blur"/>
      <feFlood flood-opacity="0.161"/>
      <feComposite operator="in" in2="blur"/>
      <feComposite in="SourceGraphic"/>
    </filter>
  </defs>
  <g id="Group_1205622" data-name="Group 1205622" transform="translate(3223 6712)">
    <g id="Group_1204800" data-name="Group 1204800" transform="translate(-4014.781 -8668)">
      <g id="Group_1203409" data-name="Group 1203409" transform="translate(465 -1896)">
        <g transform="matrix(1, 0, 0, 1, 326.78, 3852)" filter="url(#Rectangle_411831)">
          <g id="Rectangle_411831-2" data-name="Rectangle 411831" transform="translate(9 6)" fill="#fecb20" stroke="#fff" stroke-width="2">
            <path d="M5,0H68a32,32,0,0,1,32,32V95a5,5,0,0,1-5,5H32A32,32,0,0,1,0,68V5A5,5,0,0,1,5,0Z" stroke="none"/>
            <path d="M5,1H68A31,31,0,0,1,99,32V95a4,4,0,0,1-4,4H32A31,31,0,0,1,1,68V5A4,4,0,0,1,5,1Z" fill="none"/>
          </g>
        </g>
      </g>
    </g>
    <g id="gestion-de-proyectos" transform="translate(-3194.015 -6686.001)">
      <g id="Group_1205619" data-name="Group 1205619" transform="translate(0.946 0.934)">
        <path id="Path_1261922" data-name="Path 1261922" d="M8,8H48.8V65.848H8Z" transform="translate(-8 -7.999)" fill="#eceff1" fill-rule="evenodd"/>
        <path id="Path_1261923" data-name="Path 1261923" d="M182.894,8h20.4V65.848h-20.4Z" transform="translate(-162.496 -7.999)" fill="#c4cccf" fill-rule="evenodd"/>
      </g>
      <g id="Group_1205620" data-name="Group 1205620" transform="translate(6.669 6.657)">
        <path id="Path_1261924" data-name="Path 1261924" d="M57.07,369.039H67.9v10.017H57.07Z" transform="translate(-57.07 -332.654)" fill="#d5e7ff" fill-rule="evenodd"/>
        <path id="Path_1261925" data-name="Path 1261925" d="M103.52,369.039h5.417v10.017H103.52Z" transform="translate(-98.103 -332.654)" fill="#acceff" fill-rule="evenodd"/>
        <path id="Path_1261926" data-name="Path 1261926" d="M57.07,213.055H67.9v10.017H57.07Z" transform="translate(-57.07 -194.862)" fill="#f6dccd" fill-rule="evenodd"/>
        <path id="Path_1261927" data-name="Path 1261927" d="M103.52,213.055h5.417v10.017H103.52Z" transform="translate(-98.103 -194.862)" fill="#f1cbbc" fill-rule="evenodd"/>
        <path id="Path_1261928" data-name="Path 1261928" d="M57.07,57.07H67.9V67.087H57.07Z" transform="translate(-57.07 -57.07)" fill="#f9e997" fill-rule="evenodd"/>
        <path id="Path_1261929" data-name="Path 1261929" d="M103.52,57.07h5.417V67.087H103.52Z" transform="translate(-98.103 -57.07)" fill="#f5d844" fill-rule="evenodd"/>
      </g>
      <g id="Group_1205621" data-name="Group 1205621" transform="translate(24.69 27.013)">
        <path id="Path_1261930" data-name="Path 1261930" d="M243.073,254.195a2.514,2.514,0,0,1,2.611,2.386v24.362a2.514,2.514,0,0,1-2.611,2.386H214.19a2.514,2.514,0,0,1-2.611-2.387V256.581a2.514,2.514,0,0,1,2.611-2.386Z" transform="translate(-211.579 -251.56)" fill="#d5e7ff" fill-rule="evenodd"/>
        <path id="Path_1261931" data-name="Path 1261931" d="M372.231,254.2a2.514,2.514,0,0,1,2.611,2.386v24.362a2.514,2.514,0,0,1-2.611,2.386H357.79V254.2Z" transform="translate(-340.737 -251.56)" fill="#acceff" fill-rule="evenodd"/>
        <path id="Path_1261932" data-name="Path 1261932" d="M211.579,260.926h34.1V256.58a2.514,2.514,0,0,0-2.611-2.386H214.19a2.514,2.514,0,0,0-2.611,2.386Z" transform="translate(-211.579 -251.56)" fill="#76e2f8" fill-rule="evenodd"/>
        <path id="Path_1261933" data-name="Path 1261933" d="M357.79,260.926h17.052V256.58a2.514,2.514,0,0,0-2.611-2.386H357.79Z" transform="translate(-340.737 -251.56)" fill="#3aaaff" fill-rule="evenodd"/>
        <path id="Path_1261934" data-name="Path 1261934" d="M254.3,231.606h1.269a1.145,1.145,0,0,1,1.142,1.142v3.68a1.145,1.145,0,0,1-1.142,1.142H254.3a1.145,1.145,0,0,1-1.142-1.142v-3.68A1.145,1.145,0,0,1,254.3,231.606Z" transform="translate(-248.312 -231.606)" fill="#697c86" fill-rule="evenodd"/>
        <path id="Path_1261935" data-name="Path 1261935" d="M268.392,231.606h.634a1.145,1.145,0,0,1,1.142,1.142v3.68a1.145,1.145,0,0,1-1.142,1.142h-.634Z" transform="translate(-261.766 -231.606)" fill="#3b4a51" fill-rule="evenodd"/>
        <path id="Path_1261936" data-name="Path 1261936" d="M343.7,231.606h1.269a1.145,1.145,0,0,1,1.142,1.142v3.68a1.145,1.145,0,0,1-1.142,1.142H343.7a1.145,1.145,0,0,1-1.142-1.142v-3.68A1.145,1.145,0,0,1,343.7,231.606Z" transform="translate(-327.284 -231.606)" fill="#697c86" fill-rule="evenodd"/>
        <path id="Path_1261937" data-name="Path 1261937" d="M355.666,231.606h.635a1.145,1.145,0,0,1,1.142,1.142v3.68a1.145,1.145,0,0,1-1.142,1.142h-.635Z" transform="translate(-338.861 -231.606)" fill="#3b4a51" fill-rule="evenodd"/>
        <path id="Path_1261938" data-name="Path 1261938" d="M428.633,231.606H429.9a1.145,1.145,0,0,1,1.142,1.142v3.68a1.145,1.145,0,0,1-1.142,1.142h-1.269a1.145,1.145,0,0,1-1.142-1.142v-3.68A1.145,1.145,0,0,1,428.633,231.606Z" transform="translate(-402.309 -231.606)" fill="#697c86" fill-rule="evenodd"/>
        <path id="Path_1261939" data-name="Path 1261939" d="M442.721,231.606h.635a1.145,1.145,0,0,1,1.142,1.142v3.68a1.145,1.145,0,0,1-1.142,1.142h-.635Z" transform="translate(-415.763 -231.606)" fill="#3b4a51" fill-rule="evenodd"/>
        <path id="Path_1261940" data-name="Path 1261940" d="M260.866,352.419h4.786V357.2h-4.786Z" transform="translate(-255.118 -338.329)" fill="#f9e997" fill-rule="evenodd"/>
        <path id="Path_1261941" data-name="Path 1261941" d="M281.384,352.419h2.393V357.2h-2.393Z" transform="translate(-273.243 -338.329)" fill="#f5d844" fill-rule="evenodd"/>
        <path id="Path_1261942" data-name="Path 1261942" d="M336.565,352.419h4.786V357.2h-4.786Z" transform="translate(-321.988 -338.329)" fill="#f9e997" fill-rule="evenodd"/>
        <path id="Path_1261943" data-name="Path 1261943" d="M357.082,352.419h2.393V357.2h-2.393Z" transform="translate(-340.112 -338.329)" fill="#f5d844" fill-rule="evenodd"/>
        <path id="Path_1261944" data-name="Path 1261944" d="M413.68,352.419h4.786V357.2H413.68Z" transform="translate(-390.109 -338.329)" fill="#f9e997" fill-rule="evenodd"/>
        <path id="Path_1261945" data-name="Path 1261945" d="M434.2,352.419h2.393V357.2H434.2Z" transform="translate(-408.232 -338.329)" fill="#f5d844" fill-rule="evenodd"/>
        <path id="Path_1261946" data-name="Path 1261946" d="M260.866,422.459h4.786v4.786h-4.786Z" transform="translate(-255.118 -400.2)" fill="#f9e997" fill-rule="evenodd"/>
        <path id="Path_1261947" data-name="Path 1261947" d="M281.384,422.459h2.393v4.786h-2.393Z" transform="translate(-273.243 -400.2)" fill="#f5d844" fill-rule="evenodd"/>
        <path id="Path_1261948" data-name="Path 1261948" d="M336.565,422.459h4.786v4.786h-4.786Z" transform="translate(-321.988 -400.2)" fill="#f9e997" fill-rule="evenodd"/>
        <path id="Path_1261949" data-name="Path 1261949" d="M357.082,422.459h2.393v4.786h-2.393Z" transform="translate(-340.112 -400.2)" fill="#f5d844" fill-rule="evenodd"/>
        <path id="Path_1261950" data-name="Path 1261950" d="M413.68,422.459h4.786v4.786H413.68Z" transform="translate(-390.109 -400.2)" fill="#f9e997" fill-rule="evenodd"/>
        <path id="Path_1261951" data-name="Path 1261951" d="M434.2,422.459h2.393v4.786H434.2Z" transform="translate(-408.232 -400.2)" fill="#f5d844" fill-rule="evenodd"/>
      </g>
      <path id="Path_1261952" data-name="Path 1261952" d="M56.182,28.718H54.357v-.562a2.077,2.077,0,0,0-2.076-2.073H51.015a2.077,2.077,0,0,0-2.076,2.073v.562H44.191v-.562A2.076,2.076,0,0,0,42.346,26.1V.933A.932.932,0,0,0,41.414,0H.947A.932.932,0,0,0,.015.933v57.85a.932.932,0,0,0,.932.932H56.182A3.441,3.441,0,0,0,59.726,56.4V32.034a3.44,3.44,0,0,0-3.544-3.316ZM50.8,28.155a.213.213,0,0,1,.211-.208h1.266a.213.213,0,0,1,.212.208v3.68a.213.213,0,0,1-.212.208H51.015a.213.213,0,0,1-.211-.208Zm-1.865,2.427v1.253a2.077,2.077,0,0,0,2.076,2.073h1.266a2.077,2.077,0,0,0,2.076-2.073V30.582h1.825a1.58,1.58,0,0,1,1.679,1.451v3.415H25.621V32.034A1.58,1.58,0,0,1,27.3,30.582h1.306v1.253a2.077,2.077,0,0,0,2.076,2.073h1.266a2.077,2.077,0,0,0,2.076-2.073V30.582h4.748v1.253a2.077,2.077,0,0,0,2.076,2.073h1.266a2.077,2.077,0,0,0,2.076-2.073V30.582ZM30.471,31.835v-3.68a.213.213,0,0,1,.211-.208h1.266a.213.213,0,0,1,.211.208v3.68a.213.213,0,0,1-.211.208H30.682A.213.213,0,0,1,30.471,31.835Zm11.644-3.888a.213.213,0,0,1,.212.208v3.68a.213.213,0,0,1-.212.208H40.848a.213.213,0,0,1-.212-.208v-3.68a.213.213,0,0,1,.212-.208ZM1.88,1.866h38.6V26.117a2.076,2.076,0,0,0-1.709,2.038v.562H34.025v-.562a2.077,2.077,0,0,0-2.076-2.073H30.682a2.077,2.077,0,0,0-2.076,2.073v.562H27.3a3.44,3.44,0,0,0-3.544,3.316V56.4a3.128,3.128,0,0,0,.359,1.455H1.88Zm54.3,55.985H27.3A1.6,1.6,0,0,1,25.621,56.4V37.313H57.861V56.4a1.581,1.581,0,0,1-1.679,1.454ZM35.225,40.173a.932.932,0,0,1,.932.932v4.784a.932.932,0,0,1-.932.932H30.437a.932.932,0,0,1-.932-.932V41.105a.932.932,0,0,1,.932-.932Zm-.932,4.784H31.37V42.038h2.923Zm9.76-4.784a.932.932,0,0,1,.932.932v4.784a.932.932,0,0,1-.932.932H39.268a.932.932,0,0,1-.932-.932V41.105a.932.932,0,0,1,.932-.932Zm-.932,4.784H40.2V42.038H43.12Zm-7.895,3.385a.932.932,0,0,1,.932.932v4.784a.932.932,0,0,1-.932.932H30.437a.932.932,0,0,1-.932-.932V49.275a.932.932,0,0,1,.932-.932Zm-.932,4.784H31.37V50.207h2.923Zm9.76-4.784a.932.932,0,0,1,.932.932v4.784a.932.932,0,0,1-.932.932H39.268a.932.932,0,0,1-.932-.932V49.275a.932.932,0,0,1,.932-.932Zm-.932,4.784H40.2V50.207H43.12Zm9.928-12.953a.932.932,0,0,1,.932.932v4.784a.932.932,0,0,1-.932.932H48.261a.932.932,0,0,1-.932-.932V41.105a.932.932,0,0,1,.932-.932Zm-.932,4.784H49.193V42.038h2.922Zm.932,3.385a.932.932,0,0,1,.932.932v4.784a.932.932,0,0,1-.932.932H48.261a.932.932,0,0,1-.932-.932V49.275a.932.932,0,0,1,.932-.932Zm-.932,4.784H49.193V50.207h2.922ZM5.738,16.677V6.656a.932.932,0,0,1,.932-.932H17.5a.932.932,0,0,1,0,1.865H7.6v8.156h8.969V12.907l-1.734,1.574a.932.932,0,0,1-1.285-.031l-2.126-2.123a.932.932,0,0,1,1.318-1.32l1.5,1.5,4.5-4.085A.932.932,0,0,1,20,9.8l-1.559,1.415v5.462a.932.932,0,0,1-.932.932H6.67a.933.933,0,0,1-.932-.932Zm0,18.19V24.849a.932.932,0,0,1,.932-.932H17.5a.932.932,0,0,1,0,1.865H7.6v8.153h8.969V31.1l-1.734,1.574a.932.932,0,0,1-1.286-.031l-2.126-2.126A.932.932,0,1,1,12.745,29.2l1.5,1.5,4.5-4.084A.932.932,0,0,1,20,27.993l-1.559,1.415v5.459a.932.932,0,0,1-.932.932H6.67a.932.932,0,0,1-.932-.932Zm14.322,10A.932.932,0,0,1,20,46.186L18.437,47.6v5.46a.932.932,0,0,1-.932.932H6.67a.932.932,0,0,1-.932-.932V43.043a.932.932,0,0,1,.932-.932H17.5a.932.932,0,0,1,0,1.865H7.6v8.153h8.969V49.291l-1.734,1.573a.932.932,0,0,1-1.285-.031l-2.126-2.123a.932.932,0,1,1,1.318-1.319l1.5,1.5,4.5-4.082a.932.932,0,0,1,1.317.064Zm3.7-38.214a.932.932,0,0,1,.932-.932H36.812a.932.932,0,1,1,0,1.865H24.688a.932.932,0,0,1-.932-.932Zm0,5.009a.932.932,0,0,1,.932-.932H36.812a.932.932,0,1,1,0,1.865H24.688a.932.932,0,0,1-.932-.932Z" fill-rule="evenodd"/>
    </g>
  </g>
</svg>
