<svg xmlns="http://www.w3.org/2000/svg" width="89.445" height="89.444" viewBox="0 0 89.445 89.444">
  <g id="Group_1205550" data-name="Group 1205550" transform="translate(-290.27 -3140.285)">
    <g id="Group_1204636" data-name="Group 1204636" transform="translate(-731.696 47.63)">
      <g id="Group_1200255" data-name="Group 1200255" transform="translate(1021.967 3092.655)">
        <g id="Group_1187152" data-name="Group 1187152" transform="translate(0 0)">
          <g id="Group_1185946" data-name="Group 1185946">
            <g id="Group_1184280" data-name="Group 1184280">
              <g id="Group_1182168" data-name="Group 1182168">
                <g id="Group_1178877" data-name="Group 1178877">
                  <g id="Group_1111311" data-name="Group 1111311">
                    <g id="Group_1098742" data-name="Group 1098742" transform="translate(0 0)">
                      <g id="Rectangle_400898" data-name="Rectangle 400898" transform="translate(0.001 0)" fill="#b8a9f1" stroke="#7f75a8" stroke-width="1" opacity="0.859">
                        <rect width="89.444" height="89.444" rx="44.722" stroke="none"/>
                        <rect x="0.5" y="0.5" width="88.444" height="88.444" rx="44.222" fill="none"/>
                      </g>
                      <g id="Rectangle_400907" data-name="Rectangle 400907" transform="translate(0 0)" fill="none" stroke="#7f75a8" stroke-width="1">
                        <rect width="89.444" height="89.444" rx="44.722" stroke="none"/>
                        <rect x="0.5" y="0.5" width="88.444" height="88.444" rx="44.222" fill="none"/>
                      </g>
                    </g>
                  </g>
                </g>
              </g>
            </g>
          </g>
        </g>
      </g>
    </g>
    <g id="cobija-desenvuelta" transform="translate(308.059 3158.414)">
      <path id="Path_1261659" data-name="Path 1261659" d="M21,48H36.956v6.205H21Z" transform="translate(-2.044 -5.45)" fill="#bdc2cc"/>
      <path id="Path_1261660" data-name="Path 1261660" d="M50.1,40.886v4.432a2.659,2.659,0,0,1-2.659,2.659H6.659A2.659,2.659,0,0,1,4,45.319V40.886L4.886,40H49.21Z" transform="translate(-0.114 -4.541)" fill="#d9dde3"/>
      <path id="Path_1261661" data-name="Path 1261661" d="M15.773,54H40.594a1.773,1.773,0,0,1,1.773,1.773v1.773a.886.886,0,0,1-.886.886H14.886A.886.886,0,0,1,14,57.546V55.773A1.773,1.773,0,0,1,15.773,54Z" transform="translate(-1.249 -6.131)" fill="#d9dde3"/>
      <path id="Path_1261662" data-name="Path 1261662" d="M50.1,7.659V36.913H4V7.659A2.659,2.659,0,0,1,6.659,5H47.437A2.659,2.659,0,0,1,50.1,7.659Z" transform="translate(-0.114 -0.568)" fill="#435e68"/>
      <rect id="Rectangle_425977" data-name="Rectangle 425977" width="39" height="25" rx="1" transform="translate(7 8)" fill="#5a7b84"/>
      <rect id="Rectangle_425978" data-name="Rectangle 425978" width="28" height="28" rx="2" transform="translate(13 1)" fill="#d9dde3"/>
      <path id="Path_1261663" data-name="Path 1261663" d="M39.275,5.886V8.546H22.432V26.275H18.886A.886.886,0,0,1,18,25.389V5.886A.886.886,0,0,1,18.886,5h19.5A.886.886,0,0,1,39.275,5.886Z" transform="translate(-1.703 -0.568)" fill="#4cb799"/>
      <path id="Path_1261664" data-name="Path 1261664" d="M39.843,9V25.843a.886.886,0,0,1-.886.886H23V9Z" transform="translate(-2.271 -1.022)" fill="#f1f3f5"/>
      <g id="Group_1205549" data-name="Group 1205549" transform="translate(3)">
        <path id="Path_1261665" data-name="Path 1261665" d="M18.773,27.048h19.5a1.773,1.773,0,0,0,1.773-1.773V5.773A1.773,1.773,0,0,0,38.275,4h-19.5A1.773,1.773,0,0,0,17,5.773v19.5A1.773,1.773,0,0,0,18.773,27.048Zm0-4.432h2.659v2.659H18.773Zm4.432-6.205V13.751h15.07v2.659Zm15.07,1.773v2.659H23.205V18.183Zm-15.07-6.205V9.319h15.07v2.659Zm-1.773,0H18.773V9.319h2.659Zm0,1.773v2.659H18.773V13.751Zm0,4.432v2.659H18.773V18.183Zm1.773,7.092V22.616h15.07v2.659Zm15.07-19.5V7.546h-19.5V5.773Z" transform="translate(-4.589 -0.454)" fill="#373737"/>
        <path id="Path_1261666" data-name="Path 1261666" d="M47.323,3.546H42V2.659A2.659,2.659,0,0,0,39.345,0H14.524a2.659,2.659,0,0,0-2.659,2.659v.886H6.546A3.546,3.546,0,0,0,3,7.092V32.8a.886.886,0,1,0,1.773,0V7.092A1.773,1.773,0,0,1,6.546,5.319h5.319V7.092H8.319A1.773,1.773,0,0,0,6.546,8.865V31.913a1.773,1.773,0,0,0,1.773,1.773H45.55a1.773,1.773,0,0,0,1.773-1.773V8.865A1.773,1.773,0,0,0,45.55,7.092H42V5.319h5.319A1.773,1.773,0,0,1,49.1,7.092V35.459H3.886A.886.886,0,0,0,3,36.345v4.432a3.546,3.546,0,0,0,3.546,3.546H18.07v2.659H14.524a2.659,2.659,0,0,0-2.659,2.659v1.773a1.773,1.773,0,0,0,1.773,1.773H40.232A1.773,1.773,0,0,0,42,51.415V49.642a2.659,2.659,0,0,0-2.659-2.659H35.8V44.323H47.323a3.546,3.546,0,0,0,3.546-3.546V7.092A3.546,3.546,0,0,0,47.323,3.546ZM13.638,2.659a.886.886,0,0,1,.886-.886H39.345a.886.886,0,0,1,.886.886V27.48a.886.886,0,0,1-.886.886H14.524a.886.886,0,0,1-.886-.886ZM45.55,8.865V31.913H8.319V8.865h3.546V27.48a2.659,2.659,0,0,0,2.659,2.659H39.345A2.659,2.659,0,0,0,42,27.48V8.865ZM40.232,49.642v1.773H13.638V49.642a.886.886,0,0,1,.886-.886H39.345A.886.886,0,0,1,40.232,49.642Zm-6.205-2.659H19.843V44.323H34.026Zm13.3-4.432H6.546a1.773,1.773,0,0,1-1.773-1.773V37.232H49.1v3.546A1.773,1.773,0,0,1,47.323,42.55Z" transform="translate(-3)" fill="#373737"/>
        <path id="Path_1261667" data-name="Path 1261667" d="M30.659,44H28.886a.886.886,0,1,0,0,1.773h1.773a.886.886,0,1,0,0-1.773Z" transform="translate(-5.838 -4.996)" fill="#373737"/>
      </g>
    </g>
  </g>
</svg>
