<svg xmlns="http://www.w3.org/2000/svg" xmlns:xlink="http://www.w3.org/1999/xlink" width="118" height="118" viewBox="0 0 118 118">
  <defs>
    <filter id="Rectangle_411831" x="0" y="0" width="118" height="118" filterUnits="userSpaceOnUse">
      <feOffset dy="3" input="SourceAlpha"/>
      <feGaussianBlur stdDeviation="3" result="blur"/>
      <feFlood flood-opacity="0.161"/>
      <feComposite operator="in" in2="blur"/>
      <feComposite in="SourceGraphic"/>
    </filter>
  </defs>
  <g id="Group_1205616" data-name="Group 1205616" transform="translate(-791.781 -4889.312)">
    <g id="Group_1204795" data-name="Group 1204795" transform="translate(0 2933.312)">
      <g id="Group_1203409" data-name="Group 1203409" transform="translate(465 -1896)">
        <g transform="matrix(1, 0, 0, 1, 326.78, 3852)" filter="url(#Rectangle_411831)">
          <g id="Rectangle_411831-2" data-name="Rectangle 411831" transform="translate(9 6)" fill="#fecb20" stroke="#fff" stroke-width="2">
            <path d="M5,0H68a32,32,0,0,1,32,32V95a5,5,0,0,1-5,5H32A32,32,0,0,1,0,68V5A5,5,0,0,1,5,0Z" stroke="none"/>
            <path d="M5,1H68A31,31,0,0,1,99,32V95a4,4,0,0,1-4,4H32A31,31,0,0,1,1,68V5A4,4,0,0,1,5,1Z" fill="none"/>
          </g>
        </g>
      </g>
    </g>
    <g id="filtrar" transform="translate(745.509 4912.206)">
      <g id="Group_1205614" data-name="Group 1205614" transform="translate(86.271 0.97)">
        <path id="Path_1261887" data-name="Path 1261887" d="M156.885,16.445V37.387H133.963V9.791A2.291,2.291,0,0,1,136.254,7.5h11.688a2.845,2.845,0,0,1,2,.83l6.11,6.111a2.83,2.83,0,0,1,.83,2Z" transform="translate(-128.64 -7.5)" fill="#eaf6ff"/>
        <path id="Path_1261888" data-name="Path 1261888" d="M223.986,16.445V37.388h-4.013V16.445a2.822,2.822,0,0,0-.829-2l-6.11-6.112a2.851,2.851,0,0,0-2-.83h4.013a2.851,2.851,0,0,1,2,.83l6.11,6.112a2.83,2.83,0,0,1,.83,2Z" transform="translate(-195.741 -7.5)" fill="#c8effe"/>
        <path id="Path_1261889" data-name="Path 1261889" d="M189.538,105.575v9.416H166.616V98.921a2.291,2.291,0,0,1,2.291-2.291h11.688a2.845,2.845,0,0,1,2,.83l6.11,6.111a2.83,2.83,0,0,1,.83,2Z" transform="translate(-157.071 -85.104)" fill="#c8effe"/>
        <path id="Path_1261890" data-name="Path 1261890" d="M258.646,16.995h-5.224a2.291,2.291,0,0,1-2.292-2.29V9.48a2.786,2.786,0,0,1,.83.574l6.11,6.112A2.833,2.833,0,0,1,258.646,16.995Z" transform="translate(-230.655 -9.224)" fill="#99e6fc"/>
        <path id="Path_1261891" data-name="Path 1261891" d="M133.079,247.547H94.733a1.931,1.931,0,0,1-1.931-1.931v-5.07a1.931,1.931,0,0,1,1.931-1.931h38.346a1.931,1.931,0,0,1,1.931,1.931v5.07A1.931,1.931,0,0,1,133.079,247.547Z" transform="translate(-92.802 -208.728)" fill="#ffc344"/>
        <path id="Path_1261892" data-name="Path 1261892" d="M379.715,240.551v5.069a1.932,1.932,0,0,1-1.932,1.932H373.85a1.932,1.932,0,0,0,1.932-1.932v-5.069a1.931,1.931,0,0,0-1.932-1.931h3.933A1.931,1.931,0,0,1,379.715,240.551Z" transform="translate(-337.506 -208.732)" fill="#feb137"/>
        <path id="Path_1261893" data-name="Path 1261893" d="M146.083,307.687H107.737L117.8,322.9h18.22Z" transform="translate(-105.806 -268.868)" fill="#ffe177"/>
        <path id="Path_1261894" data-name="Path 1261894" d="M310.035,307.69,299.973,322.9H296.04L306.1,307.69Z" transform="translate(-269.758 -268.87)" fill="#ffd15b"/>
        <path id="Path_1261895" data-name="Path 1261895" d="M203.774,425.336h-18.22v8.389a1.848,1.848,0,0,0,1.848,1.848h14.523a1.848,1.848,0,0,0,1.848-1.848v-8.389Z" transform="translate(-173.56 -371.303)" fill="#ffe177"/>
        <path id="Path_1261896" data-name="Path 1261896" d="M288.039,425.34v8.388a1.848,1.848,0,0,1-1.848,1.848h-3.857a2.536,2.536,0,0,0,1.773-2.418V425.34Z" transform="translate(-257.824 -371.306)" fill="#ffd15b"/>
        <path id="Path_1261897" data-name="Path 1261897" d="M220.56,105.577v9.416H197.638V98.923a2.291,2.291,0,0,1,2.291-2.291h11.688a2.845,2.845,0,0,1,2,.83l6.11,6.111a2.83,2.83,0,0,1,.83,2Z" transform="translate(-184.081 -85.106)" fill="#eaf6ff"/>
        <path id="Path_1261898" data-name="Path 1261898" d="M287.665,105.575v9.417h-4.011v-9.417a2.83,2.83,0,0,0-.83-2l-6.11-6.112a2.844,2.844,0,0,0-2-.83h4.011a2.851,2.851,0,0,1,2,.83l6.11,6.112a2.822,2.822,0,0,1,.829,2Z" transform="translate(-251.186 -85.104)" fill="#c8effe"/>
        <path id="Path_1261899" data-name="Path 1261899" d="M322.326,106.125H317.1a2.291,2.291,0,0,1-2.292-2.29V98.61a2.819,2.819,0,0,1,.83.574l6.11,6.112A2.832,2.832,0,0,1,322.326,106.125Z" transform="translate(-286.101 -86.828)" fill="#99e6fc"/>
      </g>
      <g id="Group_1205615" data-name="Group 1205615" transform="translate(85.301 0)">
        <path id="Path_1261900" data-name="Path 1261900" d="M126.548,29.887H123.72V21.441a3.958,3.958,0,0,0-1.114-2.689L116.5,12.64a3.764,3.764,0,0,0-1.01-.719V9.915a3.958,3.958,0,0,0-1.114-2.689l-6.11-6.111A3.922,3.922,0,0,0,105.572,0H93.885a3.265,3.265,0,0,0-3.261,3.261V15.09a.97.97,0,1,0,1.94,0V3.261A1.323,1.323,0,0,1,93.885,1.94c.5.012,11.366-.023,11.892.012v4.5a3.264,3.264,0,0,0,3.261,3.261h4.5c.02.035.009,1.7.012,1.815H95.816a.97.97,0,0,0,0,1.94h3.323a3.241,3.241,0,0,0-.281,1.321v.991H95.816a.97.97,0,0,0,0,1.94h3.042v2.312H95.816a.97.97,0,0,0,0,1.94h3.042v7.919H92.564V19.678a.97.97,0,1,0-1.94,0v10.21H88.2a2.9,2.9,0,0,0-2.9,2.9v5.069a2.906,2.906,0,0,0,2.344,2.847L97.3,55.3v8.1a2.822,2.822,0,0,0,2.818,2.818h14.523a2.822,2.822,0,0,0,2.818-2.818V55.3l9.65-14.59a2.906,2.906,0,0,0,2.344-2.847V32.789a2.9,2.9,0,0,0-2.9-2.9Zm-10.6-15.05,2.52,2.521,1.938,1.938h-3.137a1.323,1.323,0,0,1-1.321-1.321V14.838ZM107.716,6.45V3.312l4.458,4.46h-3.137A1.322,1.322,0,0,1,107.716,6.45ZM87.241,32.789a.963.963,0,0,1,.961-.961h25.637a.97.97,0,0,0,0-1.94H100.8v-15.1a1.322,1.322,0,0,1,1.321-1.321c.5.012,11.367-.023,11.892.012v4.5a3.265,3.265,0,0,0,3.261,3.261h4.5c.036.324,0,8.355.012,8.65h-2.892a.97.97,0,0,0,0,1.94h7.66a.963.963,0,0,1,.961.961v5.069a.963.963,0,0,1-.961.961H88.2a.963.963,0,0,1-.961-.961V32.789Zm28.723,21.245h-4.528a.97.97,0,1,0,0,1.94h4.079v7.419a.88.88,0,0,1-.879.879H100.114a.88.88,0,0,1-.879-.879V55.973H106.8a.97.97,0,1,0,0-1.94H98.787l-8.78-13.274h34.737Z" transform="translate(-85.301 0)"/>
        <path id="Path_1261901" data-name="Path 1261901" d="M160.085,58.195h5.133a.97.97,0,1,0,0-1.94h-5.133a.97.97,0,1,0,0,1.94Z" transform="translate(-149.57 -48.98)"/>
        <path id="Path_1261902" data-name="Path 1261902" d="M220.236,138.158h5.133a.97.97,0,1,0,0-1.94h-5.133a.97.97,0,1,0,0,1.94Z" transform="translate(-201.942 -118.603)"/>
        <path id="Path_1261903" data-name="Path 1261903" d="M220.236,171.033H230.9a.97.97,0,0,0,0-1.94H220.236a.97.97,0,0,0,0,1.94Z" transform="translate(-201.942 -147.226)"/>
        <path id="Path_1261904" data-name="Path 1261904" d="M231.872,202.939a.97.97,0,0,0-.97-.97H220.236a.97.97,0,0,0,0,1.94H230.9A.97.97,0,0,0,231.872,202.939Z" transform="translate(-201.942 -175.851)"/>
      </g>
    </g>
  </g>
</svg>
