<svg xmlns="http://www.w3.org/2000/svg" width="89.445" height="89.444" viewBox="0 0 89.445 89.444">
  <g id="Group_1205633" data-name="Group 1205633" transform="translate(-754.051 -2097)">
    <g id="Group_1204924" data-name="Group 1204924" transform="translate(-267.916 -995.655)">
      <g id="Group_1200255" data-name="Group 1200255" transform="translate(1021.967 3092.655)">
        <g id="Group_1187152" data-name="Group 1187152" transform="translate(0 0)">
          <g id="Group_1185946" data-name="Group 1185946">
            <g id="Group_1184280" data-name="Group 1184280">
              <g id="Group_1182168" data-name="Group 1182168">
                <g id="Group_1178877" data-name="Group 1178877">
                  <g id="Group_1111311" data-name="Group 1111311">
                    <g id="Group_1098742" data-name="Group 1098742" transform="translate(0 0)">
                      <g id="Rectangle_400898" data-name="Rectangle 400898" transform="translate(0.001 0)" fill="#b8a9f1" stroke="#7f75a8" stroke-width="1" opacity="0.859">
                        <rect width="89.444" height="89.444" rx="44.722" stroke="none"/>
                        <rect x="0.5" y="0.5" width="88.444" height="88.444" rx="44.222" fill="none"/>
                      </g>
                      <g id="Rectangle_400907" data-name="Rectangle 400907" transform="translate(0 0)" fill="none" stroke="#7f75a8" stroke-width="1">
                        <rect width="89.444" height="89.444" rx="44.722" stroke="none"/>
                        <rect x="0.5" y="0.5" width="88.444" height="88.444" rx="44.222" fill="none"/>
                      </g>
                    </g>
                  </g>
                </g>
              </g>
            </g>
          </g>
        </g>
      </g>
    </g>
    <g id="multi" transform="translate(774.906 2117.797)">
      <g id="Group_1205631" data-name="Group 1205631" transform="translate(0.734 0.735)">
        <g id="Group_1205629" data-name="Group 1205629">
          <path id="Path_1262980" data-name="Path 1262980" d="M51.869,85.186,64.361,72.694,76.853,85.186l8.334-8.334L72.694,64.36,85.187,51.868l-8.334-8.334L64.361,56.026,51.869,43.534l-8.334,8.334L56.027,64.36,43.535,76.852Z" transform="translate(-40.001 -40.002)" fill="#df95c0" fill-rule="evenodd"/>
          <path id="Path_1262981" data-name="Path 1262981" d="M11.032,44.35,23.524,31.858,11.032,19.366l8.334-8.334L31.858,23.524,44.35,11.032l8.334,8.334L40.192,31.858,52.684,44.35,44.35,52.684,31.858,40.192,19.366,52.684ZM18.3,55.776a1.512,1.512,0,0,0,2.133,0L31.858,44.35,43.284,55.776a1.513,1.513,0,0,0,2.133,0L55.776,45.417a1.513,1.513,0,0,0,0-2.133L44.35,31.858,55.776,20.432a1.512,1.512,0,0,0,0-2.133L45.417,7.94a1.513,1.513,0,0,0-2.133,0L31.858,19.366,20.432,7.94a1.512,1.512,0,0,0-2.133,0L7.94,18.3a1.512,1.512,0,0,0,0,2.133L19.366,31.858,7.94,43.284a1.513,1.513,0,0,0,0,2.133Z" transform="translate(-7.498 -7.5)" fill="#f2f2f4" fill-rule="evenodd"/>
          <path id="Path_1262982" data-name="Path 1262982" d="M51.869,85.186l1.1-1.1L45.74,76.852,58.233,64.36,45.74,51.868l7.231-7.231-1.1-1.1-8.334,8.334L56.027,64.36,43.535,76.852Z" transform="translate(-40.001 -40.002)" fill="#c74892" fill-rule="evenodd"/>
          <path id="Path_1262983" data-name="Path 1262983" d="M18.285,154.817a1.511,1.511,0,0,0,2.169-.036L7.925,142.325a1.513,1.513,0,0,0,0,2.133ZM7.962,117.3a1.511,1.511,0,0,0-.036,2.169l11.946,11.946,1.1-1.1Z" transform="translate(-7.484 -106.541)" fill="#bbbbbe" fill-rule="evenodd"/>
        </g>
        <g id="Group_1205630" data-name="Group 1205630" transform="translate(33.712 6.672)">
          <path id="Path_1262984" data-name="Path 1262984" d="M352.451,79.729l-1.04-1.04,1.04-1.04,1.039,1.04Zm2.079-2.079-1.04-1.04,1.039-1.04,1.04,1.04Z" transform="translate(-351.411 -75.57)" fill="#fff"/>
        </g>
      </g>
      <g id="Group_1205632" data-name="Group 1205632" transform="translate(0 0)">
        <path id="Path_1262985" data-name="Path 1262985" d="M0,0H1.47V1.47H0Z" transform="translate(42.783 43.834) rotate(-45)"/>
        <path id="Path_1262986" data-name="Path 1262986" d="M38.625,25.093,49.531,14.187a2.246,2.246,0,0,0,0-3.172L39.172.655A2.248,2.248,0,0,0,36,.655L25.093,11.561,14.187.655a2.248,2.248,0,0,0-3.172,0L.655,11.015a2.248,2.248,0,0,0,0,3.173L11.561,25.093.655,36a2.248,2.248,0,0,0,0,3.172L11.015,49.531a2.246,2.246,0,0,0,3.172,0L25.093,38.625,36,49.531a2.246,2.246,0,0,0,3.172,0l3.62-3.62-1.04-1.04-3.62,3.62a.774.774,0,0,1-1.093,0L25.093,36.546,13.147,48.492a.774.774,0,0,1-1.093,0L1.695,38.132a.777.777,0,0,1,0-1.093L13.641,25.093,1.695,13.147a.777.777,0,0,1,0-1.093L12.054,1.695a.777.777,0,0,1,1.093,0L25.093,13.641,37.039,1.695a.777.777,0,0,1,1.093,0L48.491,12.054a.774.774,0,0,1,0,1.093L36.546,25.093,48.491,37.039a.774.774,0,0,1,0,1.093l-3.62,3.62,1.04,1.04,3.62-3.62a2.246,2.246,0,0,0,0-3.172Z" transform="translate(0 0)"/>
        <path id="Path_1262987" data-name="Path 1262987" d="M0,0H1.47V1.47H0Z" transform="translate(7.393 8.434) rotate(-45)"/>
        <path id="Path_1262988" data-name="Path 1262988" d="M36.055,39.174,32.928,42.3,45.42,54.794,32.928,67.286,42.3,76.659,54.794,64.167,67.286,76.659l9.373-9.373L64.167,54.794,76.659,42.3l-9.373-9.373L54.794,45.42,42.3,32.928l-3.127,3.127,1.04,1.04L42.3,35.007,54.794,47.5,67.286,35.007,74.58,42.3,62.088,54.794,74.58,67.286,67.286,74.58,54.794,62.088,42.3,74.58l-7.294-7.294L47.5,54.794,35.007,42.3l2.088-2.088Z" transform="translate(-29.7 -29.7)"/>
      </g>
    </g>
  </g>
</svg>
