<svg xmlns="http://www.w3.org/2000/svg" width="89.444" height="89.444" viewBox="0 0 89.444 89.444">
  <g id="Group_1205637" data-name="Group 1205637" transform="translate(-1258.051 -2097)">
    <g id="Group_1204926" data-name="Group 1204926" transform="translate(236.084 -995.655)">
      <g id="Group_1200255" data-name="Group 1200255" transform="translate(1021.967 3092.655)">
        <g id="Group_1187152" data-name="Group 1187152" transform="translate(0 0)">
          <g id="Group_1185946" data-name="Group 1185946">
            <g id="Group_1184280" data-name="Group 1184280">
              <g id="Group_1182168" data-name="Group 1182168">
                <g id="Group_1178877" data-name="Group 1178877">
                  <g id="Group_1111311" data-name="Group 1111311">
                    <g id="Group_1098742" data-name="Group 1098742" transform="translate(0 0)">
                      <g id="Rectangle_400898" data-name="Rectangle 400898" transform="translate(0.001 0)" fill="#b8a9f1" stroke="#7f75a8" stroke-width="1" opacity="0.859">
                        <rect width="89.444" height="89.444" rx="44.722" stroke="none"/>
                        <rect x="0.5" y="0.5" width="88.444" height="88.444" rx="44.222" fill="none"/>
                      </g>
                      <g id="Rectangle_400907" data-name="Rectangle 400907" transform="translate(0 0)" fill="none" stroke="#7f75a8" stroke-width="1">
                        <rect width="89.444" height="89.444" rx="44.722" stroke="none"/>
                        <rect x="0.5" y="0.5" width="88.444" height="88.444" rx="44.222" fill="none"/>
                      </g>
                    </g>
                  </g>
                </g>
              </g>
            </g>
          </g>
        </g>
      </g>
    </g>
    <g id="subindice" transform="translate(1279.051 2117.98)">
      <g id="Group_1205635" data-name="Group 1205635" transform="translate(0.925 0.94)">
        <path id="Path_1262998" data-name="Path 1262998" d="M226.113,220.007a9.611,9.611,0,0,1,3.209-.541,9.838,9.838,0,1,1-9.838,9.838,9.607,9.607,0,0,1,.541-3.209A9.84,9.84,0,0,1,226.113,220.007Z" transform="translate(-193.339 -193.32)" fill="#ffd248"/>
        <path id="Path_1262999" data-name="Path 1262999" d="M49.6,12.182a1.239,1.239,0,0,1,0,1.746L34.816,28.709l5.46,5.46a9.84,9.84,0,0,0-6.087,6.087l-5.46-5.46L13.948,49.577a1.239,1.239,0,0,1-1.746,0L7.861,45.223a1.225,1.225,0,0,1,0-1.734L22.642,28.709,7.861,13.928a1.239,1.239,0,0,1,0-1.746L12.2,7.841a1.239,1.239,0,0,1,1.746,0L28.729,22.622,43.51,7.841a1.239,1.239,0,0,1,1.746,0Z" transform="translate(-7.501 -7.481)" fill="#e7eced"/>
      </g>
      <g id="Group_1205636" data-name="Group 1205636" transform="translate(0 0.019)">
        <path id="Path_1263000" data-name="Path 1263000" d="M36.909,26.161a10.6,10.6,0,0,0-2.953.415l-4.409-4.408L43.675,8.041a2.178,2.178,0,0,0,0-3.055L39.326.637A2.176,2.176,0,0,0,36.28.645L22.153,14.772,8.026.645a2.179,2.179,0,0,0-3.055,0L.623,4.994A2.176,2.176,0,0,0,.631,8.041L14.757,22.167.631,36.294a2.15,2.15,0,0,0,0,3.041l4.341,4.353.009.009a2.178,2.178,0,0,0,1.523.618,2.147,2.147,0,0,0,1.523-.626L22.153,29.563l4.408,4.409a10.6,10.6,0,0,0-.415,2.953A10.763,10.763,0,1,0,36.909,26.161ZM6.718,42.381a.315.315,0,0,1-.443-.005L1.939,38.028a.3.3,0,0,1,0-.426L17.374,22.167,1.939,6.732a.312.312,0,0,1,0-.438L6.271,1.962a.315.315,0,0,1,.446-.008L22.153,17.389,37.588,1.954a.313.313,0,0,1,.438,0l4.333,4.333a.315.315,0,0,1,.008.446L26.932,22.167l5.145,5.145A10.873,10.873,0,0,0,27.3,32.091l-5.145-5.145Zm30.192,3.455A8.923,8.923,0,0,1,28,36.924a8.69,8.69,0,0,1,.491-2.908A8.967,8.967,0,0,1,34,28.5l.007,0a8.675,8.675,0,0,1,2.9-.488,8.912,8.912,0,1,1,0,17.825Z" transform="translate(0 -0.019)"/>
        <path id="Path_1263001" data-name="Path 1263001" d="M271.659,248.506c0-2.055-1.374-4.115-4.442-4.115a6.47,6.47,0,0,0-4.011,1.355l-.269.22,1.033,2.49.475-.361a3.876,3.876,0,0,1,2.307-.91c1.125,0,1.7.527,1.7,1.562-.016,1.387-1.179,2.716-4.025,5.358l-1.554,1.458v1.6h8.608V254.7h-3.765l.172-.1C269.874,252.755,271.659,250.921,271.659,248.506Z" transform="translate(-230.446 -214.25)"/>
      </g>
    </g>
  </g>
</svg>
