<svg xmlns="http://www.w3.org/2000/svg" width="89.445" height="89.444" viewBox="0 0 89.445 89.444">
  <g id="Group_1205671" data-name="Group 1205671" transform="translate(-335.278 -1371)">
    <g id="Group_1205184" data-name="Group 1205184" transform="translate(-686.689 -1721.655)">
      <g id="Group_1200255" data-name="Group 1200255" transform="translate(1021.967 3092.655)">
        <g id="Group_1187152" data-name="Group 1187152" transform="translate(0 0)">
          <g id="Group_1185946" data-name="Group 1185946">
            <g id="Group_1184280" data-name="Group 1184280">
              <g id="Group_1182168" data-name="Group 1182168">
                <g id="Group_1178877" data-name="Group 1178877">
                  <g id="Group_1111311" data-name="Group 1111311">
                    <g id="Group_1098742" data-name="Group 1098742" transform="translate(0 0)">
                      <g id="Rectangle_400898" data-name="Rectangle 400898" transform="translate(0.001 0)" fill="#b8a9f1" stroke="#7f75a8" stroke-width="1" opacity="0.859">
                        <rect width="89.444" height="89.444" rx="44.722" stroke="none"/>
                        <rect x="0.5" y="0.5" width="88.444" height="88.444" rx="44.222" fill="none"/>
                      </g>
                      <g id="Rectangle_400907" data-name="Rectangle 400907" transform="translate(0 0)" fill="none" stroke="#7f75a8" stroke-width="1">
                        <rect width="89.444" height="89.444" rx="44.722" stroke="none"/>
                        <rect x="0.5" y="0.5" width="88.444" height="88.444" rx="44.222" fill="none"/>
                      </g>
                    </g>
                  </g>
                </g>
              </g>
            </g>
          </g>
        </g>
      </g>
    </g>
    <g id="analitica" transform="translate(388.334 1421.021)">
      <g id="Group_1205670" data-name="Group 1205670" transform="translate(-35.334 -35.298)">
        <g id="Group_1205665" data-name="Group 1205665" transform="translate(0 0)">
          <circle id="Ellipse_13682" data-name="Ellipse 13682" cx="10.703" cy="10.703" r="10.703" transform="translate(0 15.134) rotate(-45)" fill="#60b7ff"/>
          <circle id="Ellipse_13683" data-name="Ellipse 13683" cx="9.373" cy="9.373" r="9.373" transform="translate(1.88 15.134) rotate(-45)" fill="#8ac9fe"/>
          <path id="Path_1263102" data-name="Path 1263102" d="M112.608,112.62h10.7a10.7,10.7,0,0,1-5.351,9.27Z" transform="translate(-97.472 -97.486)" fill="#fd4755" fill-rule="evenodd"/>
          <path id="Path_1263103" data-name="Path 1263103" d="M112.608,112.62h9.373a9.369,9.369,0,0,1-4.686,8.118Z" transform="translate(-97.472 -97.486)" fill="#fe646f" fill-rule="evenodd"/>
          <path id="Path_1263104" data-name="Path 1263104" d="M123.311,18.713h-10.7V8.01A10.7,10.7,0,0,1,123.311,18.713Z" transform="translate(-97.472 -3.579)" fill="#ffd064" fill-rule="evenodd"/>
          <path id="Path_1263105" data-name="Path 1263105" d="M121.981,30.381h-9.373V21.008A9.373,9.373,0,0,1,121.981,30.381Z" transform="translate(-97.472 -15.247)" fill="#ffe177" fill-rule="evenodd"/>
        </g>
        <g id="Group_1205666" data-name="Group 1205666" transform="translate(30.908 4.148)">
          <path id="Path_1263106" data-name="Path 1263106" d="M267.911,5.247h2.76A1.154,1.154,0,0,1,271.823,6.4v2.76a1.154,1.154,0,0,1-1.152,1.152h-2.76a1.154,1.154,0,0,1-1.152-1.152V6.4a1.154,1.154,0,0,1,1.152-1.152Z" transform="translate(-266.759 -5.247)" fill="#8ac9fe" fill-rule="evenodd"/>
          <path id="Path_1263107" data-name="Path 1263107" d="M267.911,87.873h2.76a1.154,1.154,0,0,1,1.152,1.152v2.76a1.154,1.154,0,0,1-1.152,1.152h-2.76a1.154,1.154,0,0,1-1.152-1.152v-2.76A1.154,1.154,0,0,1,267.911,87.873Z" transform="translate(-266.759 -79.419)" fill="#ffe177" fill-rule="evenodd"/>
          <path id="Path_1263108" data-name="Path 1263108" d="M267.911,170.5h2.76a1.154,1.154,0,0,1,1.152,1.152v2.76a1.154,1.154,0,0,1-1.152,1.152h-2.76a1.154,1.154,0,0,1-1.152-1.152v-2.76A1.154,1.154,0,0,1,267.911,170.5Z" transform="translate(-266.759 -153.591)" fill="#fe646f" fill-rule="evenodd"/>
        </g>
        <g id="Group_1205667" data-name="Group 1205667" transform="translate(4.434 31.713)">
          <path id="Path_1263109" data-name="Path 1263109" d="M198.035,348.361h3.4a1.025,1.025,0,0,1,1.023,1.023v13.879a1.025,1.025,0,0,1-1.023,1.023h-3.4a1.025,1.025,0,0,1-1.023-1.023V349.384A1.025,1.025,0,0,1,198.035,348.361Z" transform="translate(-177.674 -340.82)" fill="#ffe177" fill-rule="evenodd"/>
          <path id="Path_1263110" data-name="Path 1263110" d="M201.434,348.361a1.025,1.025,0,0,1,1.023,1.023v13.879a1.025,1.025,0,0,1-1.023,1.023h-3.4a1.025,1.025,0,0,1-1.023-1.023h3.4a1.025,1.025,0,0,0,1.023-1.023Z" transform="translate(-177.674 -340.82)" fill="#ffd064" fill-rule="evenodd"/>
          <path id="Path_1263111" data-name="Path 1263111" d="M294.62,348.361h3.4a1.025,1.025,0,0,1,1.023,1.023v13.879a1.025,1.025,0,0,1-1.023,1.023h-3.4a1.025,1.025,0,0,1-1.023-1.023V349.384A1.025,1.025,0,0,1,294.62,348.361Z" transform="translate(-264.377 -340.82)" fill="#fe646f" fill-rule="evenodd"/>
          <path id="Path_1263112" data-name="Path 1263112" d="M298.019,348.361a1.025,1.025,0,0,1,1.023,1.023v13.879a1.025,1.025,0,0,1-1.023,1.023h-3.4a1.025,1.025,0,0,1-1.023-1.023H297a1.025,1.025,0,0,0,1.023-1.023Z" transform="translate(-264.377 -340.82)" fill="#fd4755" fill-rule="evenodd"/>
          <path id="Path_1263113" data-name="Path 1263113" d="M9.023,321.361h3.4a1.025,1.025,0,0,1,1.023,1.023v16.641a1.025,1.025,0,0,1-1.023,1.023h-3.4A1.025,1.025,0,0,1,8,339.025V322.384A1.025,1.025,0,0,1,9.023,321.361Z" transform="translate(-8 -316.583)" fill="#6cf5c2" fill-rule="evenodd"/>
          <path id="Path_1263114" data-name="Path 1263114" d="M12.422,321.361a1.025,1.025,0,0,1,1.023,1.023v16.641a1.025,1.025,0,0,1-1.023,1.023h-3.4A1.025,1.025,0,0,1,8,339.025h3.4A1.025,1.025,0,0,0,12.422,338Z" transform="translate(-8 -316.583)" fill="#00e499" fill-rule="evenodd"/>
          <path id="Path_1263115" data-name="Path 1263115" d="M101.449,274.658h3.4a1.025,1.025,0,0,1,1.023,1.023V297.1a1.025,1.025,0,0,1-1.023,1.023h-3.4a1.025,1.025,0,0,1-1.023-1.023v-21.42A1.025,1.025,0,0,1,101.449,274.658Z" transform="translate(-90.97 -274.658)" fill="#8ac9fe" fill-rule="evenodd"/>
          <path id="Path_1263116" data-name="Path 1263116" d="M104.848,274.658a1.025,1.025,0,0,1,1.023,1.023V297.1a1.025,1.025,0,0,1-1.023,1.023h-3.4a1.025,1.025,0,0,1-1.023-1.023h3.4a1.025,1.025,0,0,0,1.023-1.023Z" transform="translate(-90.97 -274.658)" fill="#60b7ff" fill-rule="evenodd"/>
        </g>
        <g id="Group_1205668" data-name="Group 1205668" transform="translate(20.783 19.712)">
          <path id="Path_1263117" data-name="Path 1263117" d="M375.01,354.862a10.6,10.6,0,0,1-1.789,1.969l4.863,4.767,1.851-1.908Z" transform="translate(-352.204 -334.655)" fill="#a79ba7" fill-rule="evenodd"/>
          <path id="Path_1263118" data-name="Path 1263118" d="M386.378,354.541a1.222,1.222,0,0,1-.529.71l4.831,4.8.592-.648Z" transform="translate(-363.54 -334.367)" fill="#837683" fill-rule="evenodd"/>
          <path id="Path_1263119" data-name="Path 1263119" d="M415.738,398.763l2.089-2.153a.961.961,0,0,0-.02-1.355l-5.787-5.616a.961.961,0,0,0-1.355.02l-2.09,2.153a.961.961,0,0,0,.02,1.355l5.787,5.616A.961.961,0,0,0,415.738,398.763Z" transform="translate(-383.699 -365.632)" fill="#f1ba84" fill-rule="evenodd"/>
          <path id="Path_1263120" data-name="Path 1263120" d="M434.136,389.638l5.787,5.616a.961.961,0,0,1,.02,1.355l-2.09,2.153a.951.951,0,0,1-.259.19.962.962,0,0,0,1.116-.19l2.09-2.153a.961.961,0,0,0-.02-1.355l-5.787-5.616a.962.962,0,0,0-1.1-.169A.954.954,0,0,1,434.136,389.638Z" transform="translate(-406.672 -365.631)" fill="#e3a76f" fill-rule="evenodd"/>
          <circle id="Ellipse_13684" data-name="Ellipse 13684" cx="10.539" cy="10.539" r="10.539" transform="translate(0 14.902) rotate(-45)" fill="#eceff1"/>
          <path id="Path_1263121" data-name="Path 1263121" d="M309.026,200a10.539,10.539,0,0,1,0,21.077q-.257,0-.512-.013a10.539,10.539,0,0,0,0-21.052Q308.768,200,309.026,200Z" transform="translate(-294.117 -195.641)" fill="#d1d1d6" fill-rule="evenodd"/>
        </g>
        <g id="Group_1205669" data-name="Group 1205669" transform="translate(28.018 26.939)">
          <circle id="Ellipse_13685" data-name="Ellipse 13685" cx="7.673" cy="7.673" r="7.673" transform="translate(0 0)" fill="#837683"/>
          <path id="Path_1263122" data-name="Path 1263122" d="M313.836,235.679a7.674,7.674,0,0,1-6.991,7.644q.337.03.682.03a7.743,7.743,0,0,0,1.1-.078l.138-.021a7.674,7.674,0,0,0-1.237-15.248q-.345,0-.682.03A7.674,7.674,0,0,1,313.836,235.679Z" transform="translate(-299.854 -228.005)" fill="#685e68" fill-rule="evenodd"/>
          <path id="Path_1263123" data-name="Path 1263123" d="M266.764,310.239a5.361,5.361,0,0,0-5.328,4.782,7.648,7.648,0,0,0,5.328,2.151,7.743,7.743,0,0,0,1.1-.078,7.65,7.65,0,0,0,4.23-2.074A5.359,5.359,0,0,0,266.764,310.239Z" transform="translate(-259.091 -301.825)" fill="#8ac9fe" fill-rule="evenodd"/>
          <path id="Path_1263124" data-name="Path 1263124" d="M306.847,310.282c3.19.405,4.475,2.819,4.771,5.711a7.7,7.7,0,0,0,1.239-.972,5.359,5.359,0,0,0-5.328-4.782A5.414,5.414,0,0,0,306.847,310.282Z" transform="translate(-299.855 -301.825)" fill="#60b7ff" fill-rule="evenodd"/>
          <circle id="Ellipse_13686" data-name="Ellipse 13686" cx="2.709" cy="2.709" r="2.709" transform="translate(4.964 2.59)" fill="#f6dccd"/>
          <path id="Path_1263125" data-name="Path 1263125" d="M312.549,256.027a2.71,2.71,0,0,1-2.368,2.688,2.74,2.74,0,0,0,.341.021,2.709,2.709,0,1,0-.341-5.4A2.71,2.71,0,0,1,312.549,256.027Z" transform="translate(-302.848 -250.728)" fill="#f1cbbc" fill-rule="evenodd"/>
        </g>
      </g>
      <path id="Path_1263126" data-name="Path 1263126" d="M25.218,31.01a6.813,6.813,0,0,0,1.132,3.766,6.16,6.16,0,0,1,3.177-3.3,3.528,3.528,0,1,1,5.094,0,6.165,6.165,0,0,1,3.177,3.3,6.854,6.854,0,1,0-12.58-3.766Zm6.855-.079a1.891,1.891,0,1,1,1.891-1.891A1.893,1.893,0,0,1,32.073,30.931Zm0,6.933a6.822,6.822,0,0,1-4.451-1.649,4.541,4.541,0,0,1,8.9,0A6.826,6.826,0,0,1,32.073,37.865ZM23.581,31.01A8.492,8.492,0,1,1,32.073,39.5,8.5,8.5,0,0,1,23.581,31.01ZM14.9,28.928H11.091V50.756H14.9Zm1.637-.819V51.575a.819.819,0,0,1-.818.819H10.273a.819.819,0,0,1-.819-.819V28.109a.818.818,0,0,1,.819-.819h5.445a.819.819,0,0,1,.818.819ZM50.7,46.318,44.916,40.7a.134.134,0,0,0-.1-.038h0a.137.137,0,0,0-.1.041l-2.09,2.153a.144.144,0,0,0,0,.2l5.787,5.616a.144.144,0,0,0,.2,0l2.09-2.154A.144.144,0,0,0,50.7,46.318Zm-16.04-4.249a11.383,11.383,0,0,1-3.808.232v8.455h3.808Zm-9.883-2.36a11.438,11.438,0,0,1-2.663-3.24H20.972V50.756H24.78Zm-2.426-8.7a9.72,9.72,0,1,1,9.72,9.72,9.731,9.731,0,0,1-9.72-9.72Zm6.037-10.744a11.279,11.279,0,0,1,2.862-.584V18.554H28.391Zm12.4,18.011c-.218.262-.448.514-.689.755l2.037,1.977.712-.733Zm11.087,9.379-2.089,2.153a1.779,1.779,0,0,1-2.513.038l-5.787-5.616a1.78,1.78,0,0,1-.4-1.962l-2.227-2.161A11.352,11.352,0,0,1,36.3,41.551V51.575a.819.819,0,0,1-.818.819H30.036a.819.819,0,0,1-.819-.819V42a11.27,11.27,0,0,1-2.8-1.147v10.72a.819.819,0,0,1-.819.819H20.154a.819.819,0,0,1-.818-.819V35.65a.818.818,0,0,1,.818-.819h1.225a11.356,11.356,0,0,1,5.376-13.854V17.735a.819.819,0,0,1,.819-.819h4.5a.819.819,0,0,1,.819.819v1.947a11.27,11.27,0,0,1,4.314,1.2h6.442a.818.818,0,1,1,0,1.637H39.6a11.338,11.338,0,0,1,2.156,14.417l2.322,2.254a1.782,1.782,0,0,1,1.974.341l5.787,5.616a1.778,1.778,0,0,1,.038,2.512ZM5.442,33.706H1.634V50.756H5.442Zm1.637-.818V51.575a.819.819,0,0,1-.819.819H.816A.819.819,0,0,1,0,51.575V32.887a.818.818,0,0,1,.819-.819H6.261a.818.818,0,0,1,.819.819ZM28.391,12.961h2.862V10.1H28.391Zm-1.637.819v-4.5a.818.818,0,0,1,.819-.818h4.5a.818.818,0,0,1,.819.818v4.5a.819.819,0,0,1-.819.819h-4.5A.819.819,0,0,1,26.754,13.78Zm8.975.283h7.917a.819.819,0,0,0,0-1.637H35.729a.819.819,0,0,0,0,1.637Zm0-3.427H51.563a.819.819,0,0,0,0-1.637H35.729a.819.819,0,0,0,0,1.637ZM28.391,4.507h2.862V1.646H28.391Zm-1.637.819V.828a.818.818,0,0,1,.819-.819h4.5a.818.818,0,0,1,.819.819v4.5a.818.818,0,0,1-.819.819h-4.5A.818.818,0,0,1,26.754,5.326Zm8.975.283h7.917a.818.818,0,1,0,0-1.637H35.729a.818.818,0,0,0,0,1.637Zm0-3.427H51.563a.819.819,0,0,0,0-1.637H35.729a.819.819,0,0,0,0,1.637ZM1.634,11.53A9.884,9.884,0,0,0,15.8,20.437l-4.992-8.491a.826.826,0,0,1-.112-.415V1.68a9.9,9.9,0,0,0-9.066,9.85Zm10.7-9.85a9.9,9.9,0,0,1,9.033,9.036l-9.033,0Zm9.031,10.673-8.419,0L17.215,19.6a9.886,9.886,0,0,0,4.154-7.251ZM0,11.53A11.522,11.522,0,1,0,11.519.009,11.535,11.535,0,0,0,0,11.53Zm34.914,6.74a.818.818,0,0,0,.818.818H51.563a.818.818,0,1,0,0-1.637H35.729A.818.818,0,0,0,34.911,18.271Z" transform="translate(-31.717 -31.695)" fill-rule="evenodd"/>
    </g>
  </g>
</svg>
